<?xml version="1.0" standalone="no"?>
<!DOCTYPE svg PUBLIC "-//W3C//DTD SVG 1.1//EN" "http://www.w3.org/Graphics/SVG/1.1/DTD/svg11.dtd" >
<svg xmlns="http://www.w3.org/2000/svg" xmlns:xlink="http://www.w3.org/1999/xlink" version="1.1">
<metadata>
Created by FontForge 20161013 at Thu May  8 20:41:48 1997
 By ,,,
(c) Copyright 1997 International Typeface Corporation. All rights reserved.
</metadata>
<defs>
<font id="BradleyHandITCTT" horiz-adv-x="500" >
  <font-face 
    font-family="Bradley Hand ITC TT"
    font-weight="400"
    font-stretch="normal"
    units-per-em="1000"
    panose-1="0 0 4 0 0 0 0 0 0 0"
    ascent="800"
    descent="-200"
    x-height="404"
    cap-height="519"
    bbox="-390 -398 1066 849"
    underline-thickness="59"
    underline-position="-253"
    unicode-range="U+0020-F002"
  />
<missing-glyph 
d="M63 0v657h375v-657h-375zM125 63h250v532h-250v-532z" />
    <glyph glyph-name=".notdef" 
d="M63 0v657h375v-657h-375zM125 63h250v532h-250v-532z" />
    <glyph glyph-name=".null" horiz-adv-x="0" 
 />
    <glyph glyph-name="glyph2" horiz-adv-x="255" 
 />
    <glyph glyph-name="space" unicode=" " horiz-adv-x="255" 
 />
    <glyph glyph-name="exclam" unicode="!" horiz-adv-x="295" 
d="M171 527l-4 -7l-1 -6l-6 -8l7 -27l-5 -9l4 -4l-2 -8l3 -6q-9 -1 -9 -9q0 -1 4 -19l-5 -14l7 -9l-4 -7l-3 -16l-4 -93l5 -9l-5 -23l5 -21l-5 -13l5 -10l-1 -11l1 -7l-5 -2q4 -9 4 -18q0 -8 -9 -9q7 -7 7 -12q0 -9 -9 -9t-9 21v22l-3 26l-4 16l5 13l-5 14l5 36l-9 5l4 12
l-2 13v9l4 2l-6 14l2 7v2q0 6 6 16l-4 9v14l-4 2l8 8l-6 16l4 15l-7 9l7 8l-2 15l2 10q-3 5 -3 8q0 4 1 5l2 5l-6 2v21l-8 9l1 20l11 -2l14 4l22 -8l3 -9zM186 6l-12 -10l-14 4l-12 -5l-10 5h-10l-6 22l4 15l8 8h2q-1 0 9 8q15 -6 18 -6h1q0 1 -3 4h2q2 0 12 -5l7 -12l4 -12
q-3 -1 -3 -5q0 -3 3 -11z" />
    <glyph glyph-name="quotedbl" unicode="&#x22;" horiz-adv-x="283" 
d="M210 478l-6 -8l2 -4l-3 -6l3 -7l-2 -9l1 -9l-7 -7l4 -8l-7 -8l3 -9l-4 -8l3 -3l-3 -6q1 -1 1 -3q0 -1 -1 -3.5t-1 -4.5t2 -6v-3q0 -5 -5 -13q-2 -11 -2 -14l2 -24l-9 -6l-7 1l-6 27l2 14l-1 21l-7 22l3 14l-2 17l-6 13l-4 15l1 15l6 10l-4 18l6 10q5 6 14 6q2 0 10 -2
l16 -4l4 -5l4 -10v-13zM127 453l-4 -15l-6 -13l-2 -17l3 -14l-7 -22l-1 -21l2 -14l-6 -27l-7 -1l-9 6l2 24q0 5 -2 14q-5 8 -5 13v3q2 2 2 7v3q-1 2 -1 3q0 2 1 4l-4 6l3 3l-4 8l3 9l-7 8l4 8l-7 7l1 9l-2 9l3 7l-3 6l2 4l-6 8v13l5 10l3 5l16 4q12 3 11 3q6 0 13 -7l6 -10
l-4 -18l5 -10z" />
    <glyph glyph-name="numbersign" unicode="#" horiz-adv-x="618" 
d="M617 318l-9 -1l-7 -5l-11 7l-16 1q-8 -5 -10 -5q-3 0 -6 4l-9 -3l-11 5l-10 -7l-15 4l-38 -5l-11 4q-25 0 -41 -4l-7 -23l-12 -16l-2 -37l-9 -10l-7 -24l-10 -7l-1 -11l-13 -14l7 -6l-7 -8l13 1q1 0 10.5 -1.5t16.5 -1.5q2 1 5 1q5 0 9 -4l16 -1l16 2l14 -6l15 5
q3 -5 5 -5t10.5 1.5t15.5 1.5q2 0 10.5 -1t16.5 -2q7 4 12 4q6 -2 19 -2l9 -12h-9l-8 -6l-11 7l-16 1q-7 -4 -10 -4q-4 0 -6 3l-9 -3l-10 6l-10 -7l-15 4l-40 -6l-9 4l-6 1q-11 0 -49 -8q-3 5 -9 5l-9 -18l-6 -18l-10 -8l-6 -24l-14 -34l-3 -22l-9 -19l-2 -28l-16 -25
l-13 -43l-3 -22l-14 -25l-12 5l10 31l-1 19l7 14l1 9l7 3l1 24l5 16l6 31q14 3 14 13l1 29l13 14l1 22l10 24l-2 10l14 19l-10 -1q-13 5 -21 5q-2 0 -44 -5l-16 4l-28 -9l-26 8h-9l-9 -17l-6 -18l-10 -8l-6 -24l-14 -34l-4 -22l-8 -19l-2 -28l-16 -25l-13 -43l-3 -22
l-14 -25l-12 5l10 31l-1 19l7 14l1 9l7 3l1 24l5 16l6 31q14 3 14 13l1 29l13 14l1 22l10 24l-2 10l15 21q-17 -1 -29 -6l-10 -4q-5 8 -12 8l-16 -4l-15 5l-32 -3l-7 -4l-9 5l-8 6v11l-2 6h5l24 8l14 2l21 -5l18 2l32 -4l23 4l11 -2v4l11 20l2 15h3q-3 8 -3 11q0 5 5 20l8 4
l-1 20l20 6q-6 7 -8 14q0 6 9 18t10 23l-18 1q-31 -5 -33 -6l-9 -5q-4 9 -12 9l-17 -4l-14 5l-32 -3l-8 -4l-8 5l-8 6v11l-3 6h6l24 8l14 2l21 -5l18 2l32 -4l24 4l17 -3l19 4l4 35l24 48v32l17 9l5 39l14 23q9 6 24 17l15 -15l-12 -32l-19 -45l-11 -19l-8 -29l-15 -36
l-11 -4l3 -7l-5 -21l9 -3l14 3l12 -1q3 -3 7 -3q2 1 10 4q10 -4 14 -7q5 6 15 6q6 0 9 -1l4 -3l65 6l4 39l24 48v32l17 9l5 39l14 23q9 6 24 17l15 -15l-11 -32l-20 -45l-11 -19l-8 -29l-15 -36l-11 -4l3 -7l-5 -21q3 0 7.5 -0.5t6.5 -1.5q2 0 4.5 1t3.5 1q3 -1 6 -4l16 -1
l16 1l14 -5l15 5q2 -5 4 -5l8.5 1.5t18.5 1.5q3 0 12.5 -2t14.5 -2q3 2 12 5q6 -2 19 -2zM393 316h-3l-8 -4l-21 -1q-15 5 -19 5q2 0 -46 -6l-15 4l-30 -8l-13 4l-6 -20l-12 -16l-2 -37l-9 -10l-7 -24l-10 -7l-1 -11l-13 -14l7 -6l-3 -3l9 2l22 -11l14 4l11 -2q6 -2 8 -2
q4 0 10 3q7 -1 14 -7q3 6 14 6q6 0 10 -1l4 -3l38 4l1 7l11 20l2 15h3q-3 6 -3 13q0 5 5 18l8 4l-1 20l20 6q-9 11 -9 16q0 4 9.5 16.5t10.5 25.5z" />
    <glyph glyph-name="dollar" unicode="$" horiz-adv-x="650" 
d="M592 166l-5 -4l-7 -28l-24 -15q-18 -7 -28 -7h-4q-5 -1 -13.5 -5t-11.5 -4h-21l-18 -12l-5 3l-20 -7q-42 0 -42 -28q0 -3 3.5 -19.5t3.5 -30.5q0 -9 -3.5 -28.5t-3.5 -29.5q0 -11 7 -22l-6 -2l4 -17l-5 -13l5 -14l-2 -11l2 -12l-5 -14l5 -11l2 -16v-11l-7 -5l9 -52
l-11 -5q0 3 -4 13v11q0 -7 -1 19l-2 51l-4 29l2 22q1 5 1 14q0 13 -4 13q-1 0 -1 -1h-1l3 30l-5 27l9 21q0 12 -9 12q-1 6 -1 15q0 6 1 8v18q0 1 1 4v6q0 8 -3 13l-12 4l-8 -7h-23l-17 -6l-4 -7l7 -7l-9 -11l7 -12q-2 -11 -8 -19l7 -19l-7 -45l3 -18l-5 -14l7 -13l-5 -30
l5 -27l-5 -16l3 -12l4 -5l3 -15l-2 -14l8 -14q0 -9 -9 -9q-5 0 -6 11q-1 17 -5 26l-6 15l-1 20l2 20v31l-6 17l-3 32q5 5 5 12q0 6 -2 10l-1 30l3 18l-5 25v35l-14 -2q-9 -3 -15 -3q-1 0 -3 1h-3q-3 0 -9 -3t-10 -3q-3 0 -5 1l-9 4l-10 -5l-23 3l-18 -5l-16 -3l-40 6l-12 -1
l-5 5l-11 -2l-19 2l-9 -4l-7 9h-20l-18 11l-9 -2l-7 9h-3q-13 0 -13 19q0 10 11 13l30 5l1 6l35 -4l16 4q3 -1 3 -5q0 -5 -10 -15l-36 -5l-5 -7q1 -4 33 -16q12 5 21 5h10q11 0 16 -5l57 -4q9 4 19 4h6q10 7 31 7h9l32 1l32 8l-1 20l3 102l-5 5v17q-8 8 -14 8q-2 -1 -4 -1
l-27 1l-14 6l-23 -6l-4 4l-32 12l-8 8l-20 5l-7 9l-11 9l-2 20l-4 23l4 19l11 15h1q3 0 24 19l16 4l28 12l20 1l20 8h14l9 7l1 7l13 2l18 -2v7l-6 10q2 17 4.5 34.5t2.5 18.5l-7 16l11 19l-4 14v28l-4 24v13q3 1 7 1q3 0 3 -3q-5 10 -5 26t17 16q10 0 23 -12l4 -7l-9 -15
l11 -10q-18 -5 -18 -16v-2l2 -27l-7 -19l5 -6l-2 -16l5 -10v-14l-8 -9l3 -22l-9 -19q6 -17 16 -17q4 0 7 2l38 15l-4 21l4 16l-4 30l4 15l-2 20l2 24l-6 28l11 4v25l2 18l-1 7l29 3l9 -12l-5 -13l2 -24l-9 -13l1 -16l-7 -9l7 -19q-9 -6 -9 -15q0 -1 1 -3v-4l10 -26l-7 -7
q-5 -6 -5 -22q0 -27 15 -27q5 1 4 1l34 7l37 4l19 -8h12l19 -5q11 -12 18 -15l8 -8l-3 -7l-13 -8q-8 -5 -18 -5q-7 0 -11 1q-11 11 -11 19q-9 -2 -12 -4l-6 9l-26 -4l-24 2l-5 -7l-14 7l-9 -2h-1q-3 0 -7 -13q-5 -16 -5 -36l1 -7t1 -15v-7q0 -7 -2 -16t-2 -12q0 -8 1 -10
l5 -10l-7 -17l2 -15l-4 -20l25 -6q8 1 20 3l10 -13q5 -3 8 -3q5 0 8 7l9 -4l13 2l1 -5h20l12 -9l13 3l11 -9l21 -3l2 -5l21 -25zM378 397q-4 16 -16 16q-5 0 -14 -7l-14 -2q-12 -2 -12 -9v-4l1 -25l-7 -36l7 -47l-8 -15l-2 -10v-3q0 -2 3 -5l14 1l17 -5l14 4h14v17l2 28
l-2 22l2 16l-4 21l4 20l-2 8zM562 167l-6 9l-5 10l-11 -3l-21 9h-13l-12 13h-24l-6 7l-23 -2l-18 8h-13l-3 1l-7 -9l-2 -8l4 -28q-6 -7 -6 -24v-8l2 -24q1 -7 7 -12q7 4 13 8q10 4 19 4q20 3 37 10.5t20 7.5t5 -2l24 6q30 8 35 18zM297 318l-7 13l5 31l-2 33q-1 0 -2 1h-2
q-8 0 -14 -8l-5 2l-12 -8l-24 -3l-5 -7h-19l-9 -7l-11 -2l-5 -10h-9l-16 -11l-13 -13q-3 -3 -5 -21q5 -23 12 -23l22 -2l7 -5l9 1l10 -10l32 -7l16 4l6 -4q13 0 37 -2l-2 51zM378 106v13l-7 9l2 13l-3 14l5 11l3 36l-5 3l2 17l-16 -1l-6 5q-8 -1 -12 -4q-8 1 -25 8l-3 -20
l3 -12l1 -40l-6 -30l-2 -26q0 -6 4 -11l17 -1l13 4l9 2z" />
    <glyph glyph-name="percent" unicode="%" horiz-adv-x="687" 
d="M589 139q0 -5 -2.5 -11.5t-2.5 -8.5t1.5 -6.5t1.5 -7.5q0 -10 -8 -16q2 -6 2 -8q0 -12 -20 -34l-7 -13q-16 -13 -16 -17v-1q-3 -8 -18 -13l-7 -8l-18 -9l-21 -16q-7 -5 -18 -7l-9 2l-22 -6l-29 4l-32 21l-9 34v24l-4 13l4 9l-2 13q14 33 25 78q18 34 41 73l11 5v16l14 1
l20 12h22l25 -8l20 -1l3 -9q12 -6 32 -27l22 -39l-1 -28q2 -4 2 -11zM587 659l-6 -13q-5 -11 -7 -18l-16 -6l-31 -24l-28 -20l-14 -21q-6 -17 -23 -23l-4 -20h-9l-5 -12l-9 -6l-2 -10l-16 -22v-12q0 1 -23 -29l2 -7l-13 -9v-14l-17 -23v-11l-31 -34l-1 -14l-21 -30
q-1 -6 -7 -31l-4 -1l-22 -37q-3 -5 -3 -10q0 -4 3 -4l-16 -16l-3 -18q-16 -26 -25 -59l-7 -3l-3 -19l-19 -48v-12l-14 -14l1 -14l-19 -43v-16l-5 -9l-2 -7l-6 -10l2 -14q-5 -13 -5 -21q0 -4 2.5 -10t4.5 -19l-5 -15l2 -8l-5 -6l16 -35l-2 -13l6 -7l6 -18l16 -13
q3 -12 13 -16l32 -14l12 2q0 -7 9 -7l5 -4l9 4q4 -2 9 -2q13 0 29 1q8 -2 11 -2q11 0 24 8l20 4q7 -5 11 -5q3 0 10 5l-2 -9l-17 -11h-33l-7 -3l-22 -2q-23 -7 -35 -7l-57 15l-19 12l-21 11l-3 12l-17 17l-2 11l-10 9l-7 23l-6 9l1 41l-3 19l6 13l-6 9q8 54 13 62q9 13 9 32
v6q7 10 14 33l20 43q3 6 3 11v5q-1 4 -1 5t1 2v2h1q6 0 13 44l15 16l-3 10l15 25l8 19l5 1l21 43l14 33q15 13 21 26l9 30l7 12l2 11l20 21l9 36q12 6 24 32q15 34 31 53q0 5 -6 15q5 1 11.5 9t13.5 10q4 11 20 34q2 4 2 6q0 5 -8 10l-21 -9q-14 -16 -23 -20q-6 6 -12 9
q-17 -2 -22 -4q-11 -9 -13 -9q-1 0 -3.5 1.5t-5.5 1.5l-9 -2.5t-20 -3.5l-32 6l-7 -4l-12 -2q-6 -3 -6 -7t5 -12l21 -18l-1 -9q8 -6 8 -13q0 -6 -3 -12q5 -9 5 -16q0 -16 -9 -42l-18 -14l-13 -18l-11 -4l-7 -17l-29 -8l-9 -9l-81 -7l-19 5l-26 22l-9 14l-13 14l3 16l-6 7v13
q13 31 13 32v16q8 14 12 42q16 6 16 13q0 3 -2 7q16 12 25 36q1 6 10 10l11 16l-5 11l17 5q9 6 15 6q2 0 4 -1l50 -21q9 -27 20 -28l19 9l26 -6h34l25 -5l27 5l25 3q42 17 38 17h5q15 0 17 9l9 -2q32 10 32 27l18 7l-6 7q15 7 54 41q3 5 9 7q8 0 17 -5zM261 455q0 13 -11 18
q2 3 2 9q0 11 -16 28q-15 27 -26.5 29t-21.5 12q-12 -4 -32 -4q-7 0 -10.5 5.5t-5.5 5.5q-15 0 -20 -26l-9 -4l-10 -23l-3 -15l-10 -15l-10 -23l3 -7l-11 -18l4 -14l-4 -15l12 -28q22 -19 38 -18l32 1l18 -4q8 2 16.5 10t15.5 15h20q6 4 19 28q20 11 20 53zM566 150l-8 35
l-13 21l-12 6q-5 12 -20 12l-12 -2l-9 3q-10 0 -22 -3l-3 -12q-29 0 -29 -9l-3 -14l-7 -5l-3 -15l-20 -21l-4 -21l-9 -7l-2 -15q0 -6 -7 -16v-4q0 -2 1 -6v-5q0 -6 -4 -10l2 -28q2 -22 13 -36.5t24 -14.5q10 0 28 5q6 3 16 7h6l56 42q2 7 8.5 12.5t6.5 7.5h1q3 0 15 23l7 41
v9z" />
    <glyph glyph-name="ampersand" unicode="&#x26;" horiz-adv-x="585" 
d="M535 448q-2 -5 -7 -9l-14 4h-12l-4 18l-18 1l-3 20l-6 2l-9 10l-9 2l-3 6l-39 5l-20 -2l-17 2l-16 -2l-8 5l-8 -7l-11 2l-23 -7l-18 -2l-28 -14l-18 -12l-14 -2l-9 -13l-19 -8q0 -10 -1 -13l-11 2v-7l-14 -18l6 -27q-3 -7 -3 -14q0 -11 8 -17l37 -28l34 -5q11 0 30 -7
l9 5l9 -1l11 5l7 -2l21 2q6 -2 7 -2q11 0 30 9q8 0 11 -9l14 -2l11 -8l14 -2q-12 -20 -25 -20h-39q-5 -2 -9 -7l-9 6l-8 -2l-11 3l-48 -3l-5 -6h-12l-4 -3h-18l-13 -7l-16 -3l-21 -16l-30 -6l-51 -38q-8 -6 -9.5 -24t-10.5 -22l12 -38l17 -13l38 -6l6 -7q12 5 19 5q5 0 7 -1
q13 -10 21 -10q4 4 15 6h9l10 -7h15l8 7l11 -2l9 4l9 -5l5 5l25 7h1q1 0 6 -2t9 -2q8 0 14 5l16 6q10 3 21.5 6t16.5 10l39 14l21 15l7 3l-3 36l12 -4l11 4h4q10 0 17 -13l11 -26l-13 -22l7 -16l-3 -9l2 -17l-2 -10l2 -10l-6 -15q-2 -2 -2 -3t4 -13l11 -19l-9 -7l2 -23
l-7 -9l3 -13l-3 -17q3 -9 3 -17q0 -15 -7 -26q0 -10 -3 -21.5t-3 -13.5q0 -5 1 -8l-4 -6l-12 -12l1 -12l-32 -40l-14 -13l-9 -6l-26 -10l-12 -7l-24 4l-7 -4l-12 4l-8 -4l-3 5l-14 -4l-20 9l-7 -3l-11 6l-21 1l-32 6l-16 -1l-20 8l-14 12l-54 14q-15 11 -40 12l-8 9l-13 4
l-2 7l-17 2l-3 9l-26 10l-13 15l-10 7v13l-6 14q13 7 35 18q11 0 11 -7q0 -3 -30 -25q1 -9 14 -13l4 -9h11l3 -9l16 -7l11 -7l38 -12l5 -10q1 -4 8 -4q4 0 6 1l14 3l8 -6h16l12 -10h12l27 -10q16 -4 11 -4q2 0 6 2q13 0 26.5 -6.5t14.5 -6.5q5 0 8 5q27 -5 37 -13l18 1l3 6
q11 -7 21 -7q6 0 9 1l9 6h18q8 8 20 10l15 15l4 11l16 6v10l12 17l-1 15l12 16l-3 6q10 10 10 27q2 7 4 27l-7 16l3 29l2 31l-2 12q0 21 -3 25l-9 19l9 19q0 15 -17 15q-4 0 -10 -7l-12 -1l-8 -9l-12 -9l-21 -1l-43 -7l-8 -8h-7q-27 0 -49 -11l-9 4l-12 -7l-4 6l-35 -9
l-20 1l-15 5l-4 -3l-8 6l-1 -4l-16 12l-22 -5q-7 0 -10 5q-35 12 -56 37q-18 20 -18 35v12l-5 7l2 6l-2 15l34 32q3 6 16 15q0 8 13 16l12 1l5 9h11l1 6l22 5q18 0 42 28l-24 25h-12l-18 9l-2 11q-6 1 -9.5 13t-10.5 19q6 0 8 7l-8 2v14l-1 12q10 25 16 25h1v2q0 11 15 11
l7 21l32 16q22 11 31 11h3q2 5 19 10q28 9 41 15l36 9l5 3l43 2q6 2 8 2t8 -2q6 -6 13 -6q4 0 8 4l18 -9l25 -2l8 -12l20 -9l18 -23l16 -9l-2 -5z" />
    <glyph glyph-name="quotesingle" unicode="'" horiz-adv-x="200" 
d="M127 453l-4 -15l-6 -13l-2 -17l3 -14l-7 -22l-1 -21l2 -14l-6 -27l-7 -1l-9 6l2 24q0 5 -2 14q-5 8 -5 13v3q2 2 2 7v3q-1 2 -1 3q0 2 1 4l-4 6l3 3l-4 8l3 9l-7 8l4 8l-7 7l1 9l-2 9l3 7l-3 6l2 4l-6 8v13l5 10l3 5l16 4q12 3 11 3q6 0 13 -7l6 -10l-4 -18l5 -10z" />
    <glyph glyph-name="parenleft" unicode="(" horiz-adv-x="400" 
d="M378 665q0 -14 -12 -19l-7 -8l-16 -14q-1 -10 -11 -14q-18 -10 -28 -34l-4 2l-2 -18q-22 -20 -28 -42q-2 -9 -8 -17.5t-6 -11.5l2 -6l-11 -17l-1 -18l-13 -25v-13l-8 -24q-9 -42 -9 -77q0 -14 1 -18l1 -7l-5 -10l4 -9l-4 -9l4 -14l-4 -27l9 -28l7 -34l8 -48q1 -4 6 -4
q-2 -6 -2 -14q0 -6 5.5 -11t5.5 -9q0 -2 -2 -5l9 -23l15 -16l7 -20q2 -7 5 -10l4 -4l12 -32h12v-4q0 -13 9 -24l27 -32v-11q-4 -10 -23 -18l-11 -3l-9 3l-3 9l-7 7l-25 36l-19 37l-16 23l3 9l-15 32l-1 9l-6 4q-1 9 -14 37q-6 21 -9 46l-5 11q1 9 1 20q0 4 -6 10l-3 34v26
l-4 22l4 10l-4 8v2q-1 0 -1 1q0 -11 5 41l-6 23l6 12l5 41h5l5 31l7 33l7 19l14 22l5 23l7 19l12 17l12 6q10 38 48 67l11 6l2 9l12 4l14 16l7 12l18 8l5 -1v-4z" />
    <glyph glyph-name="parenright" unicode=")" horiz-adv-x="400" 
d="M250 210l-6 -12l-4 -40h-6l-4 -31l-8 -33l-7 -19l-14 -22l-5 -23l-7 -19l-11 -17l-12 -6q-10 -38 -48 -67l-12 -6l-1 -8l-12 -5l-15 -16l-7 -11l-18 -9l-5 1v3q0 13 13 21l6 7l16 14q2 10 11 15q15 8 28 33l4 -1l2 17q19 17 29 42q2 9 7.5 17.5t5.5 11.5l-1 6l11 17l1 18
l13 25v12l7 25q10 36 10 79v8q-1 6 -1 8l-2 7l5 10l-3 9l3 9l-3 14l3 27l-8 29l-7 33l-9 48q-1 4 -6 4q3 8 3 12t-1 6l-11 15l2 6l-9 23l-14 16l-7 20q0 8 -5 10l-4 4l-12 32h-13v4q0 13 -9 24l-26 32v11q6 14 22 18l11 3l9 -3l3 -9l8 -7l24 -36l19 -37l16 -23l-2 -9l14 -32
l1 -9l6 -4q0 -9 14 -37q3 -13 9 -46l6 -11q-2 -20 -2 -17q0 -7 7 -13l2 -34v-26l5 -22l-5 -10l5 -8v-3q0 -2 -2 -15.5t-3 -25.5z" />
    <glyph glyph-name="asterisk" unicode="*" horiz-adv-x="532" 
d="M488 343l-21 4l-9 6l-17 5l-26 12l-17 5l-2 4l-21 5l-63 36l-21 9l-13 7l-14 1l-5 8l-14 -6q-2 -10 -2 -16q0 -7 4 -25l-5 -8l5 -11l-4 -9q3 -7 3 -17q0 -6 -1 -10q5 -6 5 -14v-27l5 -28q-1 -9 -10 -9q-5 1 -9 9l-7 48q0 8 -4 39q2 12 2 19q0 53 -16 53q-5 0 -9 -4
l-20 -16l-19 -11l-7 -12l-23 -18l-18 -20l-9 -2q-1 -1 -9 -10q-11 -19 -34 -34q-5 3 -5 10t11 18l7 5l3 10l31 19q8 9 17 11q6 20 14 23q17 9 22 18l12 7v5l19 9l4 14q-9 19 -19 22q-17 -5 -41 -6l-23 -1l-27 -8l-16 4l-19 -7q-8 0 -8 7q0 3 1 5l7 13h14l9 3l21 -1l5 -6
l18 7h11l18 7q12 -2 13 -2q7 0 8 6l-24 21l-10 4l-3 11l-27 13v8l-4 9l13 7l10 -2q1 -5 15 -12l22 -16l35 -29l9 -12q16 3 17 16q-4 16 -4 31q0 2 1 6v5q0 12 -7 24l4 9l7 8q-8 18 -8 25q0 3 4 23q2 4 7 4q2 0 5 -1h11l5 -6l10 -22l-6 -21l1 -16l-3 -3v-11l-2 -9l4 -25
l-5 -14l3 -7v-9l12 -7l6 10l7 2l3 13l20 12l9 14l3 10q15 8 26 8h3q0 11 9 11h2q0 10 9 10q3 0 21 -8q0 -2 -16 -18l-27 -27l-17 -8l-17 -15l-15 -16h18l13 4l7 -4q8 3 17 3q10 0 20 -3l12 4h34l6 -2l6 5h20l12 4l17 -6q0 -1 1 -1v-2q0 -4 -13 -4h-8q-16 0 -32 -4l-35 -1
l-8 -4h-61l-11 -7l-28 -2q-5 -4 -5 -9q0 -7 10 -16v-3l34 -16l15 -11l12 -3l20 -14l22 -11q14 -7 26 -7h4q3 -8 12 -11q21 -8 45 -25q13 0 18 -9z" />
    <glyph glyph-name="plus" unicode="+" horiz-adv-x="833" 
d="M709 279h-273v-279h-39v279h-273v39h273v278h39v-278h273v-39z" />
    <glyph glyph-name="comma" unicode="," horiz-adv-x="249" 
d="M166 56l-9 -17l-14 -8l-7 -12l-15 -15l-5 -9l-16 -11l-33 -39l-21 -12q-4 -17 -12 -24l-11 -5l-7 -20l-6 -6l-9 -1l1 14l1 7l4 5q1 16 15 23q4 4 12 23l1 -3q4 3 4 6v3l8 8l-1 8l7 4l5 8q3 6 17 18v7l7 2q0 18 5 32l6 7l7 -3l-2 16q4 10 4 18l4 7q6 9 19 9q12 0 23 -7
l5 -6l11 -3z" />
    <glyph glyph-name="hyphen" unicode="-" horiz-adv-x="341" 
d="M301 210l-11 -14l-19 4l-17 -3l-24 -7l-32 5l-4 -4q-9 0 -17 -1l-15 2l-21 -5l-7 3l-31 -6q-8 5 -14 5t-10 -2l-9 -5l-12 4h-8l-10 22v15l7 1l4 10l10 -8l9 -1l12 8q5 -1 10 -6q3 -1 9 -1q10 0 11 6l17 -5l15 1q-3 -3 -3 -5q0 -4 4 -4q2 0 5 2l3 5l9 -3l16 2q2 1 5 1
q5 0 10 -5l15 -3l10 4q10 -5 18 -5q9 0 21 5l10 -5h21q1 0 5.5 -1.5t7.5 -5.5z" />
    <glyph glyph-name="hyphen" unicode="&#x2010;" horiz-adv-x="341" 
d="M301 210l-11 -14l-19 4l-17 -3l-24 -7l-32 5l-4 -4q-9 0 -17 -1l-15 2l-21 -5l-7 3l-31 -6q-8 5 -14 5t-10 -2l-9 -5l-12 4h-8l-10 22v15l7 1l4 10l10 -8l9 -1l12 8q5 -1 10 -6q3 -1 9 -1q10 0 11 6l17 -5l15 1q-3 -3 -3 -5q0 -4 4 -4q2 0 5 2l3 5l9 -3l16 2q2 1 5 1
q5 0 10 -5l15 -3l10 4q10 -5 18 -5q9 0 21 5l10 -5h21q1 0 5.5 -1.5t7.5 -5.5z" />
    <glyph glyph-name="period" unicode="." horiz-adv-x="249" 
d="M162 38l-3 -3l2 -11l-5 -3v-8l-7 -3l-12 -14l-12 -1l-11 -3l-3 -1q-4 1 -5.5 5t-4.5 4h-3q0 4 -2 4q-1 0 -3 -2l-2 4l-4 1l1 5l-4 4l3 6l-7 2v26q0 6 12 12.5t14 12.5l4 3l7 -3q5 -2 11 -2q7 -3 9 -5l8 -8l11 -6z" />
    <glyph glyph-name="slash" unicode="/" horiz-adv-x="413" 
d="M403 559q0 -4 -12 -16q-15 -15 -25 -33l-16 -29l-28 -37l-6 -18l-12 -14l-14 -23q-8 -2 -20 -27l-23 -30l-18 -22l-5 -16l-18 -26l-37 -48l-4 -11v-16l-15 -2l-3 -9l-25 -32l-4 -13l-8 -3l-23 -36v-11l-17 -17l-4 -8l-15 -19l-5 -12l-15 -7l3 -7l-12 -9l3 -10l-9 -18
l-9 -7q-2 -12 -9 -16q-4 0 -7 5l7 18l23 37q1 13 15 23l17 23q1 17 9 19l5 -3l9 31l16 10v9l16 21l5 13l5 3q9 21 16 32v15l10 19h9l5 16l16 14v11l13 5l2 17l9 3l15 19l1 13l8 14l15 14l10 17q15 2 17 19q4 21 11 28q19 3 19 23q0 5 -1 8l23 25l-3 12l10 4v10l9 16v23
q12 6 12 10q-1 3 -3 5l12 7l2 16l24 2l10 -7l12 -3q2 -5 2 -14z" />
    <glyph glyph-name="zero" unicode="0" horiz-adv-x="525" 
d="M477 256q0 -8 -10 -18l7 -9l-10 -11l8 -10l-13 -14l-11 -31l-19 -17l-5 -13l-9 -8l-6 -10l-17 -5v-11l-13 -5l-13 -14l-16 -8l-6 -10h-11l-7 -9l-11 3l-17 -18l-29 -11l-21 -13l-18 -3l-12 -8l-20 -3l-14 -1l-8 -10l-26 5l-8 -3l-14 3l-8 -2l-14 7h-15q-16 11 -32 25
l-6 11l-11 12l-10 25l3 13l-6 6l5 22q-4 7 -4 14t5 12q2 8 2 15v8q-1 5 -1 7l14 29l3 24l9 13l7 27l8 20q3 23 14 36l16 16l-3 8l9 16l-3 13l10 -1l13 17q14 5 17 26l12 12l6 -3l12 15l2 11h18l2 10h8v12q19 1 27 13l32 10l19 8h8l15 4l11 -6q8 8 12 8q13 -7 19 -25l17 -10
l16 -16l13 -4l15 -28l15 -10l5 -15q7 -9 14 -12q8 -9 8 -27v-7l11 -12l-3 -10l6 -6q7 -47 7 -69zM452 278l-4 12l2 16l-10 19l2 17l-8 10l-2 12l-8 23q-20 9 -25 24q0 4 -2 10l-13 6l-14 10l-18 1l-11 16q-11 11 -23 11q-1 -4 -12 -4q-2 0 -6 1h-7l-11 -8l-20 -4l-6 -12
l-11 -6l-10 5l-6 -13l-13 -5l-21 -17l-19 -23l-16 -11l-5 -11l-32 -40l2 -13l-19 -17l1 -13l-11 -8l-6 -29q0 -6 -9 -12.5t-9 -16.5q0 -5 -3 -8l1 -13l-4 -11l1 -13l-13 -8l2 -8l-2 -10l7 -4l-7 -10l8 -8l-11 -5l8 -16l-3 -12q5 -9 14 -28q17 -30 35 -30h1l17 1l11 -9
q11 4 23 5l11 -2l7 5l23 1l19 5l10 8l18 -1l3 13l6 -7l14 14l11 -4l14 14q24 6 30 21q11 0 11 5q0 1 -1 3h2q14 0 23 17l28 18q1 9 9 10q22 23 22 33v2l10 5q4 15 18 29q-7 1 -7 7q0 4 6 13t6 12v1l-3 13z" />
    <glyph glyph-name="one" unicode="1" horiz-adv-x="491" 
d="M463 8q0 -3 -8 -5l-43 -1l-37 -8l-39 8q2 -2 2 -3t-3.5 -1.5t-5.5 -2.5q-12 6 -27 6q-4 0 -26 -2l-25 1l-6 -3l-34 5l-11 -2l-2 6l-28 -6l-20 -1l-11 -6l-6 6h-3q-4 0 -7 -4t-5 -4h-1l-5 4h-14q-3 -3 -8 -3q-6 0 -21 8q2 -2 2 -4t-9 -5q-15 0 -17 8l-3 4l-13 5l5 6
q-8 8 -9 13q7 7 22 10q6 2 9 2q2 0 5.5 -2.5t7.5 -2.5q10 0 22 3l15 2l19 6l24 -2l29 -8q7 -2 12 -2q8 0 21 5l-3 12l3 6l-11 22l2 16q-3 5 -3 8q0 4 4 4q-4 9 -5 41q0 5 11 12l1 9l-2 17q4 7 4 13q0 9 -10 18l-2 11l8 3l-5 10l8 16l-6 18l8 9l6 32v4q0 6 2 14l8 6l-8 13
q-2 2 -2 6q0 6 6 13l2 8h-14q-6 2 -10 2q-7 0 -12 -3t-13 -3l-20 -9h-11q-8 -4 -17 -8l-12 -3l-12 -13l-10 5l-16 -4q-19 -2 -32 -13q-10 6 -23 8l-18 8l-4 9q4 10 13 10q3 0 9 -2q5 -8 16 -8q6 0 15 4q4 0 9 -1.5t7 -1.5q3 0 7 5.5t7 7.5l27 7h6q12 0 24.5 9t14.5 10
q3 -3 6 -3q6 0 9 11q14 3 15 5q-1 1 -4 3h11q4 0 6 7l3 10l-4 6l5 3l13 -3q25 3 25 17q0 1 -1 6t-1 8q0 7 4 15l27 7h27l12 -13q2 -10 2 -11q0 -3 -2 -5l-31 -28q-2 -2 -2 -6q0 -7 10 -14l-14 -8q0 -6 4 -10l-16 -13q2 -2 2 -3t-4 -8.5t-4 -13.5q0 -2 2 -10l-5 -15
q-3 -9 -6 -38l-6 -9l4 -8l-10 -20l3 -17l-3 -15l-5 -1l6 -16l-6 -18l5 -15q0 -6 -8 -9q9 -9 10 -17l-10 -6q3 -4 3 -8q0 -1 -1 -4q3 -10 3 -19q0 -12 -7 -18q3 -11 12 -14q-4 -10 -4 -12q0 -6 5 -9q-3 -3 -3 -6q0 -6 12 -15q2 -8 11 -8h3l5 7l8 -4l14 4l2 -9l24 9l-2 -7
l25 -6q6 3 13 3q8 0 17 -6h10q9 1 21 4q9 2 12 2q4 0 14.5 -2.5t17.5 -3.5l4 -7l7 7q10 -7 10 -10z" />
    <glyph glyph-name="two" unicode="2" horiz-adv-x="569" 
d="M558 4l-3 -6q-5 -5 -14 -12l-13 -6l-7 2l-14 -1v-6q-4 1 -10 1q-9 0 -14 -4q-4 2 -8 2q-1 0 -4 -1l-11 4h-10l-13 8h-9l-3 -5l-12 10l-8 -2q-5 10 -12 10h-2q-7 -2 -10 -2q-10 0 -10 11q-6 -3 -12 -3q-5 0 -22 3q-2 5 -5 9q-5 0 -9 -2q-4 0 -12.5 5t-14.5 6q-2 -2 -7 -2
q-7 0 -16 10l-14 1l-3 -1h-2q-7 0 -14 10l-6 -4l-8 5h-7l-9 1q-9 -14 -22 -14l-5 -1l-3 4l-8 -12q-11 0 -24 -5q-8 0 -16 -8l-17 -3v-3q0 -3 -3 -3q-4 0 -10 6q-6 -6 -12 -6h-22l-35 13l-7 8l-4 13q0 9 -1 15l7 8l-3 6q11 11 25 12l12 11l10 -1l9 5q7 4 19 10l5 -2
q27 5 32 5q3 0 6 -3h25l19 -4q12 -7 27 -9l13 2l7 -5q11 12 18 12q-2 0 4 -1l23 10l-2 4l21 8v1l7 14l17 10l33 15q-5 5 -5 7q0 5 8 8v6q15 5 17 5t4 -2q4 12 20 21l4 20l19 3q3 16 16 17l8 11l8 2l3 14q1 6 5.5 16t4.5 15v3q1 5 6 5l6 17l-8 6q10 2 10 6q0 7 -3 16v17
l-16 27q-3 11 -15 18l-37 22l-6 12l-13 -5l-14 10h-13l-8 12l-14 -4l-18 4l-8 -1l-11 3l-19 -3l-7 4l-9 -4l-8 4l-12 -4l-19 1q-3 -7 -10 -7q-4 0 -7 1l-18 -11h-12l-3 -7l-14 -6q-4 3 -8 3q-5 0 -16 -15h-15v-10l-8 -2q-3 -8 -9 -8l1 -8l-17 -5v-2q0 -6 -11 -14l-2 -8
l-22 -2l-8 9l-8 20v5q0 13 9 18l3 -3q1 10 1 12q2 8 7 10l9 -8l6 14h14l3 8l36 20l11 -4l9 11l10 2v3q13 10 31 10q11 0 17 -2q23 15 43 15h7l31 -3l25 1l13 -3q3 -3 9 -3h6q19 -3 38 -18l9 3l8 -4q3 -10 20 -12l9 -12l27 -12l32 -35l4 -13l-1 -13l13 -4l-3 -8l6 -10l-3 -16
l5 -16l-5 -11l1 -16q-1 -8 -7 -18q-10 -14 -12 -17l-10 -20q-3 -6 -11 -11l-12 -9l-8 -19l-10 -4l-2 -5l-10 -1q3 -3 3 -5q0 -8 -23 -17q-9 -7 -22 -24l-16 -13h-5q-17 0 -17 -9v-3q-1 0 -2 1h-2q-9 0 -16 -13q-3 -13 -25 -23l-8 2l-3 -10q-6 -1 -8 -6l-11 -9h14l5 -9
q3 4 7 4t7 -2q4 -10 15 -10l10 1l3 -7l15 3l6 -11h13q11 -15 27 -15q5 0 5 2v2l40 -15q5 -3 7 -3q-2 0 4 1l10 2l8 -6l47 -6l12 6h15q0 6 12 6h5zM190 60q-30 10 -37 10h-9q-7 0 -15 5q-6 -4 -13 -4h-4l-12 -6h-3q-9 0 -13 -7l-9 -10l-4 -8l4 -7l11 -7l15 -2l14 4h8l6 5
l31 9z" />
    <glyph glyph-name="three" unicode="3" horiz-adv-x="566" 
d="M515 110l-13 -14l-4 -16l-15 -8h-8v-8l-9 -2l-12 -15l-14 -4q-9 -5 -29 -11q-6 -12 -33 -13q-6 -5 -43 -15l-12 2l-44 -13l-17 1l-19 5q-10 -2 -21 -5l-20 -3l-16 3l-10 -3q-7 4 -18 6l-12 -6q-3 4 -13 11q-2 -7 -9 -10q-4 1 -12 7q0 -6 -3 -7l-8.5 3.5t-18.5 4.5l-2 -3
l-11 9l-11 -6l-10 4q-1 0 -1 1h-1t-4 -3t-5 -3h-1q0 1 -1 1v2q0 5 -15 6q-10 1 -10 37q0 19 13 19h6q3 3 22 6l29 4q9 -3 9 -10q0 -4 -6 -7l-27 -4q-12 -2 -13 -15l-6 -4q18 -8 42 -11q5 -4 11 -4q7 0 14 6l2 -6l31 6q10 -3 10 -15q20 12 55 12q9 0 19 -3q3 8 8 8
q2 0 5.5 -3.5t8.5 -5.5q15 13 19 13h1q5 -7 20 -7q4 0 22 5l18 -2l18 15q12 -2 15 -2q16 0 28 11q5 -1 14 -1q5 0 7 1l-2 10l16 13l15 -2q14 7 47 38l2 13q2 13 2 16q0 15 -27 21l-18 15l-30 6l-21 -5l-7 10l-11 -2l-18 16l-9 -8q-7 3 -15 3q-4 0 -12 -3q-8 8 -16 8
q-12 -5 -31 -8l-6 6l-27 3l-19 9l-20 -1l-16 9l-9 7v15l-3 11l17 3q13 12 37 14q20 1 21 7l33 -1q7 4 10 14l21 5l8 6h22l3 7h6q20 0 20 9q0 1 -2 7q2 1 33 7q0 3 7.5 7.5t10.5 12.5q15 3 25 13q2 6 2 9q0 -2 -1 5q0 2 2 2q-5 25 -35 33l-40 11l-25 -2q-11 4 -25 4
q-12 0 -26 -3l-12 1l-16 -5l-18 5l-10 -1l-8 -10l-17 -1q-5 -2 -13 -8l-5 4l-13 -4l-4 3l-10 -6q-4 -8 -8 -8q-5 0 -10 4h-3q-11 0 -19 -11h-3q-18 0 -31 -26q-15 0 -17 -9l-14 6l-7 11q-1 3 -5 9q1 2 1 6q0 5 -2 8l12 8q1 4 7 4h4q3 -1 5 -1l5 7l9 -1h5q6 0 6 3q0 1 -1 2
q9 6 20.5 7t18.5 12h14l10 7l11 1q3 -3 6 -3q1 0 8 1t13 1l15 3q12 2 29 8l17 -3q11 7 28 7h7q8 -4 14 -4q1 1 2 1q4 0 10 -7l19 6l20 -1q4 1 15 1v-3l18 -7q1 -3 16 -6l24 -5l10 -16l17 -14l8 -19q-3 -8 -14 -29l-6 -10q-9 -15 -30 -21l-8 -11l-19 -9l-24 -5l-14 -11
l-20 -6l-19 -10q-2 4 -5 4t-6 -6h-11l-6 -8l-20 -5l-14 -8l-5 2q-7 -6 -7 -11t7 -5l13 -4l6 -4l13 4l7 -4l14 1q3 -4 9 -4h5l16 4l15 -9l11 6q6 -1 8 -6q23 -10 49 -10q6 -8 21 -8h4l17 -1l15 -13h11l14 -16l6 -26l10 -11l-2 -8z" />
    <glyph glyph-name="four" unicode="4" horiz-adv-x="631" 
d="M550 235q-1 -15 -19 -24l-3 -10l3 -3q-12 -12 -19 -12q-2 0 -5 2q-9 -2 -13 -8t-13 -6h-3l-9 -5l-16 -1l-2 -3h-16l-16 5l-10 -5l-13 8l-11 -3l-16 5l-10 -5v-12l-8 -11l2 -16l-3 -14l3 -11q-6 -4 -6 -10v-2l-5 -9l5 -18l-5 -6l-2 -10l5 -14l-8 -21q3 -3 3 -6q0 -2 -2 -4
t-2 -5q0 -4 3 -9.5t3 -7.5v-16l9 -6l10 -21q-5 -5 -10 -5t-16 3l-1 18l-9 11v15l-7 8l4 9l-6 6l2 5l-4 18l4 6l-6 8l6 11l-4 15l6 25l-1 5l1 8l-2 3q0 9 7 15l-3 8q1 4 1 11q0 5 -1 10.5l-1 5.5q0 2 3 5v3q0 14 -15 19q-8 2 -50 7l-4 1h-21l-8 5l-17 -5l-10 8l-21 -1l-7 6
h-12l-8 3l-9 -8l-10 2q-18 -8 -37 -13l-6 -6l-11 -2l-2 -6l-15 -4q-1 -1 -4 -1q-1 0 -6 1h-10q-3 0 -5 -3t-4 -3h-2l-4 8l-6 2l-5 12q6 19 22 20l4 11l5 4l16 9l33 3q11 3 13 11l21 -5l13 2l8 20l9 7h7l-2 10l18 5q6 19 17 26q0 4 9 11.5t13 14.5l9 10l6 11l13 8q2 16 10 19
q4 15 18 27q7 1 7 6q0 1 -2 7q20 8 24 15q-5 3 -9 14l16 10l1 11q5 21 20 24l6 -2l5 -9l6 -5l-1 -5l1 -6l-6 -7l2 -9l-12 -16l-1 -12l-10 -3l-10 -24v-2q0 -4 -12 -16q-19 -17 -31 -33q3 -6 3 -8q0 -1 -9.5 -7t-13.5 -12.5t-12 -17.5q-1 -2 -5 -9l-16 -10l-1 -8l-8 -5
l-32 -28l16 -10h17l14 -7q3 5 6 5h6q11 -14 23 -14q7 0 21.5 4t19.5 4q7 0 18 -11h3h7q4 -1 5 -1q9 0 9 13v13l11 13l-2 10l4 9l-2 15l6 3l-4 14q14 17 14 24q0 2 -1 4h-3q0 2 8 15v25q5 1 5 10q0 5 -1 9q4 8 4 15q0 6 -2.5 11t-2.5 8q0 5 2 12l9 30l-2 28q5 12 15 12
q8 -5 20 -25q3 -7 3 -18l-10 -11l2 -32l-5 -13l3 -6l-7 -11l2 -15l-2 -1l-4 -16l-9 -23l1 -17l-19 -82l-6 -11l-2 -8l3 -10q2 -6 8 -8l10 5q7 0 14 -8l21 3l18 -10l23 5h3q7 0 11 7l11 4l7 -5l8 8l6 5l15 5q6 11 16 17z" />
    <glyph glyph-name="five" unicode="5" horiz-adv-x="571" 
d="M647 502q-7 -5 -16 -8l-25 -1l-24 -10l-18 4l-20 -6l-19 -4q-6 2 -12 5l-13 -5l-22 3q-1 1 -3 1q-3 0 -10 -7l-74 -11l-33 3l-8 -4l-5 4l-40 -7l-21 5l-18 -5l-14 3l-10 -10l-18 -2v-10l-15 -35v-10l-8 -3q-11 -18 -12 -28q-3 -3 -3 -9l-8 -5q-4 -17 -19 -27
q-3 -9 -9 -10l-8 -4l8 -11l6 6q12 -8 22 -8q9 0 9 10q26 2 23 2q11 0 18 -7q15 5 22 5q8 0 16 -5l23 5l54 -2l15 -6q3 3 8 3q4 0 14 -5l26 -1l19 -5l28 -12l15 -22l18 -9l8 -34l6 -8l-2 -13l1 -14q-6 -6 -9 -36l-4 -3l-11 -26q-6 -15 -18 -15q-27 -35 -27 -42q-8 0 -18 -13
q-4 -5 -15 -8.5t-12 -4.5l-10 -10q-13 -9 -40 -12l-25 -14l-21 -2h-5q-4 1 -6 1q-16 0 -25 -9l-14 5l-17 -6l-21 3l-8 -3q-6 8 -18 8h-4q-8 4 -14 4q-8 0 -17 -3l-16 11l-11 -4l-18 15h-17l-16 15l-37 14l1 10l-16 19l-9 40q-2 6 -2 7t2 2.5t2 4.5q0 2 -2 5q9 6 14 6
q10 0 10 -9l-2 -40l11 -19l10 -10l16 -6l10 -15l19 -3l19 -11h13l11 -8l10 2l8 -7l39 -2l21 1l15 -3q5 2 12 4t10 3q6 0 15 -4l15 8h17l12 3q20 15 49 17l-2 5l2 8h20q5 7 15 10l8 6q5 11 10 11h2q17 8 22 30l7 15l10 -1v3q0 2 7.5 14t7.5 22q0 4 -1 7l3 2l-1 16l5 9l-7 10
v16l-6 13l-34 19l-8 8h-9l-6 3l-13 -2l-10 7l-10 -5l-12 10l-12 -4l-27 5h-22l-12 3l-20 -6l-15 6q-10 -2 -17 -6h-21l-32 -6l-10 4l-25 -8l-10 4l-16 -12l-5 -6h-24l2 16l-8 8l5 3v8l12 -1l-1 22l11 3q22 24 22 32v2q4 10 18 31q6 2 13 4.5t8 18.5l13 31l-8 6q-3 -4 -4 -6
q2 3 12 19q-6 3 -16 3h-7l-6 14l-10 8l8 12l38 8l5 -5l10 9l22 -3q5 7 17 7h16l47 -4l4 4l27 1l16 -6l77 9l45 -4q3 0 9 -2t10 -2q11 0 22 5l45 2l31 4l27 2l8 3q8 -4 20 -8z" />
    <glyph glyph-name="six" unicode="6" horiz-adv-x="607" 
d="M562 194l-2 -10l-6 -12l-10 -9q0 -9 -8 -16l-10 -13l-1 -9l-23 -10l-4 -5l-11 -3l-12 -9l-9 -4l-2 -6l-12 -1l-7 -9q-13 -8 -34 -16l-35 -19q-10 -6 -26 -9q-12 -2 -16 -7l-11 5q-6 -12 -29 -16l-43 -8l-26 -8l-12 -6l-21 3l-6 -6l-10 -2l-9 -4l-14 5l-14 18l-11 -5l-8 8
l-27 12l-25 31l-7 24l-6 24v5q-1 4 -1 5q0 5 1 11t1 7l-5 22q0 6 8 11l6 19q5 12 5 23l7 17l2 12l11 19l3 12l5 10l8 7l-2 6l19 27l5 19l11 8l-5 7l13 16l11 10q5 6 20 16h2q0 -1 1 -1q3 0 6 13l8 2v9l16 5v8l7 7q9 4 16 11q0 3 9.5 7t11 6.5t1.5 7.5q18 16 30 16h4l8 10
l19 6q6 11 16 11h3q12 3 20 3q6 0 14 -2h17l18 -20q6 -7 6 -13q0 -1 -12 -11q-3 -13 -21 -18l-10 6l-10 12l-20 -4h-9l-11 -4h-17l-20 -14l-12 -13l-21 -12l-14 -13q-9 -5 -16 -14h-3q-12 0 -12 -13q-10 -10 -25 -32v-1q0 3 -29 -28v-14l-7 -5l-1 -9q0 2 -11.5 -8.5
t-15.5 -32.5l-11 -23l2 -19l-7 -18l-8 -14v-13l-6 -9l-4 -19v-4l-3 -7l3 -16l2 -13l6 -7l2 -17l12 -8v-9l13 -15l13 12l-6 14l6 6l-5 12l7 8l1 6l10 6v5l7 27l10 13l37 30l18 9q1 9 16 12q6 -1 9 -3q9 3 9 14v4h14l1 5l12 4l24 3l8 13l16 2l27 16l35 5q7 1 8 8q3 3 8 3h4
l9 2l8 -4l49 4l7 -5l18 3l23 -14q21 -7 30 -29l10 -9v-16zM534 192v13l-6 16l-8 4l-3 13l-15 2l-9 8l-10 -1l-21 6l-28 -6q-23 -1 -26 -1q-8 -2 -9 -8h-11q-22 0 -31 -8l-15 -9l-25 -5l-7 -6h-9l-7 -7h-5q-18 0 -25 -17l-21 -5q-11 -19 -35 -26l-12 -20l-15 -7l-21 -30
q0 -18 -10 -31q-3 -15 -3 -25q0 -13 5 -13l18 -2l11 -6l14 3q3 -1 6 -1q2 0 12.5 2t18.5 2t67 16q10 9 32 10q13 10 29 11l34 13l16 4l13 11l11 4l24 16l1 10l13 -2v1q0 3 10.5 6.5t13.5 12.5l11 7q0 3 10 18q4 4 10 7z" />
    <glyph glyph-name="seven" unicode="7" horiz-adv-x="644" 
d="M661 263l-26 -5l-31 -14l-34 5l-8 -9l-16 6l-9 -9h-24l-15 5l-17 -5l-14 -2q-3 0 -47 3q-6 2 -11 2q-2 0 -9 -2q0 -7 -6 -9l-6 -11l-8 -7l-5 -21l-13 -9l-1 -8l-8 -5l-10 -27l-11 -4q-4 -12 -12 -15l-1 -11l-9 -7l-12 -17l-6 -5l-3 -10h-7q-5 -16 -12 -18q-8 -28 -19 -28
q-5 1 -4 1l-5 -6q-3 -21 -20 -30l-13 -28l-18 -8l-4 -8h-10v-8l-8 -8l-3 -9l-15 -7l-4 -9l-23 -10l-6 -11l-10 -13q-10 -1 -14 -9l-15 -4q-2 -8 -5 -8q-2 0 -6 2l-5 -11l-10 -11l-11 1l-9 -10l-13 -4l-20 -10l-26 -1l-14 8q9 2 31 17l21 -1l5 9h3q11 0 13.5 9t8.5 9
q3 0 10 -3q8 18 19 18q3 0 7 -2q14 19 22 19q14 8 14 15v3l26 19l3 12h3q10 0 10 10l10 18q15 7 35 27l12 19q12 4 21 25q23 23 23 36l6 14q16 2 22 11q-2 3 -2 7q0 7 14 22h5l11 14l9 23l19 14l6 21l6 2l6 14q10 13 10 15q0 6 -7 6q-1 0 -6.5 -3t-11.5 -3h-4l-13 7l-11 -4
l-27 3l-14 -3l-23 6q-12 5 -19 5q-13 0 -23 -10h-8l-11 8h-13l-6 7l5 4q1 0 1 2q0 1 -4 5.5t-4 7.5q0 7 15 13q6 -1 9 -8v1q0 7 31 7q4 0 14 -7h5q15 -6 45 -6l25 3l74 -8l5 -2l1 16l12 4q4 28 12 28q2 0 5 -1v3q0 3 1 9v8q0 5 -1 8l14 15l-2 18l14 5l4 20l5 4q10 16 15 43
l8 5l-8 9l-26 -2l-6 -9l-13 2l-5 -9l-21 4l-22 -8l-5 3l-13 -15l-15 8l-17 -6l-12 5l-27 -4l-12 -6q-18 6 -28 6q-3 0 -9 -1.5t-8 -1.5h-21l-28 -1l-10 6l-22 2q-6 -3 -12 -3q-8 0 -19 6l-6 -3l-11 5l-5 -1l-29 5l-13 -4q-19 0 -28 8q-14 10 -14 30q0 10 1 15l19 -4l6 7
l6 -13q7 5 11 5q6 0 21 -12t29 -12h5l18 4l26 -8l16 4l30 -6h55l14 -2l12 6l5 -8q13 10 20 10q5 0 12 -6l15 10l25 2l40 6l23 7l10 -2l6 8q2 4 20 4q8 6 14 6h3h2q0 -1 1 -1q6 0 16 12.5t14 13.5l18 7q4 2 7 2q8 0 17 -9l8 -33l-20 -2l-10 -11l-12 -10l-11 -4v-26l-10 -8
l-6 -27l-10 -5l-7 -17l-8 -10t-4 -13q0 -2 2 -10q-11 -5 -14 -11l-16 -41l-13 -16l6 -8l26 -3l18 4q8 -3 13 -3q7 0 11 3q4 -5 8 -5q11 0 25 7l18 -2l16 -5q6 5 15 5q6 0 9 -2q8 3 23 4q10 1 11 6l38 -5z" />
    <glyph glyph-name="eight" unicode="8" horiz-adv-x="528" 
d="M507 406q-10 -19 -17 -22q-6 -12 -19 -23.5t-17 -18.5h-7l-2 -6l-28 -19l-18 -19l-24 -10l-57 -34l-9 -11l-13 -3l-5 -10l-9 -3v-6q-20 -4 -21 -21l38 -27l48 -40l28 -18v-5l9 -12l11 -8l8 -16q15 -13 15 -30l-4 -20v-2q0 -7 -13 -22q-6 -11 -17 -11q-3 0 -9 2l-9 -8
l-19 -7q-10 1 -20.5 2t-11.5 1q-7 0 -20 -5l-5 7l-10 -5l-19 5l-16 -6l-15 4l-11 -3l-24 2l-13 6l-7 -1l-45 6l-15 14l-13 3v8l-14 -4l-3 8l-8 1v10l-15 14q-1 1 -1 3q0 1 3 8t3 13q14 22 15 32l5 5l1 9l11 7q6 8 16 21l5 -2l10 10l12 1q-1 2 -1 5q0 7 16 8l-5 7q6 5 13 5h4
q5 0 20 13q1 3 16 15q-1 4 -7 8l-32 16l-14 13q-16 4 -22 22l-7 2l-3 14h-8l-5 10l-11 8l-16 38l-11 15q-7 4 -7 7q0 4 5 4q5 15 5 11q-1 4 -3 11q7 3 10 22l11 10l2 13l10 13h5q4 19 14 19h1v1q0 4 19 20l11 3l5 -1l38 31l16 2l18 7l5 -2l9 10q22 9 47 10l4 -4l19 6l20 -2
q8 -3 27 -3l53 -9q9 -4 14 -11l15 -2l3 -6q4 -4 17 -8q10 -3 13 -11l16 -24l11 -14l-1 -7l6 -16l-5 -5zM483 430q0 6 -7.5 16t-9.5 18q-15 17 -39 34l-24 1l-9 8l-5 -5l-27 13l-18 -5l-8 5l-7 -2l-4 7l-7 2l-7 -15l28 -24l-3 -9l6 -15q-6 -11 -18 -11q-3 0 -9 2l-14 24
l-10 -4l-4 5l-25 -1l-9 -8l-10 4l-3 -4q-15 0 -27 -7q-1 -7 -55 -19q-3 -11 -11 -11q-12 0 -14 -15q-4 -2 -10 -4l-6 -21l-10 -5l-5 -20v-12l13 -13l8 -41l16 -8l2 -8l9 -12l8 -12l17 -5l15 -15l21 -4l26 -15l10 3l4 -3v15l32 16l5 16l18 3q9 8 30 27l22 7l18 19l19 3v6
l16 5q3 11 10 11q-2 0 5 -1q1 0 3 1l1 6h8q3 0 5.5 12t10.5 13q9 5 9 11q0 4 -1 6q15 12 15 17v2q4 6 6 16zM392 43v2q0 15 -21 45l-18 9l-12 18l-32 17l-19 23l-34 16l-11 11q-8 8 -14 8q-2 0 -4 -2l-2 -4q-6 0 -25 -11q-17 -6 -25 -23q-3 -3 -9 -5l-33 -17l-8 -13l3 -7
l-8 -4q-10 -2 -12.5 -12t-8.5 -12.5t-6 -6.5q0 -1 1 -9v-16q3 -24 19 -31l24 -11h21l10 -6l22 3l20 -5l15 2l18 -3l31 3l13 -2l36 2l2 8l11 -4q3 -2 9 -2q14 0 44 25z" />
    <glyph glyph-name="nine" unicode="9" horiz-adv-x="525" 
d="M433 230l-2 -24l-8 -19l7 3q0 -7 -8 -12v-5l-4 -13l2 -10q-10 -13 -10 -29v-4l-4 -2l-13 -38v-10h-6l1 -11l-10 -9l-5 -18l-12 -10l-2 -16l-14 -11l5 -9l-16 -16l-9 -18h-7l-2 -13l-10 -8l-1 -8l-16 -8l-36 -49l-19 -13l-45 -39l-15 -6l-8 -10l-13 -3l-11 -13l-36 -17
l-14 -3l-6 -7l-24 -5l-9 -8l-23 -1q-17 -11 -29 -11q-1 0 -3 1h-3l-12 -1l-9 -11l-21 1q-4 0 -16.5 -4.5t-21.5 -4.5q-7 0 -12 1q-6 -1 -15 -3l-18 -3l-13 3l-17 -1l-12 3l-16 1l-18 11l-15 -1l-32 19l-10 17q0 2 -1 4v3q0 3 2 3q0 -1 1 -1q2 -3 7.5 -8t8.5 -7l16 -2l12 -11
l17 3l19 -9q28 0 35 -8q32 0 46 3q38 8 48 8l10 -2q25 15 48 15h4q13 0 27 11q36 10 36 13v1q33 6 45 26l18 2l41 33q20 4 27 21q19 13 23 13h1l8 6l10 18q13 10 19 30l16 19l11 5l9 18l9 9q5 12 10 13q0 13 5 19q18 18 18 44l15 15l7 12l-3 13l11 4l14 49q6 12 6 20v10
l7 46l4 9l-4 33l4 11l-4 18v22l-10 25q0 16 -10 16q-4 0 -18 -11l-9 -26l-18 -15l-3 -15l-12 -5l-14 -9l-27 -13l-6 -11l-36 -10l-3 -6l-52 -13l-46 -3l-22 3h-3q-3 -1 -4 -1q-9 0 -20 7l-1 13l-12 5l-11 9q-5 8 -5 17t5 21l-5 18l5 24v13l8 15l2 22l10 11l6 16l14 11l2 12
l6 1q8 21 18 29q8 3 11 11l8 5l13 16h14q8 19 19 22q8 -4 10 -4q5 0 5 4l1 9q29 0 39 18l8 -3l43 3l5 6l7 2l8 -2l31 -33l19 -39l18 -26l5 -18l9 -8l-2 -9l6 -11l2 -15l7 -9q-3 -7 -3 -13q0 -7 5 -14q7 -10 8 -12l-2 -9l7 -8l-4 -12l2 -22l3 -8l-1 -8zM359 386l-4 20l3 15
q-5 9 -15 26q-2 9 -17 23l-21 10q-4 27 -21 27h-2l-43 -13q-15 -1 -26 -17l-19 -3l-17 -16l-11 -6l-18 -29l-10 -2l-9 -18l-13 -9l-3 -8l1 -8l-13 -14l-4 -14q-6 -7 -11 -21l8 -7l-8 -29l3 -11l-2 -10q-2 -2 -2 -5q0 -4 10 -5q-4 -1 -4 -5q0 -3 4 -7q3 -7 45 -13q6 3 13 3h6
q6 2 26 2l19 6q6 0 23 5l23 9l5 10h8l8 11h11q19 16 24 16h2q5 18 14 18h2q11 15 23 25l4 20z" />
    <glyph glyph-name="colon" unicode=":" horiz-adv-x="249" 
d="M166 325q0 -16 -33 -47h-25l-9 8l-9 2l-3 10l-6 4l-1 14l6 14l5 11h7l4 7v4l11 -4l8 1l-1 4l12 3l11 -3l7 -14zM166 30l-6 -16l-11 -5l-12 -10q-4 -4 -12 -4h-2q-2 0 -10 -4q-7 8 -19.5 15.5t-12.5 10.5q1 1 2 1l2 23l6 7l-1 8q5 9 13 13l12 9l11 -3l16 -2l11 -15l7 -3
v-7l5 -3l-2 -11z" />
    <glyph glyph-name="semicolon" unicode=";" horiz-adv-x="249" 
d="M180 331q-4 -3 -4 -6l2 -10q0 -15 -18 -23l-18 -13l-17 2l-6 -5l-9 9l-7 -1q0 9 -5 11q-13 5 -13 12l5 8l4 2l-5 12v13l5 -4l2 16l14 5v9q7 -7 14 -7q9 0 17 4q4 -7 7 -7q1 0 3 1q13 -10 29 -28zM166 56l-9 -17l-14 -8l-7 -12l-15 -15l-5 -9l-16 -11l-33 -39l-21 -13
q-4 -17 -12 -23q-4 -2 -11 -5l-7 -20l-6 -6l-9 -1l1 14l1 7l4 5q0 15 15 23q4 4 12 23l1 -3q4 3 4 6v3l8 8l-1 8l7 4l5 8q1 4 4 10l13 8v7l7 2q0 18 5 32l6 7l7 -3l-2 16q4 10 4 18q7 16 23 16q12 0 23 -7l5 -6l11 -3z" />
    <glyph glyph-name="less" unicode="&#x3c;" horiz-adv-x="833" 
d="M704 48l-575 235v30l575 236v-44l-510 -207l510 -207v-43z" />
    <glyph glyph-name="equal" unicode="=" horiz-adv-x="833" 
d="M709 367h-585v39h585v-39zM709 190h-585v39h585v-39z" />
    <glyph glyph-name="greater" unicode="&#x3e;" horiz-adv-x="833" 
d="M704 283l-575 -235v43l510 207l-510 207v44l575 -236v-30z" />
    <glyph glyph-name="question" unicode="?" horiz-adv-x="374" 
d="M311 427l-7 -21l6 -9l-6 -6l2 -10q-10 -11 -27 -28l-7 -8l-6 -11h-3l-23 -19l-2 -5l-13 -8v-5l-13 -3q-4 -4 -4 -9q0 -1 2 -7l-18 -4v-8l-10 -6l1 -6l-19 -16l-6 -16l-12 -23l4 -19l3 -22l16 -12l12 -2q7 -4 7 -12q0 -4 -1 -6v-4l-19 3l-17 12l-10 13q-9 6 -9 12q0 1 2 7
l-15 4v3l6 18l-9 11l9 1l-7 9l1 18q6 2 10 7.5t6 5.5q12 11 15 26h4l8 15l8 3q4 7 12 13.5t8 9.5v2l9 2l11 16q20 3 20 10l-2 4l14 9v7l12 7l2 12q14 3 20 13l-2 25l-4 10l4 13l-4 4l-12 24l-9 -1l-5 3l-2 7l-14 13l-7 7l-8 -6q0 1 1 3v2q0 2 -3 6t-9 4l-6 -4l-27 4l-3 -6
q-10 2 -12 2q2 0 -33 -7h-19l-38 -11q-4 -2 -5 -2q-4 0 -9 6q17 17 37 18q7 1 7 6q0 1 -1 3l12 3l11 13h10l11 7l11 3l18 -7l9 5q12 -2 21 -8l2 5q8 -6 14 -6q4 0 6 1l13 -4q2 -4 6 -9q4 2 6 2q3 0 7 -4l12 -12l16 -21l14 -25l7 -8l2 -14zM190 8l-3 -9l-11 -3l-19 -5l-23 9
l-4 10l-5 -2l5 10l-3 21h4l2 8l17 -5l4 1l8 -3l20 -13z" />
    <glyph glyph-name="at" unicode="@" horiz-adv-x="685" 
d="M661 318q0 -14 -4 -24l-5 -12l1 -15l-9 -8q-9 -8 -13 -23.5t-7 -30.5l-19 -18q-4 -20 -22 -32q-22 -14 -36 -38l-17 3q-13 -18 -33 -23l-22 -5l-7 6l-14 -1l-3 -6h-5l-5 -3l-4 3l-4 -3l-17 14l2 14l-5 5l3 21v44l5 16l-5 7l6 4l-3 6l2 6l4 3v8h3l2 22l5 1l-3 4l-11 -4
l-5 -8l-6 -4l-1 -7l-8 -4l-2 -10l-5 -4l-1 -4l-6 -5l-4 -7l-6 -3l-11 -19l-18 -17l-7 -9l-16 -15l-3 -8l-22 -14l-24 -27l-11 -3l-8 -6q-7 2 -10 11q-24 12 -24 30l5 2l-3 14v13l-3 4l4 5l3 19l8 26v4q0 3 2 9v3q-1 1 -1 2t2 9l4 1q6 6 6 12t-3 10l3 3q-4 0 -4 4t8 4
q0 10 10 24l-5 1l11 14v3q0 17 16 24v12l3 2l-2 6q0 3 3 3h2l1 11q3 2 3 5v3q9 9 22 25h3q6 0 6 3q0 1 -2 3q8 1 16 5l12 6l32 1v-2l29 -7h3q6 0 6 -6l3 1q1 -4 10 -4l6 -7l14 -3v-7l11 7l15 4l-1 -11l3 -3l-2 -2l4 -18l-7 -7l-5 -16l-5 -9l2 -9q-8 -8 -8 -16q0 -2 2 -10
l-3 -4l1 -5l-3 -7l1 -6l-5 -6v-15l-2 -2l2 -3l-2 -1v-2q0 -2 -2 -8l2 -4l-5 -7l-3 -9l2 -9l-8 -9q2 -4 6 -8l-5 -10l-5 -18l5 -1l-1 -4v-3q0 -6 -6 -15h4l2 -12h14l3 -10l15 3l11 4l7 -8l9 7h6q15 0 19 16h9l3 8q6 -2 8 -2q9 0 12 10q10 2 15.5 22.5t21.5 21.5q3 19 13 21
q-2 8 -2 12q0 16 11 22q8 8 8 22l7 16l-6 9v14q-3 0 -3 3q0 4 9 13l2 27l-12 10l9 22l-15 12l-5 40l-13 -2l-16 28l-10 2l-14 19l-10 -4l-11 8h-8l-7 8l-10 2l-14 14l-17 -1l-19 14l-2 -5q-7 2 -20 2q-11 0 -17 -2q-18 -2 -21 -2q-4 0 -9.5 2.5t-7.5 2.5q-4 0 -9 -4l-12 -9
q-4 -1 -11 -1q-10 0 -21 3q-22 -9 -53 -24l-7 -10l-17 -1l-8 -6q-16 -2 -23 -20l-8 1q-8 -15 -34 -29l-6 -21l-9 3q-6 -7 -18 -30q-9 -16 -18 -17l-1 -6l-12 -5q3 -9 3 -14q0 -9 -15 -18l-1 -22l-12 -27l-18 -46l-4 -14q4 -5 4 -12q0 -4 -3 -10l5 -8l-3 -8l-1 -15l6 -27
l-2 -20l10 -18l3 -20l5 2l4 -10l4 -13l-1 -9l7 -7l19 -27l14 -5l4 -7l6 -2q15 -25 39 -25l8 -7l12 2l9 -9h12l14 -11l5 4l16 -5l9 3q4 2 7 2q2 0 13 -5l15 -7l17 -4l25 4l19 5q4 -2 13 -2q10 0 19 5l17 5l17 1l19 12q36 6 68 26l9 8l22 10l22 -5h6q12 0 15 -19
q-4 -12 -17 -15l-3 -3q-11 -1 -25 -13.5t-25 -12.5h-3q-2 1 -3 1q-13 -4 -45 -19q-2 1 -7 1q-8 0 -17 -6l-18 -5l-30 -5q-12 -2 -15 -2q-10 0 -23 5h-30l-8 5l-12 1l-13 -2l-21 1l-15 5l-11 6l-12 1q-5 5 -26 5l-16 9q-4 -1 -10 -1q-12 0 -18 7.5t-9 7.5q-2 0 -6 -2h-9
l-4 15l-23 10l-7 13l-17 7l-5 14h-3l-12 14l-10 16l-5 24l-7 8l-2 11l-7 4l1 8l-4 11l1 10q1 2 1 7q0 7 -5 19l-4 19l2 21l2 9l-1 13l8 15l3 14l-2 9l7 12l2 25l23 48l15 43l18 16l19 28l22 24q14 17 29 34.5t32 21.5l31 14l21 16q14 11 22 11h12l13 12l19 6q3 -6 8 -6
q1 0 8.5 5t15.5 5h5l9 -5l6 12l21 -4l17 -6l8 7q11 -3 16 -3q6 0 9 3l7 -2l5 -5q11 0 20 -5l18 -6q28 -4 43 -18q14 -3 26 -17q4 -8 13 -9.5t12 -6.5l13 -23l13 -5l3 -18l14 -12l8 -20l-5 -9l8 -15q-5 -7 -5 -10l1 -5v-11l9 -10l-3 -17v-4q0 -3 1.5 -9t1.5 -8zM441 328
l-1 15l-1 6l-2 4l-9 5l-16 15q-4 2 -6 2h-2q-2 -1 -3 -1l-3 4h-10l-2 3l-8 -2l-3 2h-5q-11 -1 -18 -5l-10 -7l-5 -2l-2 -1l-6 -2l-1 -4q-10 -7 -16 -20l-9 -14l-8 -15l4 -2l-8 -7l2 -6q-8 -10 -8 -22l-5 -6l-1 -12l-4 -5l-1 -6l-3 -2l-1 -12l-3 -3q-1 -5 -5 -17l3 -8
q-6 -4 -9 -7l3 -4l-5 -6l4 -13l-7 -7v-14l-3 -8l4 -1v-6l5 -1l4 -5l14 4q5 8 14 9v5l10 3q0 3 8 9l2 2l13 14h-3l11 9l7 3l6 12q6 2 11 8l3 4h4l7 9l-1 5l5 1v2q0 1 4 7q0 1 8 11l3 -1q0 6 7 12q0 3 11 11h4l1 6q2 0 2 2t-2 5l11 10l3 3l1 7l6 2l-1 8l3 4l2 6z" />
    <glyph glyph-name="A" unicode="A" horiz-adv-x="704" 
d="M672 247q0 -7 -7 -10l-16 5l-18 -14l-21 3l-12 -7l-16 -2q-11 0 -15 -5q-12 5 -23 5q-10 0 -13 -7q2 -5 7 -9l-3 -10l3 -34l13 -19l2 -18l22 -32l-3 -15l15 -14l23 -39l15 -18l6 -12l18 -9l7 -16l7 -5l-13 -10l-16 13h-10l-13 10h-10l-9 17l-10 5l-12 22l-14 15v10l-9 8
l-1 16l-15 16l-21 50l-7 9l-4 29l-12 19v21h-12l-13 -9l-20 4l-14 -9l-5 5l-11 -7l-3 7q-2 0 -10 -3t-16 -3t-13 1h-17l-17 -11l-18 4l-25 -2v-5l-9 5l-12 -7l-9 7h-16l-16 -7l-13 14l-7 -5l-14 5l-12 -7q-15 -15 -34 -44l-16 -4q-19 -30 -43 -62l-9 -5l-28 -36h-5l-24 -39
l-26 -16l-20 5l4 9v14l7 9l-3 7l18 2l12 7q16 7 20 25q20 6 24 23q23 14 32 45l14 5l32 50v14q-7 5 -10 15l19 17v7l23 -2l13 8l3 -4l13 18q-4 1 -4 4t14 12l4 -6l2 13l8 16l-3 2l12 1l4 13q12 2 12 10v12q24 21 24 38v2l13 2l3 14l7 2l10 21l7 -5l-5 11q15 1 16 19l7 -4v20
h7v14q6 6 13.5 13t9.5 19l11 11l-7 16q15 18 26 18h2l6 9l9 -13l23 -12l2 -25l7 -7l6 -13l8 -3l2 -22l8 -30l13 -23l9 -32l2 -21l14 -19l-4 -8l11 -12v-15l2 -14q-2 -6 -4 -10q3 -10 10 -18q9 -18 25 -18q6 0 19 4h23q11 -3 18 -3q8 0 13 2.5t9.5 6t6.5 3.5q3 0 6 -2l12 -7z
M482 272q-7 17 -16 22l5 14l-13 7l-4 38l-12 19l-2 16l-7 14v5h-3l-2 25l-14 21l-12 9l-13 6l-11 -6l-7 -12l-24 -34l-8 -16l-21 -21l-4 -16l-21 -11q-7 -37 -30 -44l-9 -30l-20 -8v-10l-3 -13l16 -5l9 -5l12 1l20 -5q8 -2 9 -2q4 0 14 2q1 1 4 1q1 0 7.5 -2t11.5 -2
q6 0 13 3l39 3l32 4l23 -3q8 -1 16 -1q23 0 23 10q0 7 -9 17z" />
    <glyph glyph-name="B" unicode="B" horiz-adv-x="662" 
d="M631 162l-6 -16l3 -9l-11 -15l-7 -13l-11 -3l-10 -12l-27 -12l-16 -20l-24 9q-8 -1 -13 -9l-9 -15l-14 6l-24 -8l-5 2q-26 -19 -50 -22q-12 0 -16 -3l-14 -12l-9 6l-10 -7l-19 5l-10 -7l-11 -1l-24 3l-9 -14l-15 7h-5q-1 -1 -4 -1q-2 0 -6 1t-6 1q-6 0 -18 -10
q-1 -3 -10 -3q-8 0 -22 3l-14 -16l-15 6v4q0 5 -4 8q-2 -4 -9 -4h-4l-13 31l1 15l-3 21l6 19l-3 22l6 19l-3 16l2 14q1 3 1 8t-1 8q-1 7 -6 19l-3 32l-18 2q-10 5 -17 14q4 15 20 25q3 4 6 4t6 -4l4 13l6 3l-6 20l8 3l-6 23l4 6l-7 18l7 14l-6 5l-1 20l-11 23l4 19l-8 4
l2 18l-6 12l-8 29l-16 16l-8 -2l-8 -7l-7 5l-9 -5l-7 7l-7 -7v5l-16 4l-23 -15q-29 15 -29 31q0 6 5 6q4 0 6 -1q8 17 18 18l14 -7l7 3q42 0 56 -5q7 0 17 5h7l8 -7l4 2l8 2l23 -9l62 -9q8 2 12 2q5 0 19 -4l16 4q4 -1 13 -8q21 -12 42 -12h5l14 4l6 -8q5 3 9 3t6.5 -5
t10.5 -5l23 -1l9 -9q18 -9 30 -9l12 -4l11 -11h17l3 -8l20 -13l4 -19l-11 -22q-17 -22 -36 -23l-11 -7l-9 2l-21 -16q-6 2 -7 2q-8 0 -11 -12q-5 4 -9 4t-5 -4h-9l-13 -15l-18 -4q-10 -10 -35 -12l-11 -4l-6 -8h-10l-19 -12l-26 -6l-5 -6q-13 -3 -19 -7q-2 -1 -12 -3
q-7 -10 -7 -14q1 -3 3 -3h12q17 0 31 -1l54 -4l11 4l52 -9l9 4q13 -11 16 -11t3 5h2q1 0 11.5 -3t16.5 -3h8q15 -7 28 -7q10 0 17 4q15 -4 41 -4l11 -8l12 3l32 -14h12q11 -11 25 -12q8 -9 21 -15.5t16 -9.5zM455 416l-21 11l-11 14h-16l-7 4q-22 1 -23 10l-9 -7l-10 9
l-16 4l-9 7l-10 -6l-13 8q-4 -1 -12 -1q-14 0 -29 4l-16 -2l-13 13l-15 -4l-10 6l-7 -8l-14 6l-15 -7l-16 3l-7 -9l14 -14v-25l6 -18l-6 -16l8 -26l-3 -23l5 -15l-4 -16v-24v-3q-1 -2 -1 -3q0 -7 12 -10q6 16 30 17q11 3 23 11l14 2l2 7l22 2l4 12q5 -4 12 -4q8 0 17 9
l12 -1q9 16 26 21l29 9l19 7h12l5 11l20 3l8 9v5h2q11 0 11 18zM586 140q0 6 -1 10l-12 17l-16 2l-7 11l-12 -4l-20 11l-16 -2l-9 7l-20 -2q-11 8 -20 8q-8 0 -14 -6q-6 3 -9 7h-10q-5 0 -16 1t-17 1l-31 1l-23 11l-16 4l-19 -4l-13 -8l-13 10l-18 -2l-1 -7l-20 2
q-10 9 -23 9q-33 0 -33 -32q0 -6 1 -10l-2 -15l6 -13l-4 -13l1 -9l-1 -19l7 -14l1 -13l-8 -22l5 -9l-4 -9l6 -2l2 -15l12 -6l37 2l16 5l23 -1q8 -2 10 -2q-8 0 17 5l12 8l11 -3l49 11l19 10l14 -3l27 16h27q21 8 48 23q2 -1 7 -1q6 0 9 1l5 11l36 12l6 12l10 3q4 5 4 15z
" />
    <glyph glyph-name="C" unicode="C" horiz-adv-x="608" 
d="M605 176l-18 -11l4 -15q-3 -13 -25 -13l-8 -21l-33 -22l-8 -12l-11 -12q-15 0 -39 -19t-42 -22l-23 -13q-4 -2 -12 -2h-6q-17 0 -36 -14l-12 -9l-15 3l-12 -4q-12 -4 -18 -4t-14.5 2t-10.5 2h-2q-7 -5 -12 -5t-11 6q-18 2 -17 2q-4 0 -10 -3l-14 5l-9 -4l-20 9l-13 10
l-19 6l-5 13l-24 6q-4 1 -6.5 12.5t-9.5 16.5q-10 6 -16 32q-18 24 -18 45v3l2 31q-6 11 -6 21l6 17v17l6 3l2 16l12 46l9 22l4 1l2 15q5 2 7 18t12 26.5t10 16.5q0 8 -4 13l12 4q9 14 19 21l5 21l13 8l4 16q21 4 28.5 17t19.5 16l9 9l18 6l3 -2l11 11l7 -8l10 -2q15 6 32 6
q5 -2 22 -4q18 -10 41 -16l11 -9l55 -34l5 -13l9 -8l6 -19l6 -15l3 -16l-1 -22q0 -6 -2 -21q0 -1 1 -2l-16 -22l-18 -4l-10 8l-6 10l-4 17v15l-3 17v24l4 18l-11 17q-11 10 -18.5 15t-15.5 7t-8 4v1q-1 2 -4.5 4t-5.5 5h-21l-14 11q-15 0 -15 -6l-9 6l-10 -7l-13 2l-10 -7
q-4 1 -12 1q-7 0 -15 -3l-16 -23l-27 -27l-21 -32l-9 -4l-8 -26l-14 -11v-14l-17 -29l-8 -33h-7l4 -19l-10 -19l3 -7h-6v-15l-4 -3l1 -39l-4 -29l10 -16l1 -10l9 -7v-12l7 -11l-4 -11l19 -20l1 -10l31 -12l-3 -13l41 -3l13 -13l21 7l11 -13l23 8q8 7 13 7q3 0 3 -3l15 1
l8 -7l16 6h5q15 0 21 7.5t21 7.5q4 0 14 -2q3 11 21 12q8 9 25 14q7 0 29 10l7 12l9 3l19 9l11 14l17 7l53 56l18 10z" />
    <glyph glyph-name="D" unicode="D" horiz-adv-x="624" 
d="M585 196l-5 -11l-2 -15l-18 -26l-5 -10l-18 -9l-7 -9l-23 -7l-14 -9h-9l-9 -2l-4 -8h-16l-2 -4l-6 1q-3 -5 -18 -12q-4 3 -8 3q-7 0 -21 -7l-18 4l-12 -8q-2 1 -6 1t-14 -3t-16 -3h-7q-5 0 -19.5 -4.5t-24.5 -4.5q-8 0 -14 2l-15 -4l-16 6l-10 -6l-6 2l-7 -14l-9 8
l-12 -6l-4 7l-5 -2l-12 -1l-3 -20l-12 -15l-5 -15l-15 -20l-3 3h-5l2 17l-1 25l-15 10q-5 5 -10 5q-2 0 -20 -10h-15l-8 6l-2 8l9 9l1 7l35 9q1 0 8.5 1.5t7.5 3.5v1l-6 20q-1 2 -1 5t2 8t2 6l-3 48l5 12v23l7 16l-12 22l12 26l-6 68l3 23v21l-9 23v36l-11 18v10l-27 3
l-21 -9l-32 -2q-6 8 -6 17l-5 23q16 11 26 11h4q2 -1 4 -1q3 0 7 6q15 4 35 4q12 -9 24 -9q3 0 11 2q3 -6 6 -6q1 0 17 6l12 -6l15 4l30 -7l17 -11l22 4l7 -13l12 -3l18 -11l11 -2l14 -7q2 0 4 1h4q9 0 19 -8q18 -1 44 -30h9q12 -12 32 -16l23 -18l26 -24q6 -6 12 -6
q1 0 8 5l4 -3l3 -16q34 -30 53 -57q2 -8 6 -14l9 -6v-13q0 -10 9 -19q0 -9 7 -17t7 -10v-1zM548 190l-3 28l-40 54h-7l-11 27l-12 1l-13 10l-4 14l-12 9l-25 9l-8 14l-79 48h-9l-5 -1q-7 0 -18 6q-6 7 -12 7q-3 0 -7 -2l-5 12l-15 -1q-8 1 -29 9l-4 -2q0 7 -9 7
q-20 16 -55 16q-3 0 -7 -2l3 -11l-5 -15q-2 -3 -2 -8q0 -8 9 -16l-10 -17q4 -7 10 -30q-3 -24 -3 -17q0 -4 1 -5l4 -10l-7 -2l3 -21v-39l4 -6l-11 -18l7 -7l-9 -25l4 -23l-10 -23l10 -19l-2 -20l4 -11l-6 -15l9 -24l25 2l37 5q15 5 14 5q5 0 17.5 -2.5t19.5 -2.5q24 0 47 16
q10 1 24 1h16l8 -1q11 0 21 8l7 1q6 2 14 6.5t11 4.5q5 0 9 -4q10 0 16 6l18 2l2 10l7 -3l11 5h7l9 11h7l38 29z" />
    <glyph glyph-name="E" unicode="E" horiz-adv-x="599" 
d="M570 514q-1 -7 -5 -11h-11l-7 -5l-14 5l-16 -1q-7 0 -11 1q-6 6 -10 6t-13 -6q-7 4 -13 4t-18 -5t-21 -6q-4 0 -13 1t-14 1q-6 0 -8 -6q-7 6 -16 6q-14 0 -29 -12l-10 5l-9 -5l-23 7l-16 -9h-18q-11 -3 -34 -8l-16 -8l-9 6l-18 -14l-18 1l-13 -24l5 -19q-10 -3 -10 -26
q0 -1 1 -4v-4q-1 -8 -1 -21l3 -4l-7 -6l4 -6q-7 -16 -7 -27q0 -22 26 -22q4 0 11.5 2t11.5 2l7.5 -1.5t15.5 -2.5l15 6l16 -5l10 3l10 -1l15 3l9 -2h2q6 0 18 6q6 -3 20 -3q2 0 8 1h10l13 4q20 -4 22 -4q3 0 6 6q28 -5 30 -5q7 0 11 1q13 0 34 -2l18 4q2 6 12 6q8 0 23 -3
l9 2l13 -5l13 3l-3 -12q-17 -7 -26 -7q-2 0 -10 2t-15 3l-26 -13l-22 2l-13 -5l-9 2l-16 -9l-11 3l-40 -1q-7 0 -13 -6l-14 4l-7 -7l-13 4l-7 -7l-19 9l-14 -9l-16 4q-2 1 -8 1q-15 0 -32 -8l-36 -3l-8 4l-8 -4l-22 -4l-8 -19l9 -52l-5 -7l6 -16l-1 -18l5 -7l4 -27l9 -10
l-5 -17l10 3l18 -28q38 -29 66 -29q4 0 18 -3l13 2l8 2l4 5h9q13 0 18 1l17 11q13 0 16 4l17 4l19 15l5 7l10 9l13 1l25 22q29 8 36 32l7 -4l3 16l13 1l2 15h3q9 0 13 -12l-34 -44l-12 -3l-8 -12l-16 -19l-25 -17l-16 -15l-7 1l-12 -13l-46 -19l-11 -14l-16 5l-5 -8l-4 1
l-8 -7l-27 6l-33 -15l-24 9l-41 21q-26 13 -44 49q-12 26 -30 87l3 14l-7 19l7 9l-7 39l-2 15l-16 20q-1 4 -1 9q0 15 8.5 21.5t8.5 5.5v6q0 7 9 9l3 14l-3 6v28l-3 12l11 30l4 16l4 11l-13 16l-24 -2q-14 0 -14 14q0 9 13 24q5 2 7 5q18 7 20 7q3 0 7 -5q3 7 8 7q15 0 15 9
q0 3 -3 7l33 -2l6 -11q16 11 32 11h3q2 -1 4 -1l21 5q8 0 20 7v-7q9 8 25 8h9q6 -1 8 -1h3l95 9l22 -9l7 12q3 -7 8 -7q1 0 9 2l11 -6l7 6l18 -7l12 3l6 -5l32 3l5 -3l18 -4q3 -1 7 -5z" />
    <glyph glyph-name="F" unicode="F" horiz-adv-x="545" 
d="M538 509q0 -7 -10 -7h-4l-14 -8l-18 6l-25 -14l-11 5q-7 4 -16 4q-4 0 -12 -2t-13 -2h-2l-12 2l-21 -7l-9 1l-4 -3l-46 -1l-12 2l-4 -7l-16 5l-14 -7l-17 -1l-14 3q-9 0 -19.5 -2.5t-11.5 -2.5l-20 -2l-9 -9l-6 2q-3 -4 -3 -14l7 -28l8 -18l-8 -23l8 -6l-8 -12
q8 -2 8 -11q0 -5 -5 -20l-3 -40l2 -15l36 -5l27 7l10 -6q12 -1 22 -1q9 0 15 7l19 4l23 -8l19 4q5 1 10 1t15 3l12 -4l16 4l9 -5l23 1q8 2 11 2t9 -1t8 -1q6 0 10 6l25 3l10 -3q4 2 7 2t11 -4h5l-2 -5l-12 -2l-16 -10h-14l-9 -6l-23 2l-27 -9l-23 -4l-16 5l-4 -5l-30 4
l-12 -6l-18 2q-26 -7 -37 -7h-7q-6 0 -16 -5l-11 7l-5 1q-6 0 -29 -10l-19 3l-8 -3l-14 3q-6 0 -12 -58q0 -16 -2 -30q4 -8 4 -16l-11 -32l6 -12l-7 -13l3 -16l-4 -8q1 -2 1 -7q0 -1 -22 -103l-11 6h-7l2 12v9l5 5l1 18l7 16l-7 5v11l-5 5l8 15l-9 3q9 36 9 28v2l-4 5l1 7
l-3 15l6 16l-3 39l7 39l-4 16v18q0 8 -8 11l-27 -11l-20 11l-19 -3q-2 -1 -6 -1q-7 0 -7 14q0 25 25 25q13 0 23 -1l30 -3h7q11 0 16 17l-5 13v47l-5 1l4 54l-11 30l-1 20l-28 13l-23 -15l-9 13q-9 2 -11 9q5 5 5 26q15 0 26.5 7.5t16.5 7.5q7 0 16 -2h5q4 -1 7 -1t19 1
l49 3l34 -5l34 2q6 4 13 7q-1 0 11 -4h2l38 6l1 -6q3 5 7 5q5 0 11 -8l7 3q8 0 16.5 1.5t9.5 1.5h2l27 -4l32 -4q7 2 28 4q6 0 12 -4h26l16 4q9 0 9 -9z" />
    <glyph glyph-name="G" unicode="G" horiz-adv-x="725" 
d="M672 190l-35 -56q-3 -5 -3 -8t3 -6l10 -14l-7 -4l-3 -35l-10 -26l13 -11l-15 -8v-12l9 -8l-4 -19l4 -22l-4 -14l7 -8l-7 -8l4 -24l-9 -24l12 -11l-3 -26l13 -23q-1 -13 -10 -13q-6 0 -15 13l-5 32l-12 4v13l-11 27v16l-5 7l1 11l-7 3l4 9h-8q1 4 4 5q3 0 6 -3l-7 16l5 14
l-4 13l7 9l-7 3q6 8 6 17q0 -2 -2 13l-4 30l7 20l-3 5q-4 1 -5 10t-7 16l-9 -7l-6 -8l-16 -8q-6 -3 -30.5 -3.5t-33.5 -8.5l-9 -8l-36 -8l-16 -9h-23l-16 -8l-21 2l-14 -10l-13 4l-9 -9q-6 0 -14.5 2t-10.5 2q-9 0 -17 -6q-4 4 -10 4q-4 0 -6 -2h-2q-1 -1 -2 -1t-2 1h-3
l-16 -9l-15 12l-12 -6l-32 10l-6 -4l-12 6h-25l-12 10l-21 10l-38 39l-5 30l-11 14l7 16l-8 10l5 6l-7 11l3 5l13 2v12l9 16l2 -4q13 13 13 26q-1 6 -1 5q20 4 26 36l-8 -13q11 27 21 27h2l-4 -7q9 5 9 13v3l11 2l-2 -4l7 2l2 14l5 -4v7h11l11 9l7 15l21 4l18 19l3 7l15 5
l5 9l19 2l16 16l16 3l15 8l3 5l2 -2l9 7l-2 2q9 6 12 6q2 0 8 -3q9 18 21 18h21q8 0 23 16l9 -1l16 10l7 -2q7 5 20 8q10 2 11 5l5 3l5 -1l22 1l4 8l12 -2l21 3l2 4l16 -7h15l18 -15q9 -2 25 -12q-4 -22 -36 -28l-31 16l-9 -4l-17 7l-12 -7l-17 5l-29 -15l-12 6l-23 -6
q-16 -4 -22 -13q-14 -11 -23 -11q-3 0 -9 2q-21 -12 -42.5 -24t-37.5 -13l-3 -9h-8l-10 -14l-14 -2q-11 -15 -33 -25.5t-24 -12.5l-25 -24l-16 -13l-16 -22l-32 -26v-22l-5 -5l-18 -46v-17q0 -12 7 -18q12 -10 12 -20q0 -4 -1 -6l12 -13l27 -15l28 -8l34 1l40 -8l6 1l8 -2
l58 5q25 9 71 11l-2 4l48 5v3l54 13q10 9 32 12q44 6 47 7l-2 8h6v4l15 4l-4 10l11 12v18q-6 3 -7 5q3 8 3 16q0 9 -3 18l31 1l9 -8h9l15 -18z" />
    <glyph glyph-name="H" unicode="H" horiz-adv-x="734" 
d="M765 333l-16 -11q-7 1 -7 7q0 8 12 8q7 0 11 -4zM740 333l-20 -18l-16 2l-14 -11l-11 7l-39 -11l-7 -14l-16 13l-23 -31h8q-1 -17 -13 -30h2q4 0 4 -7v-9q-1 -8 -1 -16l-5 -18l5 -5q0 -8 -5 -15q-1 -1 -1 -5q0 -6 4 -19l-6 -5l1 -48l-9 -54h2l-4 -16l4 -7l-2 -16l5 -12
l2 -16q0 -5 -7 -10q0 -1 1 -3v-2q0 -11 -9 -18l-1 10l-10 15l-4 14v38l-4 13l7 6l-7 4l-3 16v15l3 1l-3 11l3 39l-1 36l7 26l-6 9l4 9v62l3 32l-19 -7l-5 6l-8 -6l-10 4q-14 -7 -22 -7q-2 0 -8.5 1t-10.5 1q-3 0 -13 -2l-39 -13l-46 6l-5 -2q-13 5 -20 5q-5 0 -15.5 -4
t-16.5 -5l-16 4l-6 -14l-17 13l-25 -6l-10 6l-8 -8l-18 2l-12 7l-1 -7l-8 3q-26 -1 -34 -5q-13 -6 -13 -29v-37l-4 -26l4 -18l-9 -19l9 -17l-7 -44l5 -16l-2 -26l7 -17l-3 -8l2 -17l-4 -2q-17 3 -18 19l-2 47l-17 21l-3 8q1 11 15 16l-7 7l1 16l-4 12l-5 80v25l-4 14l-17 10
l-2 29l23 15q10 30 10 50q0 5 -2 15l9 -4l-5 10l-3 37l6 23l-6 39v22l5 26l18 11l11 -9l12 -4l1 -16l8 -10q-7 -24 -7 -28q0 -7 5 -10q1 -3 1 -10q0 -16 -11 -77l7 -16l-7 -10l-1 -16l-4 -23h21l11 -4l26 4l16 -2l22 2l19 -9v2q0 7 6 7q4 0 9 -4h17q8 0 21 1t18 1
q10 0 15 -2l7 9l7 -5l19 -2l9 -2q6 3 9 3q-2 0 4 -1l109 12l44 -3l-9 14l5 6l-5 22l5 16l-7 43l7 16l-20 59q-2 6 -2 9q0 11 15 17h7l-4 18h15l5 -11l18 4v-16l12 4v-18l-7 -13l9 -26v-13l5 -14l-7 -20l2 -16l-4 -47l-2 -33l24 4l22 1l37 10l17 -2l13 2h23z" />
    <glyph glyph-name="I" unicode="I" horiz-adv-x="262" 
d="M170 503l-4 -1l-6 -15l6 -3l-3 -22q-3 -4 -3 -10q0 -5 3 -13v-12l-5 -5l5 -6l-7 -18l2 -17l-16 -32l4 -2q-2 -5 -2 -12q0 -4 1 -9t1 -6v-2l-11 -5l11 -25h-7l3 -9l-7 -13l9 -17l-2 -7h-5q-3 -1 -3 -6q0 -11 12 -19q-9 -6 -9 -16l-3 -23l5 -16l-5 -12l1 -37l-5 -26l10 -5
q-2 -10 -4.5 -14.5t-2.5 -9.5q0 -8 10 -21l-7 -2l13 -13l-5 -8l14 -4q-3 -14 -11 -24q-9 3 -9 13l-13 17l-8 2l4 17l-16 18l7 9l-10 15l3 21l-4 12l-4 6q0 2 4 6l4 6l-4 13l4 9l-13 10l10 15l-1 67l7 52l-3 51l5 14l-5 4l3 12v18l4 7l-7 2l5 23q-11 0 -14 7h14l2 16l-7 2
l5 12q8 7 8 14q0 8 -6 15l6 2v9h10l6 14l8 3q9 0 21 -5q5 -4 7 -11z" />
    <glyph glyph-name="J" unicode="J" horiz-adv-x="262" 
d="M166 315l-7 -7l2 -21l-3 -25l4 -29l-3 -8l2 -17l-14 -14l5 -7l-7 -2l8 -5l-1 -16l1 -11l-10 -7l7 -14q-8 -10 -10 -32l3 -22v-25h7l-13 -6v-15l-1 -14v-18l-12 -16l5 -7l-7 -7q-2 -12 -2 -23l-7 -9l1 -9l-6 -3v-9l-7 -10l-7 -1q0 -5 3 -9h-7v-18l-14 -8l-2 -9l-21 -38
l-42 -30l-6 -3v3l-26 -19l-10 1l-7 -7h-9l-7 -6l-32 4l-34 -14l-30 9l-23 -3l-11 3l-13 -11l-8 12l-15 -1l-28 9l-25 -8l-5 19l-39 -4l-11 13l-20 1l-2 8l-12 -2l-12 6h-11q-5 2 -5 10q0 6 13 6q23 0 58 -19h6q23 0 44 -9q8 0 11 -1h8l8 -8l31 5l14 -5v-5l16 5l28 -7v6l4 1
q30 0 56 4h36l8 4l4 9h14l6 8h7l10 7l6 2l7 6l6 -3l2 11l14 12l4 16l15 8l7 30h2q10 0 11 22l10 7l-7 13l9 10l-2 12q4 7 8 7t8 -5l-4 13l6 26v21h7l3 34v5h3q4 0 4 2q0 3 -3 7l-4 12l7 3v14l-3 3l6 18l-3 17l7 80l6 20l-6 34l9 16l-9 14l6 27l-11 43v46l-9 27v17l-7 2l9 52
q4 21 25 21q4 0 6 -3l8 -15l7 -5l-7 -12l8 -16l-1 -22l7 -3v-11l3 -13l-9 -12l9 -3l-3 -22l3 -53l-3 -22z" />
    <glyph glyph-name="K" unicode="K" horiz-adv-x="731" 
d="M732 102l-7 -12l-27 -37l-20 -16l-25 -15l-28 -10l-21 -5l-9 3l-14 -4l-16 3l-18 -3l-5 4l-11 -3l-13 3h-17l-13 13l-23 6l-9 10l-9 -2l-17 18l-20 6l-14 16h-29l-7 13h-10l-4 8l-14 5l-2 19l-12 -9l-8 9l-18 13l-17 19l-23 16q-5 7 -30 23q-8 17 -24 17h-5l-2 8l-14 -3
l-2 9l-7 -2l-15 3l-11 -12l5 -35l-11 -2l9 -28l-3 -20l-4 -13l-5 -12q10 -4 12 -16l-5 -9l-3 -17v-23l-7 -16l-3 -22l-12 -25l-13 -22l-10 8l4 14l2 16l5 8l-4 10l9 5q-10 0 -10 9q-1 1 -1 2q0 5 11 12l-6 8l8 10l4 -2l-3 17l-5 12l8 18l-6 -2q-4 7 -4 14q0 5 1 7l5 13
q-1 20 -4 43q-4 4 -4 8l6 7l-6 20l9 12l-5 9v23l-4 25l12 13q-4 2 -6 16q1 4 1 9q0 6 -1 8l3 12l-5 3v9q6 2 6 6q0 2 -2 10v47l1 6q3 5 3 21q-8 12 -8 27t8 34q6 3 14 3q7 0 19 -5l14 -19l-3 -24l7 -8l-4 -10l4 -12l-13 -21l7 -33l-7 -24l2 -33l-9 -15l8 -7l12 -22
q7 -7 21 -7l23 -7l6 4l10 -4l9 6l16 -2l5 -4l16 13l20 7q9 0 18 -4v7h9l8 8q7 7 20 7h4l6 7v1q0 2 5 2h9l33 14l9 16q7 5 12 5q3 0 5 -2l2 12h7l2 7l13 3l9 16h10q4 0 7 14t15 15l7 10l7 4v7l14 2q6 26 16 30q9 12 10 20l10 14l14 15v6q0 15 10 15q11 0 22 -17l-6 -1v-11
q-4 -7 -17 -21l-2 -13l-9 -3l-9 -31l-11 -13l-8 -13q-3 -4 -15 -9l-10 -8q2 -10 5 -15q-23 0 -30 -16l-11 -3v-8l-12 -5l-20 -22l-27 -15l-19 -14l-18 -4l-16 -10l-27 -6l-24 -16l-27 -13l-29 -10l-20 -3l28 -21l5 -7h11l10 -16l24 -21l29 -17l4 -11l27 -9l23 -16l30 -16
l18 -17l19 -5l27 -20l37 -12l29 -4l48 6h19q8 0 14 8q4 4 8 4q1 0 4 -1.5t6 -1.5h2q4 12 13 12h3l2 11l12 14l12 8l1 8q11 3 18 10l5 -3z" />
    <glyph glyph-name="L" unicode="L" horiz-adv-x="614" 
d="M630 81q0 -10 -19 -10q-1 0 -6.5 -4t-12.5 -5l-36 -5h-23l-15 -10l-23 -2l-8 -8l-47 -2l-27 -13q-20 -1 -27 -11q-13 0 -26 5l-21 -7l-24 -1l-22 -8h-53l-33 9l-21 -2l-8 7l-19 2l-30 31q-18 19 -25 48q-7 34 -10 39l-4 10l8 34l-4 35l7 5l1 48l8 21l3 26l7 5l-6 11v57
l8 14l3 14l-1 34l16 20l-15 10l6 18l11 6l-6 16l13 5l3 9l7 2l11 -2l12 -28l-12 -11l-4 -9q0 -1 -1 -2q0 -2 5 -4t7 -5l-11 -32v-37l-10 -33l-3 -32l-16 -70l5 -7l-6 -14l-3 -18l-3 -22l3 -30l-4 -11l8 -45l-1 -4l16 -36v-11l50 -32l39 -4v-3l37 2l38 7h28v-4l11 10l53 1
l13 8l37 2l17 5l63 4l27 8q8 -2 19 -2t11 7v2q9 0 14 5h9q12 0 12 -6z" />
    <glyph glyph-name="M" unicode="M" horiz-adv-x="853" 
d="M802 -16q-3 -3 -15 -7l-21 14l-27 34l-8 20l-3 19l-5 13q-11 13 -11 55q0 7 4 14l3 29l-10 21l3 10l-3 19l1 22l-7 7l6 15l-6 9l6 9l-7 21v32l-8 19l-1 20q-2 12 -19 23l-13 -16l-11 -5l-34 -47l-29 -35l-10 -21l-28 -32l-31 -24l-7 -4l-3 -17l-20 -7l-3 -14l-23 -11
l-8 -19l-16 -6l-23 -41q-13 0 -16 -25q-4 -1 -7 -1l-5 10l-11 16l2 13l-7 9l7 9l-9 10l-5 18l-14 13l-24 31l-5 19l-11 13l-19 38l-20 23l-7 14l-19 21l-20 31q-17 26 -27 26q-6 0 -12.5 -2.5t-7.5 -2.5h-1v-12q0 -33 -9 -50l-21 -39l5 -25l-7 -18l-20 -67l-8 -22l-3 -15
l-13 -32l-16 -28l2 -22l-12 -27q-5 -11 -5 -14q0 -8 9 -13q-19 -24 -26 -24q-4 0 -7 8q-6 5 -6 18q0 2 4 12.5t6 21.5q3 15 9 24t6 8v24q0 20 20 31v16l6 23q-1 2 -1 6q0 5 5 20q7 8 7 18v22l9 16l18 60l-5 27l9 7l3 12l1 43l3 16q2 24 2 22q0 6 -2 14l-11 23l8 17l-4 7
q4 2 4 9q15 0 19 7l9 -1l12 -9v-9l11 -7l3 -23l9 -8l4 -14h5q-2 -4 -2 -7q0 -9 16 -10q6 -3 14 -11l2 -13l11 -12l7 -23l45 -48l8 -27l15 -12l14 -39l34 -61q9 -17 26 -32l2 13h18l11 25l21 15q5 7 18 20v8q34 22 34 21q0 1 -1 1q0 7 6 16h10l9 13q3 -5 5 -5q1 0 1 3l-2 18
q22 29 39 30v12q0 10 17 15l6 -2l2 6l21 33l2 7h7q14 16 22 37l6 4q4 1 9 1q4 0 5 -3l7 15l-4 30l-6 14l10 16l4 16q11 -2 16 -4q2 -3 13 -5l2 -16l16 -14q2 -2 2 -8q0 -5 -1 -8v-27l6 -9l-6 -5l6 -2l-2 -11l4 -5l3 -21l5 -4l-10 -14l5 -2l-3 -21l7 -18l-2 -23l9 -36
q3 -10 5 -30q-2 -5 -12 -18l6 -12q4 -3 4 -5t-3.5 -9t-5.5 -13l8 -7l-3 -55l10 -34v-40l7 -8l6 -14q15 -14 32 -41z" />
    <glyph glyph-name="N" unicode="N" horiz-adv-x="757" 
d="M677 422l-13 -20l2 -16l5 2q0 -8 -7 -23l-6 -13v-51l-10 -23l2 -15l-9 -45l4 -12l-8 -36l2 -16l-7 -26l7 -25l-16 -25l4 -14l-9 -17l5 -10l4 -47l7 -15l-7 -5l-4 -7l-9 2l-5 49l-7 2q-2 24 -2 66l-9 18l-19 3l-11 13l-5 -6l-9 11l-16 -5l-20 16l-10 -2l-20 4l-12 12
l-7 -2l-61 39l-7 9l-21 9l-13 17l-12 6l-16 16l-45 20l-32 41l-14 1l-7 11q-13 6 -32 27h5l-9 9l-7 14l-7 2h-2q-15 0 -21 -36l-9 -51l9 -31l-14 -51l5 -26l1 -8v-4q0 -12 -6.5 -19.5t-6.5 -10.5q0 -1 2 -3l11 -4l-6 -21v-25l-5 -27l5 -11l-5 -7l-2 -21q-3 -13 -11 -26h-7
q-12 0 -12 19v4l12 39l-5 16l7 21l-7 8l8 16l-11 15q2 12 2 19q0 8 -2 22l4 -2l4 10l-8 15l8 23l-5 30l7 32l-6 22l7 48l-1 37l5 34l-5 11l1 48l11 3q-13 13 -13 23q0 1 2 7l4 4l18 -4l5 7q9 -7 9 -16q0 -6 -5 -14h14l2 -23l12 -10l2 -15l16 -10l7 -27l9 -11l33 -24v-2
q0 -8 10 -18l23 -16l25 -29l78 -65h9l7 -6q3 -8 12 -18l32 -10l25 -21l15 -5l28 -16l27 -8q22 -22 42 -25q10 4 15 4h3l2 28l14 30l-7 7l3 47l11 17l-2 16l-9 15l11 39l-5 37l10 71l-12 13l14 41l-5 5l7 9l-2 7l15 7l3 -7l14 3q-3 -10 -3 -19q0 -10 5 -17.5t5 -9.5l-7 -19z
" />
    <glyph glyph-name="O" unicode="O" horiz-adv-x="697" 
d="M657 269l-9 -22l-3 -30l-9 -9l-10 -32q-3 -10 -5.5 -13t-14.5 -6l-59 -47l-20 -10l-14 -13v6l-41 -32l-18 -8l-43 -23q-9 4 -18 4q-7 0 -10.5 -5t-7.5 -6l-9 2l-16 -15l-8 4l-4 -5h-17l-9 -9l-30 2l-48 -9q-3 1 -9 1q-5 0 -15 -2l-17 3l-4 4l-42 7l-20 10h-9v19l-14 -5
l-11 15l-21 10l-7 23l-2 28l-5 7l-2 40l14 43l-2 21l9 8l-7 17l17 14v14l6 13v11l7 12l-3 4l5 3l21 48l39 62q10 3 18 18l16 12l-2 9h12l-3 6q12 12 31 18l7 8h-1q3 1 42 6l23 3l29 -4l22 1h26q10 -2 14 -2q14 0 21 9q5 -5 11 -5q2 0 5 1q1 -10 10 -10q4 -4 22 -6l7 -7
l15 -2h19l27 -14h-6l22 -16l6 -11l15 -7l7 -12l17 -7l24 -41l14 -21q25 -75 25 -73v-7zM625 295l-9 23q0 2 1 4v3q0 13 -11 20l-12 8l-7 19l-6 3l-3 11l-28 30l-25 21l-8 -3l-36 23q-14 2 -45 13q0 -1 -3 -1q-1 0 -15 2l-5 -3l-15 5l-10 -5q-14 4 -18 4q-3 0 -8.5 -2
t-8.5 -2q-5 0 -7 2q-10 -5 -18 -13q-4 -6 -18 -12l-14 3l-14 -9l-16 2l-9 -4q-13 -13 -45 -33l-10 -18l1 -14l-21 -9l-9 -11q-7 -16 -18 -27v-12l-7 -3l-7 -9l-9 -29l-17 -11q-3 -61 -13 -76q-9 -9 -12 -39l-6 -18l6 -12l3 -18l11 -15l3 -16l16 -16q38 -21 64 -22l32 8l7 -7
h16v-7h16l4 12l16 2l40 -5q5 10 12 10h2q1 -1 2 -1q23 14 32 14h4l24 15l17 1l13 11l23 1q15 1 24.5 9l9.5 8l13 3l7 19l3 -1l2 7l11 4l8 9l9 -3l5 10l16 12l27 30l16 6l8 17l13 9l-3 18l7 16l-4 29z" />
    <glyph glyph-name="P" unicode="P" horiz-adv-x="550" 
d="M544 353l-9 -19l-21 -21v-7q-11 -2 -21 -14q-2 -5 -7 -5q-9 -16 -43 -24q-13 -17 -36 -17h-5v-6h-20l-12 -9l-11 -1q0 -8 -7 -8l-9 -7h-23l-14 -13l-41 -8l-5 -4l-23 2l-2 -5l-7 -12q-5 3 -29 5l-9 -5l-14 -5l-9 -6l-13 -4l-6 -19l10 -19l-5 -24l7 -27l-6 -4l8 -12v-20
l4 -10v-18l23 2q5 -5 5 -11q0 -15 -21 -15h-6l-16 -6l-14 25l-18 39v41l-10 20l7 8l-4 20l2 14l-7 9l-41 7l-11 16l50 4l-5 3q2 2 6 2q5 0 7 -2v23l6 12l3 60l6 7l-2 46l4 25l2 55l6 16l8 5l-2 15q1 10 12 10q34 0 34 -23q0 -7 -12 -30q-4 -12 -4 -16q0 -8 11 -27l-9 -9
l-1 -27l-13 -12l4 -21l-8 -23l4 -22l-4 -17l2 -13l-7 -11q1 -16 14 -19l25 15h21q14 14 34 14l7 6q5 -2 14 -2q20 0 40 17l16 1l13 11h13l3 5l53 15q14 1 14 7q4 4 5 9q5 -1 11 -1q13 0 17 18q16 2 17 6t8 7l6 -5l5 15l7 6l4 22l-9 22l-13 18l-10 2l-18 16l-37 16
q-36 27 -76 30v-7l-17 12l-23 -1l-14 9h-16l-14 8h-14q-5 0 -11 2l-6 6l-39 5q-10 -3 -30 -11l-23 14l-14 -8l-11 7l-21 -6v-3h-9l-20 -11l-20 -3l-13 -8l-8 11q-6 12 -8 25l10 14v7q2 4 17.5 5.5t27.5 7.5q12 -2 14 -2q5 0 9 4l9 -4l10 2q6 0 9 -6h48l29 -1l33 -6
q7 -2 15 -10l7 7h4q11 0 11 -4q0 -1 -1 -3h14l23 -7l22 -2l3 -6h27l21 -14l18 -2l5 -8h5q25 0 36 -20l13 7v-12l10 -4l15 -11h12l9 -14l32 -21v-11z" />
    <glyph glyph-name="Q" unicode="Q" horiz-adv-x="714" 
d="M807 30q0 -7 -7 -14l-18 -6l-14 -11l-7 3l-36 -11l-11 -14l-7 1l-1 -3l-9 2l-9 -7h-11l-48 -18q-1 7 -14 7l-20 -7l-14 7l-12 -7l-16 2l-7 -7l-18 14l-6 -6l-17 10l-16 3l-13 10l-22 12l-12 20h-14l-12 15l-11 5l-5 15q-3 4 -14 6l-22 -14h-11l-14 -14l-13 2l-13 -9
l-13 2l-18 -9h-14l-21 -14l-17 7l-16 -7l-19 7l-10 -3l-31 8h-17l-10 11l-12 -2l-4 6l-5 15l-8 8l-26 32l-10 9l4 14l-10 16l4 25l-2 42l8 18q11 3 11 17q0 4 -1.5 12t-1.5 11q0 11 14 15l-5 4l7 2v17q18 10 18 43l-2 2l9 7v-6l6 4l4 18l25 32h-4l8 12q3 -6 4 -6q1 1 1 6
q0 3 -1 8t-1 7q0 5 10 5q4 0 7 -1q16 23 27 24l-2 8l7 3l1 -4l7 20l9 1l65 29l-7 -11l9 7l49 4q2 -6 6 -6q5 0 12 2l55 16l50 6q67 -6 85 -9q29 -6 31 -16h5q18 0 23 -13l5 -1v-6q3 -8 28 -35q19 -21 19 -50v-26q-5 -33 -6 -58l-15 -12q-3 -2 -10 -30l-10 -4l-4 -16l-12 -3
l3 -5q-8 -5 -16 -17l-7 -7l-12 -23l-11 -8l-5 -10l-29 -14l-16 -24l-10 -4l-6 -8l-17 -8l-24 -9l-9 -18l-5 -4v-16l32 -32v-7l6 -8l17 6l21 -15l38 -13l57 -3l9 7l5 -6l44 9h15l7 7l71 18l3 -2v7q16 0 16 12l24 4q1 -3 3 -5.5t2 -3.5zM634 353q0 42 -37 88q-8 8 -23 9
l-30 23l-62 11l-20 -7l-11 1q-4 2 -8 2q-2 0 -8 -2l-3 6l-16 -7l-16 3l-23 -9l-9 -9l-16 -1q-16 -8 -22 -14l-12 1l-14 -3l-11 2l-12 -15q-1 0 -3 1h-4q-13 0 -27 -22q0 4 -2 4q-3 0 -8 -6l-15 -11l-21 -33l-11 -34h-8l-8 16h-5q-24 -11 -27 -37v-8l-15 -15v-8
q-11 -12 -21 -42q-2 -18 -4 -24l-12 -28l2 -41l-9 -14l7 -9l8 -35l24 -25v-8l8 -5q4 -1 13 -1l36 -17q3 5 6 7q9 -8 16 -8h74v3l16 7l27 2l8 10q0 -4 2 -4q3 0 6 6q27 1 30 11q11 3 11 11v2h5l-22 41l-13 16l-3 16l-29 68q-3 7 -3 38q16 1 20 13q14 -8 20 -16l11 -52l9 -14
l7 -27l23 -30v-4q0 -28 14 -28q5 0 14 4l2 4h8l10 5l6 14l21 5l1 4q6 2 6 4q2 6 5 6q4 0 5 -3q5 3 5 8q0 2 -1 5h10l7 15h8l14 9q6 2 9 7l2 11l12 5l2 9q1 5 9.5 9t8.5 9v2q9 4 10 14t5 10h2q1 -1 2 -1l-2 3h3q8 0 8 13q5 3 5 9l9 9v7q14 27 14 59z" />
    <glyph glyph-name="R" unicode="R" horiz-adv-x="737" 
d="M772 53q0 -3 -30 -28l-11 4l-13 -20l-16 -2l-15 -7l-29 7l-16 -7l-5 -9q-14 11 -18 11q-2 -1 -2 -3l-5 1l-9 -9l-9 11l-7 -3q-9 7 -16 7h-32l-9 10l-11 -2l-16 9l-10 -5l-7 12h-15l-9 11h-12q-1 0 -6 7.5t-14 12.5l-30 16q-14 7 -19 12q-12 11 -22 32h-12l-16 20l-29 23
l-33 38l-9 3l-18 19l-18 6q-7 -4 -12 -4t-10 4v-1q0 -1 -2 -1h-10l-10 14l5 7l2 13l12 4v6l13 3q6 5 12 5q4 0 8.5 -2.5t5.5 -2.5q2 0 3 3q6 -18 42 -18q17 0 42 3l9 3v3l75 3l14 7l18 4l23 2l6 -2l17 6l4 6l12 -1l15 6h11q12 0 12 9v4q6 1 12 4l16 5q22 12 22 28
q0 11 -11 22l-33 32h-8q-13 8 -29 14h-10l-20 9h-12l-13 10h-23l-9 4l-55 4l-9 5l-6 -3l-11 3l-11 -3l-29 3l-30 -5l-16 5l-18 -2l-16 2l-12 -5l-9 3l-18 -11l-14 2l-7 -14l-8 -11l6 -14l-3 -58l7 -50l-7 -23l-4 -20l-7 -128l8 -73l-6 -39v-10q0 -8 -19 -8h-4l5 39l-5 15
l-9 41l6 4q-12 15 -12 20q1 4 3 11l8 9l-8 16h-1q-1 0 -2 1q0 6 12 28q-7 7 -7 19q0 7 3 16v8q7 13 7 21q0 9 -7 23l7 17l-3 15l6 5q-3 5 -3 10q0 7 7 24l-10 -2l-6 27l5 19l-5 41l5 5q-16 16 -24 16h-3l-7 -7l-23 2l-15 -19q-10 9 -19 10q-7 8 -8 16q0 9 7 16l16 11l30 3
l41 2l9 7v3q0 15 23 15h12l4 -12q6 -9 14 -9q3 0 5 1l16 8l25 -6l39 6l52 -6l73 -2l37 -7h28l11 -9q2 6 6 6t10 -6q0 -7 4 -12l10 -2v13l40 -16l14 -11l2 3l10 -5l16 -2l7 -8l9 -2l13 -20q20 -31 20 -39q0 -15 -11 -26l-22 -22l-16 -18l-21 -1l-14 -7l-4 -8h-28l-10 -9
l-22 -7q-14 0 -32 -9l-13 -12l-16 11l-14 -7q-4 3 -8 3q-6 0 -15 -9l-14 6l-13 -6l-5 6l-18 -10l-12 2q-2 0 -6 1h-6q-7 0 -15 -2l10 -14l24 -21l7 -12l39 -30l9 -16l9 -10l10 -24l27 -1l30 -31l16 -7l22 -14l21 -6l30 -12l11 2l5 -4l2 2l4 -7l14 3l3 -10l11 7l12 -3l34 3
l14 -3l48 8l36 10l2 -6l7 12h15l6 14q4 -9 4 -14z" />
    <glyph glyph-name="S" unicode="S" horiz-adv-x="720" 
d="M663 106q0 -9 -12 -24q-13 -18 -30 -25q-3 -6 -12 -6h-3q-14 -14 -35 -14q-7 -8 -18 -14l-21 2l-18 -16l-8 5l-13 -4l-18 -1l-5 -3l-31 3l-16 -7l-14 -2l-27 2l-19 -9l-11 2q-3 3 -6 3q-5 0 -8 -5h-32l-9 6l-7 -6l-48 2l-23 4q-10 -5 -16 -5q-10 0 -28 13l-17 -7l-5 6
h-11q-17 0 -35 6t-21 6q-2 0 -6 -2l-35 25l-22 6q-23 29 -23 46q0 5 7 28h4q2 -1 3 -1q9 0 12 12l15 2l-7 3l11 1q8 10 12 10q11 0 11 -18q-14 -3 -23 -14q0 -1 -19 -16l3 -6v-17l16 -10l14 -16l18 -3l14 -9l18 2l-2 6l27 -2l-6 -4l22 -4l3 -5h46v-3q7 5 14 5q3 0 15 -4
l16 -1l2 -6l14 -1h15l10 -4l-4 4q14 6 22 6q5 0 10 -5q9 6 21 6q11 0 24 -4q6 5 14 5t15 -5l36 10l7 10l31 -4l25 6l-4 1q3 1 34 3q3 3 5 3q6 -1 7 -1l25 11l5 -2v5h17v2q0 9 16 9h7l4 4l-3 4q8 8 12 8q11 0 11 8q13 20 13 26q0 23 -77 55l-44 18q-11 0 -14 1q-7 0 -34 11
q-14 11 -34 11q-12 0 -19 -2l-6 8l-14 -6l-11 13l-16 -4l-28 14h-18l-12 9h-16l-7 10l-2 -5h-11l-14 17l-23 1q-24 1 -39 16l-11 -3l-7 16l-16 17l-11 27l-9 13l4 30l16 21q9 4 14 18q15 10 23 11q3 -4 6 -4l10 14l4 -7l2 7l37 13l-11 2h5q4 -1 5 -1q17 0 21 11q23 0 51 7
l-5 4q3 2 9 2q7 0 10 -2l-3 3h4q3 -1 4 -1q10 0 13 9h5q4 0 8 1h4q3 0 3 -1v-4q7 5 13 5h6l37 4l22 2l3 -6v7l13 8q6 -10 20 -10h5q23 0 32 -5l-7 -1q28 0 50 -11q40 -10 40 -38q0 -19 -25 -23l-4 9q-11 3 -33 11h-14l-11 14l-21 -3l-7 7l-9 -11l-14 11l-30 -4l-34 9l-9 -5
q-32 -2 -38 -6q-2 1 -7 1q-7 0 -14 -8l-23 -2l-62 -23l-16 4l-23 -18h-13l-10 -14l-25 -18q-4 -2 -4 -4v-1l4 -14l2 -13l10 -5l5 -10l15 -4l16 -11l23 -9l2 -5h23l30 -20l12 4q11 -4 25 -13q11 -7 16 -7q4 0 11 4v-7l34 -3l10 -6v3h7l15 -10q27 0 37 -6q6 1 15 1q12 0 22 -9
t14 -9h2l11 3l7 -3h14l27 -20l27 -4l8 -12l34 -27q15 -12 15 -46q0 -2 1 -7v-8z" />
    <glyph glyph-name="T" unicode="T" horiz-adv-x="591" 
d="M655 484l-5 -11l-13 -2h-30l-14 -3l-12 3l-62 -5l-21 5q-9 -4 -37 -10h-30l-18 7q0 -5 -8 -6t-24.5 -5t-25.5 -4l-20 8l-17 -8l-2 -6h-9l-5 -10l-4 -65l4 -9l-2 -11l1 -29l-3 -29v-9q0 -7 -5 -13l-2 -12l8 -13l-2 -16l-7 -5q0 -6 6 -15l-6 -10v-11l-8 -12l5 -28l-2 -41
l-7 -26q2 -4 2 -6t-1.5 -5.5t-1.5 -5.5q0 -1 1 -4t1 -5q0 -4 -4.5 -12t-4.5 -12q0 -1 1 -1v-2l3 -14q-5 -13 -5 -20q0 -6 2 -22q-5 0 -10 1.5t-6 1.5q-8 0 -8 29q2 14 2 15q0 8 -2 24t-2 23q0 11 2 16l4 54l-6 10q-2 3 -2 5q0 6 5 9q-4 5 -4 9q0 3 6 6q-4 10 -4 13
q0 -6 7 25q-1 4 -1 16q3 7 9 22q-8 0 -8 13q0 23 6 26v41l-6 20l6 42l-6 30l6 23q-4 14 -14 14q-5 0 -9 -5l-22 -2l-8 -5l-12 1l-12 -1v-3h-8q-16 0 -27 6l-2 -6l-21 6l-58 2l-23 -7q-26 23 -26 30q0 2 4 16h16l71 -14l17 6l47 -2l44 -4l29 11h8l8 23l14 -4l3 -10l6 3l9 -10
l14 -7l16 5l18 -4l10 -9l6 8q38 7 37 7l23 -2q10 -4 18 -4h5q9 3 15 3q3 0 7.5 -1t6.5 -1q5 0 6 3l20 3l23 -5q4 -4 7 -4q1 0 3 1h2l14 4l18 -3l50 1l22 -4h21z" />
    <glyph glyph-name="U" unicode="U" horiz-adv-x="713" 
d="M733 -9l-3 -23l-26 -9l-3 -10l-14 5l-17 -11q-2 0 -6 -1h-5q-21 0 -32 10q-6 6 -12 11l-5 -4q-21 11 -34 34l4 2l-20 23l-7 27l-12 19l-7 26l-9 19l-15 92l-1 39l-6 13l-3 16q-1 1 -4 1t-5 -1l-21 -29l-20 -15l-3 -8l-15 -16l-14 -9l-16 -17q0 -10 -11 -13l-12 -14
l-16 -7l-14 -19l-77 -60l-34 -21l-20 -16l-22 -7l-2 -11l-4 -1l2 -4h-23l-7 -3l5 -4l-21 -2l-14 16l-7 5v18l-9 9l-10 61l-3 8l-3 40l6 20l-3 15l3 16l-4 52l-4 9q5 6 10 10.5t5 10.5l-7 9l4 21l-8 16v11l8 13l-4 19l7 30l-4 39l4 23l-4 4h7q0 11 5 12h3q0 1 -3 4
q29 -6 36 -34l-7 -11l-12 -60q-2 -10 -2 -17q0 -9 10 -31q-13 -63 -13 -95q0 -13 1 -19l7 -9l-3 -16l-1 -28l-7 -11l11 -9l-9 -7q-3 -7 -3 -14q0 -13 9 -30l6 -26q3 -13 9 -19h16l23 -1l2 6q6 2 7 2q3 0 5 -2v1q0 5 7 7l2 14l18 -4l7 15l16 7q3 9 11 9q3 0 9 -2l2 10l17 11
l11 3v8l11 2l5 5q12 0 18 21l28 15l4 12l7 -2l7 17l18 8l3 7l11 8v13l9 4l10 14l16 7l2 9h6l-4 4q6 11 17 11h3v12l7 3l22 43l3 11l5 16l4 23l9 18l3 17l2 27l5 13l10 8l15 -8q7 -10 21 -20l-5 -9l2 -18q-1 -12 -14 -12l-4 -4v-9l-7 -12v-18l-7 -19l2 -25q-10 -13 -10 -17
q0 -6 6 -11t7 -9l-6 -2l-6 -13l6 -16l-3 -31l9 -15h-3q-6 0 -6 -3l1.5 -6.5t2.5 -13.5q2 -10 2 -20q7 -7 7 -12q0 -2 -4 -5l7 -22q7 -33 25 -80l11 -16l3 -7l11 -15l28 -27l37 -8l4 8l10 -5q7 7 12 8q5 7 14 7q-2 0 18 -2z" />
    <glyph glyph-name="V" unicode="V" horiz-adv-x="632" 
d="M600 457l-3 -15l-10 -13l-7 -21l-10 -10l-12 -20q-8 -10 -10 -28q-3 -14 -17 -25q-6 -3 -6 -12q-3 -14 -23 -28l-8 -13l-24 -26l-14 -33l-19 -23l-12 -21l-8 -7l-11 -16l-35 -44l-16 -27l-21 -17l-2 -11l-10 -17l3 -35l-4 -12q-6 -6 -13 -6q-4 0 -6 1q-3 8 -14 25
q-4 7 -12 22l-10 25l-14 20l-7 16l-11 32l-11 19l-1 20l-16 40l-24 45l-26 41l-11 34l-15 8l-13 28l-9 8l-16 26q-17 27 -20 27h-1q-16 9 -33 32l-1 11l3 13l4 8l9 3q9 0 21 -4q3 -7 11 -7l4 -6l8 -18l11 -10l9 -14q7 -12 11.5 -18.5t16.5 -17.5l4 -14l9 -8l1 -12l18 -30
l1 -9l13 -21q12 -12 14 -27t13 -26l6 -15l6 -22l17 -27l-2 -13l8 -12l12 -37q11 -33 33 -50q5 1 10 8.5t7 9.5l10 10l12 9l14 17q16 13 25 36l7 6l4 9q1 -1 3 -1q6 0 18 31l14 15l6 17l10 12l11 18l13 12l12 15q7 3 15 32q7 8 7 12q0 1 -1 2q1 4 6 9t5 8v2q-1 0 -1 1l6 6
l4 16v8l8 8l6 16q8 8 8 15v3l4 20l8 15l1 15q17 9 17 15l8 -3q2 1 6 1q7 0 10 -9q9 -3 9 -22z" />
    <glyph glyph-name="W" unicode="W" horiz-adv-x="956" 
d="M953 497l-11 -19q6 -7 6 -11q0 -5 -6 -14q-7 -34 -16 -56l-10 -18l-10 -24l-12 -21v-3l-41 -55l-6 -22l-20 -23l-13 -30l-14 -5l-6 -13q-13 -10 -16 -23l-6 -14l-10 -9l-6 -12l-25 -35l-6 -19l-15 -18v-18l-9 -17l7 -41q-6 -6 -20 -9q-3 -3 -9 -3l-13 6l-13 38l-22 38
l-1 28l-20 18l-11 25q-5 15 -17 39q-4 18 -11 28l-11 16l-3 23l-10 7l-8 39l-16 36l2 7l-10 16q-9 14 -9 31v5q-7 -3 -15 -20l-11 -10q-8 -4 -33 -25v-1q0 -7 -8 -12l-16 -10q-13 0 -29 -22q-9 -12 -22 -22l-23 -30l-24 -38l-17 -13q-4 -7 -13 -21q-3 -16 -7 -16l-9 -3v-12
l-9 -4l-7 -20l-6 -9l-4 -14q-8 -4 -8 -10q0 -2 2 -5v-3q0 -9 6 -15l-7 -1l4 -10q-2 -6 -4 -9l-6 -4l2 -7v-5q0 -16 -12 -16q-5 0 -13 6l-27 39l-5 14l-28 50l-11 41l-18 36l-3 23l-12 23l-10 37v13l-25 82l4 13l-7 8l-8 21v18l-5 43l-7 10l6 16q6 8 6 16v4q3 16 11 16
q2 0 15 -5q16 -15 16 -36v-4l-3 -7l4 -5l-4 -16v-16l12 -85l-1 -9l11 -22l10 -64l6 -13l9 -42l7 -3v-13l7 -14l2 -21l6 -2l5 -27l7 -3l8 -17q7 -12 14 -13q4 10 13 28h8l17 21l6 18l10 11v9l3 5l18 12l4 18l22 23l7 16l14 6q1 22 20 25l3 9q14 0 14 5v3l7 9q5 11 12 12
q20 11 20 22v2l11 1l8 11l4 16h7l10 18h8q6 0 13 9v19l11 15l5 29q17 11 17 16q0 1 -1 3h16l14 -16l9 -4l2 -14l-3 -26l3 -31l25 -62l-2 -14l9 -16l3 -18l9 -6l11 -56l12 -24l3 -18l12 -11l17 -43q32 -57 36 -57v1q0 1 -1 3l4 29l13 9l2 11l5 5l14 8l9 19l3 14l12 14
q12 5 12 18v4l14 3l12 23l25 27l22 40l15 22l12 27l16 17l13 26l15 39l-6 7l10 21l-3 9l8 4v8l1 9l-9 9l2 16l7 13l-3 7h7l3 11q4 7 10 7q9 0 12 -6z" />
    <glyph glyph-name="X" unicode="X" horiz-adv-x="631" 
d="M613 31q0 -23 -41 -29l-20 7l-16 -3h-1q-1 0 -8.5 4t-16.5 4h-2q-25 0 -37 23q-1 -1 -3 -1q-4 0 -7 1l-13 5l-11 15l-16 10l-15 15l-19 24l-43 51l-21 33l-4 18l-11 10h-8q-11 -11 -23 -33l-9 -2l-38 -33l-21 -16l-12 -24l-70 -57l-13 -21l-26 -10l-10 -12l-12 -1
l-23 -26l-12 -5l-14 -10l-9 -3l-8 -11q-4 -6 -11 -9q-6 0 -6 7l15 13q3 2 13 19q12 1 13 16q29 10 38 35l8 4l6 -2l16 18q7 5 23 26l19 11l13 14q10 5 15 19l12 3l28 32v7l12 8l8 17l10 2l13 19l16 5l1 13l15 11v5q0 29 -32 63q-10 8 -15 19l-8 16l-16 14l-36 39l-8 13
l-15 17l-23 11q-42 27 -42 54v10l20 8l20 -2l14 -16h17v-7l15 -8l6 -17l16 -6l8 -16l16 -7v-18l34 -35l7 -20h7l12 -17l12 -29l14 -11l8 -14q13 17 30 29q12 9 12 11q0 1 -1 2l9 6v9l17 16q15 14 15 17l11 15l5 9l11 16l21 24l6 13q11 11 13 24l1 8l18 24l10 11l15 3
q16 -2 16 -31q0 5 -12 -24q-6 -7 -13 -25q-3 -6 -13 -18l-8 -5l-9 -11q-10 -3 -10 -11l-8 -13l-2 -12q-8 -3 -11 -12l-7 -4q-4 -2 -23 -33q-11 -5 -14 -13l-9 -14l-16 -16l-9 -14l-14 -9q-3 -4 -3 -9q0 -4 3 -9l12 -18l9 -23l7 -5l15 -21l23 -29l3 -16l29 -24l21 -23l20 -8
l21 -22h9l30 -12q5 -1 13 -1q13 0 19 6.5t8 6.5h1v9l23 -14q11 -11 11 -17z" />
    <glyph glyph-name="Y" unicode="Y" horiz-adv-x="659" 
d="M653 530l-8 -7v-16q-16 -3 -23 -12t-15 -11q-2 -11 -9 -11l-25 -22l-10 -17h-9q-10 -18 -16 -23q-11 -5 -20 -11l-21 -25l-23 -17l-14 -5l-10 -19l-20 -12l-15 -16l-10 -26l-35 -43l-13 -19l-10 -22l6 -11l-6 -16l5 -19l-7 -22l4 -26l7 -8q-12 -16 -12 -31.5t-4 -23.5
q3 -21 3 -33l-7 -47l1 -23l-4 -10l7 -36l-9 -15l6 -19l-6 -10q10 -17 10 -26v-3q-1 -1 -1 -2l-7 -23l6 -27l-10 -25l11 -16l-3 -36q-1 -17 -13 -21l-6 34l-8 30l-2 28l-7 4l5 12l-5 17l5 31l-7 33l3 28l-1 6l1 22l-4 47l4 22l-3 26l7 46l-9 17l4 20l-2 26l-5 14q8 14 8 26
q0 8 -5 20l-3 16l-7 24l-12 10l-9 14q-8 1 -14 9l-30 36l-15 9l-13 24l-38 38l-7 14l-19 24l-24 20v11l-19 14l-12 22q-3 5 -16 10q-29 16 -29 52l1 9h9q1 7 9 7q9 0 25 -5l5 -16l19 -8l16 -26l22 -16l1 -21q0 -8 15 -10l10 -16l15 -12l48 -72l-2 -8l11 -4l14 -19l50 -48
q5 -5 11 -14t9 -9q2 1 5 5l13 14l12 22q3 18 7 18h7q4 0 4 6v3q0 3 0.5 4.5t13.5 12.5v2q-1 0 -1 1q0 3 11 14l11 5l9 14v2q0 11 23 12q8 4 8 9q0 3 -1 5q18 3 24 13l14 16l7 14q26 28 31 28h2l13 18l14 10l4 15q3 -2 9 -2q9 0 9 15v1q0 4 15 7l-3 6l12 5h11l6 17l24 -3l7 3
l6 -13z" />
    <glyph glyph-name="Z" unicode="Z" horiz-adv-x="881" 
d="M812 127l-2 -22l-10 -32l-16 -39q-6 -5 -10 -17t-6 -15l-10 -3l-5 -11q-19 -5 -24 -18l-12 8l-11 -3l-8 6l-4 -11l-6 5l-12 -7q-10 7 -17 7t-15 -4q-1 5 -20 5q-3 0 -13 -1h-17l-27 13h-10l-3 -7l-13 10l-11 -7l-15 11l-45 4l-19 8l-10 -5l-33 9v1q0 3 -5 3q-7 0 -27 -5
l-7 6l-25 -2l-14 9l-46 6h-14l-41 10l-4 -2l-3 4l-15 -4l-13 4l-8 -9l-14 7l-20 2l-5 4l-11 -4l-6 6l-8 -6l-8 4l-12 -13l-28 -3l-25 -22l-9 3h-10l-3 8l-9 12v12l4 9q18 7 20 14l28 10q29 27 38 27l9 8l10 3l3 9h7q11 8 15 19l7 9h7l2 10q16 0 22 9t14 9h2q4 1 4 12
q7 0 13 4l18 23l27 13l2 16q13 11 24 17h6l21 27l12 2l14 11l4 10l11 4v7q4 4 8 4q2 0 5 -1.5t4 -1.5q2 0 4 5q0 11 13 15v7l7 -3l5 12l9 2l18 27l21 14l6 18l8 5l15 18h7l7 12h3l-3 5l10 4l-1 11l1 10h-30l-7 7q-6 -13 -19 -14l-7 7l-22 -3l-9 3l-7 -1h-16l-7 5l-16 -14
l-7 9l-5 1l-13 -1q-6 -1 -20 -1q-19 0 -30 2l-23 -9l-7 6l-11 -6l-16 8l-7 -2l-2 -4q-1 -3 -4 -3q-2 0 -4.5 3t-5.5 4l-7 -5l-7 7l-14 1l-8 -9l-19 8l-14 -6h-3q-16 0 -18 38l13 7q9 -1 24 -1q13 0 33 2l9 -4l24 6l51 -6l11 6l21 -1q-1 -1 -1 -2t3 -2t4 -4l8 6q9 -4 18 -4
t13 7q21 -4 63 -4l14 3l8 -4q20 2 28 2q11 0 16 -1l21 3l27 -3l26 4h5h7q3 -1 4 -1q3 0 4 2q8 8 15 8q1 4 3 4q3 0 11 -2q12 -12 15 -30l-4 -7l-27 -9l-7 -7l-16 -2q-5 -7 -5 -9q0 -3 5 -5l-12 -6l-19 -19l-20 -15l-6 -8l-17 -20l-8 -14l-16 -2l-7 -17l-16 -10v-6h-5
q-1 -8 -9 -11q-14 -3 -14 -11v-2l-6 -4v-7q-23 -11 -26 -17q-4 -10 -7 -13l-11 -3l-5 -13l-13 -6l-10 -10l-4 -7h-16q-15 -5 -21 -18q-10 -23 -14 -23l-18 -6v-8l-13 -9q-4 -1 -10 -5l-13 -5l-26 -37l-36 -22l-9 -16l-12 -6q-4 -5 -4 -10q0 -7 7 -7h14l40 1l46 -3
q7 -10 16 -10q2 0 10 2q13 -5 23 -5h4l13 8q4 -5 7 -15h9q16 2 23 2q24 0 37 -12l12 2l19 -6l6 4l9 -8l7 4q23 -1 55 -11l8 -4l68 -1l24 -7l44 -2l14 -6l46 4q32 12 36 23l11 9l15 31l5 33l6 8q10 19 19 19q11 0 14 -10z" />
    <glyph glyph-name="bracketleft" unicode="[" horiz-adv-x="400" 
d="M409 -81q-10 -6 -28 -8q-23 3 -34 11l-18 -5l-9 3l-14 -5q-1 0 -2 -1h-2q-9 0 -23 8q-1 -9 -14 -9h-16q-4 2 -6 2q-5 0 -12 -5l-14 -1l-17 -9l-11 -17l-22 8l-13 8q-27 -10 -33 -10q-8 0 -9 8l32 18l-2 23q8 9 8 22q0 23 -6 26l13 20l-4 17l4 6v16l-6 3l11 22l-4 19l6 13
v17l3 11l-3 20l2 8l-2 20q4 13 6 37q5 3 5 26q0 6 -2 22q-2 2 -2 6t5 18.5t7 27.5l7 53l-7 22l6 39l-4 28v9l7 9l-11 39q5 1 8 14l-4 13v37l-7 8l4 3l-4 9l2 5h-11l-5 7l-10 -7l-36 9l10 14q14 -2 18 -2q17 0 24 11l10 -1l3 -8h9l6 -4l17 8l10 -4l6 4q27 0 38 7l12 -3l13 10
l8 -4l9 4h16l18 3l5 -5v-3q-1 -2 -1 -3q0 -6 7 -15l-19 -3l-10 -8h-10q-6 0 -16 -5q-13 -3 -18 -3t-14 3h-3q-4 0 -12.5 -1.5t-12.5 -1.5q-9 0 -16 4l-17 -8l-16 5l6 -20v-13l8 -20l4 -18q2 -9 2 -12v-4l-4 -6l4 -3l1 -34l4 -25l-4 -17l4 -29l-4 -12l4 -27l-5 -14l3 -13
l-5 -5l3 -13l-5 -39l2 -30q-4 -4 -4 -8q0 -2 4 -10q-8 -29 -8 -39v-3l3 -27q-5 -17 -5 -30v-6q-4 -8 -4 -18v-37l-3 -17v-29l5 -19v-32q0 -48 12 -48l23 7l29 2l21 8l9 -3l25 3l8 6l4 -6l34 -1q7 7 15 7q2 0 10 -2q14 -8 14 -14v-7z" />
    <glyph glyph-name="backslash" unicode="\" horiz-adv-x="413" 
d="M411 -37l-7 -4q-10 3 -10 16l-8 7l-9 18l2 10l-11 8l2 7l-14 8l-6 12l-14 18l-5 9l-16 16v12l-23 36l-9 3l-4 13l-25 32l-3 9l-14 1v16l-4 12l-55 74l-5 16l-41 51q-1 11 -9 17l-11 10l-14 23l-12 15l-6 18l-28 36l-16 29q-12 21 -23 34q-14 9 -14 16v3q0 3 2 11l12 3
l9 7l25 -3l1 -16l13 -7q-3 -1 -3 -4q0 -4 12 -10v-23l8 -16v-11l11 -3l-3 -12l23 -25q-1 -3 -1 -9q0 -19 18 -22q9 -9 9 -18q0 -28 20 -30l9 -16l15 -14l8 -14l2 -14l14 -19l10 -2l2 -17l13 -5v-11l16 -14l5 -16h9l9 -20v-14l16 -32l6 -3l5 -13l16 -22v-8l15 -10l9 -31l6 3
q7 -7 8 -19l18 -23q11 -6 12.5 -8.5t2.5 -15.5l23 -36z" />
    <glyph glyph-name="bracketright" unicode="]" horiz-adv-x="400" 
d="M288 633l-32 -18l2 -23q-9 -10 -9 -27q0 -16 7 -21l-13 -20l4 -18l-4 -5v-16l6 -3l-11 -22l4 -19l-6 -13v-18l-3 -10l3 -20l-2 -9l2 -19q-6 -25 -6 -38q-5 -4 -5 -33q0 -3 2 -15q3 -4 3 -7q0 -1 -5.5 -15.5t-7.5 -29.5l-7 -52l7 -22l-6 -39l4 -28v-10l-7 -9l11 -39
q-5 -1 -8 -13l4 -13v-38l7 -7l-4 -3l4 -9l-2 -5h11l5 -8l10 8l36 -9l-10 -15q-16 2 -20 2q-15 0 -22 -10l-10 1l-3 7h-9l-6 4l-17 -7l-10 3l-6 -3q-25 0 -38 -7l-12 3l-13 -10l-8 4l-9 -4h-16l-18 -3l-5 5q1 2 1 6q0 8 -7 15l18 3l11 8l10 -1q6 0 16 6q11 3 20 3q8 0 12 -3
h4q4 0 12.5 1.5t12.5 1.5q7 0 15 -5l17 9l16 -5l-6 20v13l-8 20l-4 18q-3 6 -3 10q1 6 1 5l4 6l-4 3l-1 35l-4 25l4 16l-4 29l4 13l-4 26l5 15l-3 13l5 4l-3 13l5 39l-2 31q4 4 4 8q0 5 -4 9q8 29 8 40v3l-3 27q5 15 5 35q4 8 4 18v37l3 17v30l-5 19v32q0 47 -12 48l-23 -7
l-29 -2l-21 -8l-9 3l-25 -3l-8 -6l-4 6l-34 1q-7 -7 -15 -7q-2 0 -10 2q-13 6 -13 14v7l-8 7q7 4 28 7q23 -3 34 -10l18 5l9 -3l14 5q1 0 2 1h2q9 0 23 -8q0 9 14 9h19q6 0 15 3l14 1l17 9l11 17l22 -9l13 -7q23 9 33 9q8 0 9 -7z" />
    <glyph glyph-name="asciicircum" unicode="^" horiz-adv-x="1000" 
d="M797 438h-41l-257 227l-259 -227h-39l261 276h74z" />
    <glyph glyph-name="underscore" unicode="_" horiz-adv-x="400" 
d="M400 -145h-400v39h400v-39z" />
    <glyph glyph-name="grave" unicode="`" 
d="M306 496l-7 -12l-13 4l-9 10h-9l-2 9l-7 -1l-3 4q-3 4 -11 8l-17 2l-8 13l-6 2l-2 12q-12 3 -18 14q-19 8 -20 26h-8l-10 11h-4q-3 0 -8 11t-13 18l-7 -2v6l4 5l6 13l14 6l6 7l8 -4l9 -3l7 -14l20 -25l10 -22l11 -11l7 -17l14 -7l7 -12l14 -8l4 -6l6 -3l10 -12
q17 -6 18 -22h7z" />
    <glyph glyph-name="a" unicode="a" horiz-adv-x="495" 
d="M407 9l-14 -7l-3 -9l-8 -2l-7 -3l-5 3l-7 -3l-16 19v22l-7 6l2 31l-6 64l4 21l-7 11l9 5l-6 9l2 9l5 4l-1 12h5v20l2 10l-4 2l-5 7l-16 -7l-6 -11l-7 -5l-1 -11l-11 -5l-2 -14l-7 -5v-7l-9 -8l-5 -10l-7 -4l-15 -27l-24 -24l-8 -13l-21 -22l-5 -12l-29 -20l-32 -38
l-16 -4l-10 -9h-3q-8 0 -13 16q-37 15 -40 42l8 5l-6 19l-2 20l-5 4l5 8l4 27l7 37q-1 2 -1 7t3 11q-2 8 -2 11q0 4 2 10l4 1q8 11 8 19q0 5 -3 8t-3 4q0 3 5 5q-7 1 -7 6t10 5v2q0 10 6 20t7 12l-7 2l13 21v5q0 21 14 36l-1 18l4 3q-3 5 -3 10q0 3 6 3v16q5 2 5 5t-1 5
q11 11 28 36h3q11 0 11 5q-1 3 -3 5q20 0 21 8l18 9l52 -4v-4l42 -9h4q9 0 9 -8l5 2q3 -9 11 -9q6 1 5 1l9 -9l21 -5v-9l15 9l21 7v-16h-5l10 -5l-2 -2l8 -25l-9 -10l-6 -25l-7 -12l6 -13q-10 -20 -10 -30q3 -1 3 -5q0 -2 -2 -8l1 -7l-3 -11l2 -9l-6 -7l2 -22l-3 -3l3 -4
l-3 -3q1 -1 1 -4q0 -4 -3 -9l3 -6l-5 -9q-4 -3 -4 -14l4 -13l-9 -12q5 -10 9 -13l-7 -13l-5 -26l8 -2l-1 -5q1 -2 1 -7q0 -8 -7 -20h6l3 -15l20 -2l7 -13q-3 -1 -3 -3q0 -4 10 -10h-1q-1 0 -2 -1q0 -3 8 -9zM356 368l-4 9l-2 9l-16 5l-28 25q-6 4 -10 4q-2 0 -8 -2l-5 5h-16
l-5 6l-11 -4l-5 4l-8 -2q-12 2 -16 2q-10 0 -19 -4l-16 -7l2 -4l-9 -3l-2 -4l-11 -1v-6q-10 -6 -23 -32l-7 -26l-11 -25l8 -4l-13 -11l4 -8q-9 -13 -9 -31v-5l-7 -11v-17l-7 -9l-2 -9l-4 -4v-18l-3 -5q0 -9 -4 -27l5 -12q-6 -2 -14 -12l4 -8l-6 -8l8 -20l-9 -12l1 -24
l-3 -11l5 -3l2 -7l8 -4l6 -7l23 5q6 15 22 16l-2 7l16 4q0 5 11 16h2q3 0 3 4l18 21h-4l16 15l11 4l7 19q11 5 18 12l3 9h6l10 13l-2 8l9 2q-2 4 -2 5q0 5 6 9q5 10 12 18l4 -2q1 12 11 18q3 12 16 17h7l1 12q2 2 2 4q0 3 -3 6l8 13l6 5l2 11l7 5l-2 9l5 9l2 9l9 9z" />
    <glyph glyph-name="b" unicode="b" horiz-adv-x="465" 
d="M401 151l-7 -9l2 -24l-21 -29v-12l-13 -15l5 -9l-10 -11l-11 -20l-20 -12q-6 -10 -16 -10l-12 -3l-2 -6l-3 4l-9 -4l-6 4q-6 0 -14 -5l2 -4l-14 2l-4 -5l-7 5l-18 -10l-9 10l-20 -2q-3 0 -29 9l-7 4l-6 7l-12 4l-6 19q-1 7 -14 10l-9 -4l-14 6l-15 34l3 8l-6 11v19l-4 8
l4 16l-7 9l3 11v32l4 10l2 64l4 25l-4 4l7 23l-3 14v14l5 7l-2 25l-3 7l9 32l-6 34l6 4l-4 12v18q0 6 -2 30l3 9l-4 18l4 2q-5 3 -5 6q0 1 2.5 5.5t2.5 8.5v3l-4 9q2 8 2 13q0 11 -8 22q0 7 6 7l-6 15l4 12l-8 20l11 1l-1 9l7 4l4 -6l3 -12l10 -8l-7 -6l13 -16l-6 -9l-7 -2
q8 -8 8 -9q0 -4 -4 -5l5 -7l-5 -4l9 -7q-4 -4 -4 -10q0 -4 4 -8l5 -12l-4 -11l4 -3l-5 -2q5 -7 5 -10q0 -5 -8 -11l10 -2l-2 -11q0 -8 -9 -30q5 -2 7 -18l-3 -12l3 -9l-3 -13q-2 -9 -6 -28l9 -13l-9 -17l3 -15l-3 -10l6 -9l-9 -9l3 -7l-1 -9l1 -5l-3 -9l5 -9l-5 -7l5 -10
l-5 -4q3 -7 3 -12q0 -6 -7 -12l6 -5l-2 -15v-40q8 -8 9 -8q7 0 7 15v4q8 6 16 21v7l5 5l2 18l6 10l-1 19l6 1l1 6l3 -2l3 14l7 14v6l6 12l-1 9l9 13l7 3v7q8 5 9 16l11 13l5 -2v5l5 4l2 10l11 15q-4 2 -4 5t5 4l2 5l6 2l12 8l5 15h6l-2 5q10 7 28 7l-8 2l10 5h4l-4 4l6 2
l-2 3h10l-1 -3l25 -4l8 -14l2 -22l9 -1l2 -14l9 -8v-12l3 -5l-1 -9l12 -6l2 -19v-4q0 -10 12 -30q-3 -9 -7 -12q5 -6 9 -6t7 2q0 -11 -9 -16l6 -41q3 -1 3 -5q0 -1 -2 -9l-1 -53l3 -9l-3 -16zM378 224l-3 22v17l-8 52l-9 37l-14 34l-23 39q-2 5 -8 11l-15 -4l-7 2l-7 -9
l-13 -3v-13q0 1 -10 -4q-6 -3 -9 -14q-13 -12 -20 -25l-7 -7h-5l-6 -23l-8 -12l-13 -32q0 -18 -9 -30l-10 -18l1 -16l-14 -20l-8 -33l-10 -8q1 -1 1 -2t-1 -3q2 -5 2 -16q0 -14 -5 -24l-7 -3l4 -16l-8 -3l1 -10l-3 -8q-9 -6 -9 -11t6 -5q-4 -4 -4 -7q0 -2 4 -6l21 9l14 -1
q0 -3 2 -3h1q12 0 13 -8l2 5l1 -8l10 -2l5 -3v-13l7 -4l9 -9h34l28 7l2 6l6 -4l12 9l18 5l-2 6h9v5h3q6 0 9 8t6 17l28 31v13l11 23v28l3 29l-1 14z" />
    <glyph glyph-name="c" unicode="c" horiz-adv-x="412" 
d="M382 159l-16 -17q-1 -25 -16 -37q-19 -48 -60 -66l-13 -12l-12 -2l-15 -12l-11 -1l-23 -17l-8 5l-21 -10l-20 5l-6 -7l-12 2l-12 -2l-3 3l-22 4l-22 18l-15 22q-10 11 -10 27v4l-11 17v15l-4 6l2 20l-4 16l6 16l-4 7l10 16l-3 21l6 21l6 8l1 23l7 6l-3 6l7 10l2 13l8 23
l11 27l17 17l5 12l8 14l2 10l8 12q10 0 20 8q1 17 30 17q32 -6 38 -21q15 0 15 -11l29 -1l1 -9l6 -7l-1 -12l7 -9l-1 -13l2 -7l-2 -20l5 -7v-10l3 -21l-20 -11l-21 25l-2 32l-4 12v12l-17 21l-17 11l-14 -6h-12q-23 -3 -38 -28q-21 -33 -27 -37l-1 -14l-8 -7v-20l-10 -13
l-4 -14q-4 -17 -13 -37l1 -16l-9 -21l2 -15l-4 -1l-1 -38l-2 -1l2 -9l-4 -4l17 -20l3 -13l-3 -3l10 -14l8 -3l1 -10l32 -7l21 -5q7 7 13 7q2 0 10 -2q9 6 14 6h4q2 -1 3 -1q8 4 26 9q9 17 21 17q5 0 8 -1q25 11 25 19q6 11 21 11h4q18 19 39 49q11 10 17 28l9 6l1 13
q7 -6 7 -27z" />
    <glyph glyph-name="d" unicode="d" horiz-adv-x="547" 
d="M475 47l-8 -25l-7 -12q-6 -11 -12 -15q-9 3 -16 11l-18 28l-7 16l-4 17l-9 29v45l-3 39l3 22l-3 19v28l-9 13l-4 -8l-8 -1l-15 -35l-18 -26h-8l-4 -16l-14 -25l-27 -30l-21 -31l-23 -24q-8 -13 -18 -25l-20 -16l-10 -15l-20 -7l-9 -10l-17 -3l-15 -9l-9 2l-3 -6l-11 1
l-32 24q-7 11 -12 32q-3 14 -11 16l-5 -2l10 16l-5 16l4 13l-2 19l7 30v28l7 10v25l6 12l1 11l4 3v18l9 16l1 14l6 9l3 11l4 25l5 16l7 7l2 16l7 11q4 6 4 12l14 14l11 7l-2 4q6 2 7 5q2 -1 6 -1t6 1l-5 2l43 12q25 3 25 5v1l16 1l9 -5l5 2q2 -5 8 -5q1 0 4 1l16 -1v-4l4 2
l15 -13l15 4l9 -16l19 -16l6 -12l16 -9q8 -8 12 -8q3 0 4 4l7 34l8 18l-3 26l4 47l-4 12l6 9l1 12l-4 9l3 27l-3 28l4 6l-4 3q5 5 5 8q0 2 -2 6q3 8 3 14q0 8 -3 15h5q-2 4 -2 9q0 6 10 12l-4 2q-2 0 5 1q5 0 7 -8q8 -2 9 -13h-5l1 -16l-1 -9h-6l11 -12l-4 -14l7 -16l-5 -7
q5 -12 5 -18t-3 -12l8 -6q-5 -3 -5 -6q0 -5 8 -8v-3q0 -6 -8 -11v-9q0 -24 -8 -84q1 -2 1 -7q0 -7 -5 -19l4 -9l-6 -23l-3 -29l-6 -12l3 -11l-6 -18l6 -14l-8 -31l5 -24l-3 -14l2 -13l-6 -3q10 -16 10 -17q0 -4 -6 -6l2 -6l-2 -3l7 -7l-5 -16l7 -22l-3 -7l3 -7l-6 -18l5 -5
h8l7 -9l14 4l5 -8zM380 320l-6 2l-10 9l-9 5q-4 11 -21 32q-5 2 -9 6v7l-15 3l-19 11l-28 7l-30 -4l-9 -5l-9 7l-16 -5h-20l-3 -9l-6 -2q0 -9 4 -10q-6 -9 -25 -22l-7 -18l-9 -5l-9 -27l-3 -30l-9 -9v-17l-7 -6l-4 -10l2 -24l-16 -31l-4 -22l-1 -34l3 -7l-7 -14l5 -8l-8 -17
l8 -16l6 -20l9 -5l-2 -6h10q11 -7 12 -7l5 5t15 5v-4q7 5 8 9q8 0 8 7l9 4l4 -3l3 11l20 8l2 9l14 8v5l11 11h2q0 -1 1 -1q4 0 4 7h7v6l16 7l-4 15l11 7l-7 7q2 -1 6 -1q5 0 12 5l1 4l11 1l11 29l10 10l4 18l12 4l13 21l9 9v14l9 4l25 50z" />
    <glyph glyph-name="e" unicode="e" horiz-adv-x="359" 
d="M327 73q0 -4 -8 -15q-10 -14 -15 -28l-7 -1l-11 -21l-12 -2l-27 -18l-5 -11l-8 1l-9 -10h-14l-3 -5h-3q-3 1 -4 1q-11 0 -19 -10l-6 5l-9 -4q-3 -1 -8 -1q-11 0 -18 5q-5 -1 -13 -1l-6 5q-27 1 -36 15v12l-16 9l-6 15l-9 8v8l-11 47l2 34l4 19v21l5 18l-2 13q4 8 9 19
l4 7l-2 10l-2 15l9 7l-9 10l5 8q2 4 2 6q0 5 -5 30q0 11 3 21q6 -9 13 -9q3 0 19 4q-1 3 -1 7q0 7 8 12q8 24 22 46q9 8 9 20h5l5 10l6 2q2 7 10 15q10 3 16 10l11 13q2 -1 8 -1q2 0 4 4l4 7l18 6q5 0 9 -6l9 2l5 -4h6q6 -16 20 -16h3q1 -7 6 -10l-4 -2q15 -8 17 -39l-3 -11
l3 -28l-5 -4l-11 -30l-20 -25l-1 -14q-37 -30 -59 -40q-1 -6 -6 -6q-2 0 -8 2l-22 -15h-13l-19 -9l-12 7l-17 2q-15 -15 -15 -37l-7 -8l-2 -17l-3 -9l-5 -3q2 -10 5 -36l-5 -5l1 -11l-1 -14q3 -33 10 -36q1 -16 16 -20l7 -6l12 -4v-6l26 -4l37 -2l25 3l13 9l9 4l8 12h9l1 5
l20 7q6 3 7.5 8.5t7.5 5.5l3 6q21 4 27 29q5 4 12 4q7 -11 7 -17zM270 382q-2 14 -7 29l-20 7q-8 -2 -10 -2t-6 2q-7 0 -10 -9q-9 0 -27 -7l-3 -7q-2 1 -4 1q-7 0 -12 -18l-13 -15l-14 -27l-10 -9q-1 -9 -12 -29.5t-17 -27.5l7 -4l3 -8l17 -5q14 10 30 13l3 6q6 -2 8 -2
q5 0 9 6l12 2l7 12h7l5 11q13 0 25 12v5l5 2l8 10l3 12l12 20q4 11 4 20z" />
    <glyph glyph-name="f" unicode="f" horiz-adv-x="394" 
d="M461 611q0 -7 -6 -13l-4 4l-9 -6l-8 19l-7 21q-3 8 -10 15t-9 7q-3 -1 -4 -3l-3 -2l-12 7l-16 2l-11 -8q-8 4 -16 4t-11 -2l-13 -1q-4 -7 -4 -13q-3 -4 -4 -4t-2.5 2t-2.5 2q-7 0 -40 -60q-1 -12 -8 -34l-5 -1l-6 -20l-8 -17l8 -20l-12 -5l-4 -23l-6 -11l1 -16l-14 -37
l2 -19q-3 -14 -7.5 -20.5t-4.5 -19.5q0 -17 16 -17h6q8 6 15 6h4q5 0 15 2q1 1 4 1q2 0 10 -1t14 -1h8l12 4q4 0 21 -7l22 5l5 -2t10 -2q8 0 13 2q5 -7 9 -7q8 5 13 5q3 0 3 -5q0 -2 -2 -12l-28 -9l-30 6l-8 -6l-16 -3l-6 6q-2 2 -7 2q-3 0 -20 -12q-3 0 -18 3l-3 -5l-15 -7
l-11 6l-7 -1h-8q-5 -6 -24 -14l-11 -13l3 -13l-4 -16l4 -16l-11 -24l3 -42l-6 -16l3 -14l-9 -24l5 -23l-3.5 -13t-3.5 -27v-14q-1 -9 -1 -12q0 -14 7 -21l-4 -13l6 -23l-4 -15l11 -54l3 -60l16 -22l-7 -5l-3 -15q12 -17 12 -30v-5q3 -11 3 -17q0 -13 -12 -14l-5 11l-8 5
l-1 11l-20 58v15l-7 8l6 10l-5 22l4 17l-4 15l-1 20l-7 52l4 2l-5 25l2 18l-5 9l4 7l-1 53l4 5v41l4 9l-2 34l2 10l9 67l3 12t2 12l-9 20l-16 -7l-15 5l-10 -6l-11 7l-3 -4l-16 -3l-17 4l-28 -5l-15 3l-4 -3q-28 9 -30 18l-3 11l5 15q2 6 9 6q4 0 18 -4l3 -7l32 4l40 -3
l28 7l20 -1q7 0 19 -7q0 4 12 8l-3 9l5 20l2 28l6 15l-4 25l7 18v5l9 9l5 33l6 8l-3 15q8 13 11 24q-1 2 -1 5q0 -7 12 39q8 9 8 17q0 3 -1 5v3q0 7 8 12q-1 2 -3 5q0 4 9 10l9 14l8 19q8 1 16 23l15 5h13l7 9l18 -6l10 5l16 3l20 -4q12 -4 13 -4q4 0 14 4q4 -3 9 -15
l15 -10l9 -19l12 -14l3 -22v-3z" />
    <glyph glyph-name="g" unicode="g" horiz-adv-x="579" 
d="M492 125l-8 -38l2 -9l-4 -5q6 -10 6 -21q0 -4 -2 -10q1 -8 1 -20q0 -17 -4 -43q-5 -35 -6 -43l-2 -21l-10 -21h5l-2 -15l-9 -11l-6 -18q-2 -11 -8 -19q-4 -11 -21 -33l-16 -13l-17 -15l-15 -7l-10 -8l-8 -2l-5 -6l-15 -3q-20 -4 -21 -4h-2l-2 -3q-13 -6 -32 -6h-36l-26 6
l-16 -3l-7 6l-29 4l-17 16l-20 11q-26 11 -32 32l4 5l-4 18q4 5 9 5q3 4 6 4q1 0 12 -2t23 -3l-1 -10l6 -1l8 -5q0 -5 -4 -13q0 -12 9 -13q0 -9 9 -9l42 -14l11 2l2 -4h22q8 0 17 -3q7 7 53 11q8 2 16 8q18 2 22 8h3q16 0 24 16l27 27l19 29l1 13l11 16l2 15l5 12l6 30l8 29
l-1 21v8q0 22 7 36l-6 22v52l-7 19v30l-9 21l2 34l-12 37q-3 3 -7 3q-6 0 -13 -10l2 -10l-14 -6l-7 -19l-13 -13l-18 -29l-24 -17l-28 -32q-34 -31 -55 -44l-10 -15l-11 -7l-16 -7l-13 -14l-17 -9q-4 -7 -13 -7h-3q-20 -17 -44 -17q-9 0 -14 1l-8 -5l-7 3l-14 2l-19 20
l-16 23l-6 17l-6 39l2 25l11 38l-1 12l7 28l9 20q4 15 4 34l20 39q0 1 12 14l11 19l11 12q8 18 13 21q12 7 16 25q4 5 22 9q14 3 20 19l7 -2l18 13q9 11 18 11q2 0 8 -2l29 11l19 -4h13l10 -7h6q3 -7 15 -16q3 -6 7 -7l16 -18l-1 -13l-5 -10h-16l-13 21l-16 7l-5 6l-5 -2
l-12 5q-2 1 -9 1q-17 0 -34 -13l-7 1l-2 -7h-9l-13 -3q-6 -14 -17 -14q-12 -12 -19 -16l-6 -13l-9 -2l-1 -7h-9l-16 -28l-13 -9l-6 -18l-16 -25l-1 -19l-11 -12l-11 -45l-10 -11l1 -18l-12 -41l4 -14l-2 -19q4 -4 7.5 -15t10.5 -14l3 -10l9 -3l4 -3q8 3 14 3q6 -2 10 -2
q2 0 12 2q7 8 48 13q5 6 19 23q15 11 37 23q18 5 18 19q14 7 17 8q7 5 10 13l11 3l15 14l15 22l6 -4l4 9l11 4q-1 2 -1 5q0 6 6 12q12 0 15 14l19 25h4l3 20q6 5 27 64l7 2l-5 16l-6 25l-14 23l6 16l-4 18l4 7q5 3 7 3q4 0 8 -3l8 -15l10 -5l-1 -18q7 -15 7 -29q7 -15 7 -22
q0 -4 -3 -4l5 -14l8 -12l-3 -20l9 -12q2 -4 2 -6q0 -6 -6 -12l2 -13l7 -3l-3 -13l4 -26q5 -11 5 -22l-2 -4q-2 -8 -2 -21l7 -5z" />
    <glyph glyph-name="h" unicode="h" horiz-adv-x="513" 
d="M435 -7q0 -23 -22 -23q-14 0 -20 25l-7 31v9q1 7 1 17q0 9 -3 15l-7 11l7 16l-4 24l4 12v16l2 14l-4 16l4 9v37l1 48l-7 32l4 13l-9 38v12l-16 7l-22 -20l-23 -10l-28 -40l-11 -3l-25 -41v-5h-7l-3 -9l-13 -13l-7 -16l-10 -35l-18 -23l-4 -13l-10 -9l-4 -26l-21 -20
l-2 -28h-4l-7 -19l-16 -29l-16 -18l-7 -11l-5 2h-6l-3 5l-9 34l-2 55l-3 16l3 20l-1 35l5 2l7 85l3 16l-1 12l5 3l-2 7l4 35l5 14l-3 15l3 7l-3 6l3 33l-5 5l3 7l-1 38l-6 17h6v9l-9 41v20l-4 9l-5 32l-5 19l-11 22l11 16l-2 3q12 0 12 -12l14 -13l6 -17l10 -11l-2 -9l6 -18
l-6 -9l9 -7l-1 -26l1 -50l6 -25l-4 -11l1 -19l-4 -16l3 -25l-7 -25l4 -7l-2 -61l2 -9l-4 -5l-4 -37l-5 -11l4 -12l-2 -6l-2 -33l-10 -29q11 -13 11 -17q-1 -2 -8 -14q5 -10 5 -24l9 7l4 13l16 32l7 23q16 5 16 21l5 5l10 19l6 19l8 10l1 13l-3 3l7 6l2 -3l16 20q8 4 8 12v4
q13 2 13 18l3 2v5l8 2l1 13h7l-1 8h7v6q7 5 8 5t1 -2v-2l1 9h3q12 0 12 19l12 10l2 -4q7 8 9 20l7 3l3 8l8 1q8 3 19 7l-2 4q20 11 25 11q6 0 16 -13q7 -1 7 -9l9 -7l2 -10l14 -24v-78l-2 -41l4 -10v-73l-2 -13v-25l2 -21l-4 -25l4 -7l2 -23l10 -12v-12l8 -4q1 -5 1 -13z
" />
    <glyph glyph-name="i" unicode="i" horiz-adv-x="304" 
d="M191 635q-3 -8 -17 -17v-6l-9 -10q-4 -6 -8 -6q-2 0 -5 2l-27 -32l-7 -11l-24 -7l-12 -18l-16 -7l-17 -17l-6 4l-1 12l23 10q5 25 13 29q3 1 7 3v4l5 3l2 -1l2 7h4l-4 9h16v14l7 2l5 8l8 3l7 13q4 0 6 6h6l1 10l9 9l3 11q24 -8 29 -27zM290 132l-2 -10l-9 -7l-4 -12
l-14 -4q-6 -20 -14 -25l-12 -4l-11 -12l-4 -2l-13 -16h-7q-7 -9 -22 -11q-4 -5 -12 -16q-12 -3 -33 -10l-4 -6h-16l-9 -7l-25 19l-14 32l-2 52l-3 10l10 82l6 5l-2 35q-1 17 -1 16q0 13 5 22l3 18l4 2q0 14 -7 28l4 13v19l5 6q-1 7 -3.5 15.5t-2.5 10.5q0 8 4 8q1 0 2 -1
q-7 16 -7 20q0 7 7 7q2 0 6.5 -2.5t7.5 -2.5q1 0 5 2q0 8 7 8q6 0 7 -5l2 -16l11 -5l-9 -11l-10 -64l8 -16q0 -11 -9 -19l-3 -13l3 -11l-12 -41l1 -5l-5 -33v-24l-7 -16l2 -14l-2 -23l2 -25l2 -11l4 -9l-1 -5l9 -6l10 3l12 -5l14 7l5 4l12 3l7 7l2 -3l6 8l10 3l6 5q7 5 19 8
q3 6 14 8l6 9l11 1l-2 11h4l2 5l21 11l2 12l19 -1q1 -1 2.5 -3.5z" />
    <glyph glyph-name="j" unicode="j" horiz-adv-x="255" 
d="M170 706l-14 -8l-4 -8l-7 -2q-2 -5 -12 -18l-4 2l-27 -35l-14 -9l-3 -9h-4q-1 -13 -15 -27l-3 34l7 12l6 15l16 14l9 23l12 25l4 3l-3 2h8l3 13l5 -2l3 5h3l6 2v-4q14 0 14 -10q3 3 5 3q4 0 7 -3zM145 -3h-3l-5 -43v-41l3 -7l-3 -31l5 -25l-5 -12l3 -12
q-4 -10 -5.5 -37.5t-10.5 -42.5q-4 -6 -6 -15q-6 -22 -23 -36l2 -4h-2q-12 0 -14 -15l-5 2q-11 -5 -16 -15l-13 -3l-5 -5l-5 2l-10 -6l-17 4l-4 -5h-4l-1 5l-6 -7l-3 5h-7l-16 10l-9 1l-5 5l-8 2l-13 2l-6 7l-10 5l-27 16l-5 4l-8 12l-17 10q-11 8 -17 28l-16 11l-9 17l-7 2
l-10 25l-7 4v12l7 -2l21 -29v-4l12 -8l6 -11l10 -5v-11l12 -5l3 -5l16 -9l-2 -3q3 0 13 -4l5 -2l5 -9l18 -8l-2 -6l16 -2v-5h8l7 -7l10 1l7 -4q1 1 3 1q3 0 6 -6q2 1 4 1t2 -2l9 -2q22 2 36 5l-2 3q3 2 15 8h10l3 7l7 5h6l4 15l11 11h6q-2 4 -2 8v4l5 -2l-3 7l3 5l3 -1
q1 1 5 12h-4l8 21l-5 12l13 36v23l3 4l-9 9q11 28 11 34q0 2 -2 4l-7 3l5 7l-1 11l4 12l-6 6q0 14 9 26l-9 24l6 14l-8 19l8 7v6l-6 10v9q4 0 4 3q0 2 -1 4l3 15l-8 26q-2 6 -2 10q0 10 7 20l-1 8l1 33l-10 34l5 16l-5 23l5 7l-9 55v43l4 2l-9 19l2 13l-4 3l4 4l1 7l7 2
q0 19 9 19q7 0 7 -8l7 3q0 -10 8.5 -13t8.5 -6v-9l-5 1v-8l-1 -15l1 -17l-1 -6l4 -12l-6 -23l3 -18l-3 -30l3 -41l-3 -22l9 -8l-7 -11q-2 -6 -2 -9q0 -10 8 -60v-12l-6 -40q9 -12 9 -19l-2 -40z" />
    <glyph glyph-name="k" unicode="k" horiz-adv-x="605" 
d="M597 66l-5 -11q0 -22 -8 -33q-12 -10 -12 -16l-3 -7l-6 -11l-13 -11l-4 -10l-33 -18l-14 -4l-21 -2l-15 7h-12l-10 8l-11 1l-36 19l-33 31q-32 30 -47 42l-20 31l-16 14l-3 7l-13 15q-12 17 -35 39l-11 5l-19 38l1 8l6 23l19 -13l16 -17l25 -16h13l5 -5q4 1 10 1
q5 0 11 -3q20 14 38 14l18 6l5 10h22q1 5 12 10h3q15 0 21 24l15 8l13 12l10 19h2q10 0 20 37h5l2 7l-2 17l2 17q0 11 -29 25q-4 9 -13 9h-3l-6 5q-21 2 -43.5 5t-26.5 3q-17 0 -40 -15q-12 0 -26 -3l1 -2q-16 -2 -39 -18l-19 -7l-35 -29l-35 -38v-7l-17 -33l-8 -22
q-4 -7 -12 -24q-4 -7 -4 -17q0 -6 4 -13q0 -8 -5 -11q-7 -10 -7 -21q0 -6 1 -9q0 -7 -3 -15q-9 -11 -11 -17l4 -18l-4 -21l2 -15q-7 -14 -7 -31v-6q2 -6 2 -7q0 -12 -18 -17q-6 3 -9 7l-8 25l3 17l-3 39l3 9v38l1 13v12q0 24 2 46t2 21v16l2 9v28l3 11l-3 14l3 34v41l-3 14
l5 9l-2 11l-3 57l-7 33v8l5 37l-4 16l-1 25q-2 14 -2 19q0 20 23 20l3 -7l6 3l-2 -16l5 -28l-7 -30l2 -39l5 -16l-3 -16l2 -27l-4 -21l5 -20l-3 -7l5 -14l-3 -25l-4 -71q2 -12 2 -15q0 -4 -2 -14q0 -7 1 -13l1 -6q0 -11 -4 -19q7 -7 14 -10l12 25v3q-1 1 -1 2q0 2 2 6
q18 53 53 105l6 7q7 1 7 5q0 2 -2 4l23 14q7 9 32 21l7 6l13 7l14 5q10 12 41 16l39 5l70 -5l16 -9l12 -2l39 -36q0 2 -3 6l14 -32l-2 -8q7 -8 7 -16t-11 -22v-9l-11 -34l-15 -22l-7 -1q-6 -7 -16 -25q-11 0 -20 -11q-9 -3 -11 -11q-14 -3 -23 -15q2 0 3 1h1q0 -4 -93 -34
q-10 5 -15 5q-8 0 -8 -11v-2l-1 -5l8 -9l4 -19l7 -8l9 -5l17 -34l26 -16l1 -5l11 -6l4 -10l6 1l30 -30l37 -15l23 -7l19 2l9 4q23 4 46 23l18 34l11 14l5 15q6 2 8 2q5 0 8 -6z" />
    <glyph glyph-name="l" unicode="l" horiz-adv-x="304" 
d="M284 113q0 -12 -6 -14q-11 -19 -24 -19q-6 -10 -11 -13q-7 -6 -22 -20q-11 -3 -15 -8l-11 -10q-13 -1 -18 -12l-10 -3l-4 2l-3 -8h-3q-9 0 -29 -10l-9 -3l-10 -4h-7l-6 9l-9 8l-5 13l-10 13l-3 24l1 12l-5 6l1 29l-1 25l1 12q3 5 3 8q0 7 -7 18q4 44 4 46q0 8 -8 18l8 4
l3 38l-2 16l7 18l-5 20l6 10l2 16v33l3 8l-1 49l3 48l-4 10l-1 28l3 30l-3 11l5 45q22 8 19 8l4 -2l5 -16l10 -9l-7 -10v-4q0 -6 3 -12q-1 -11 -1 -12q-1 -4 -6 -5l3 -5l1 -26l4 -16l-8 -26l6 -9l-8 -16q-3 -15 -3 -22q0 -9 9 -12l-7 -19q4 -10 4 -12q0 -5 -4 -13l2 -12
l-5 -32l-1 -22l-8 -25l5 -21l-3 -38l-5 -4l6 -12l-4 -19l-4 -30l4 -7l-4 -3q6 -8 6 -24q0 -2 -4 -12l4 -11l-2 -15l4 -11l-2 -8q5 -10 7 -23l4 -10l12 -5q18 9 23 9l6 -1l9 7l7 7l10 3q5 8 17 10l5 5l7 -1l2 5l10 3l9 7l10 3q7 7 25 21q0 4 6 7l4 -2q3 0 10 5q6 -4 6 -9z
" />
    <glyph glyph-name="m" unicode="m" horiz-adv-x="861" 
d="M844 85l-5 -8l-7 -2q0 -9 -6.5 -15t-6.5 -8v-2l-3 -2q-5 -11 -20 -17l-9 1l-1 -10l-6 -6q-2 -2 -3 -2t-13 2q-10 -6 -22 -6q-8 0 -33 4q-3 5 -7 5q-3 0 -8 -3l-4 7l-12 7l2 7q-11 6 -11 20q0 2 1 5v4l-12 9l-6 30l-9 16v7l-7 32l1 13l-7 35l-1 15l2 31l-2 18l-2 21
l-13 -14l-21 -37l-9 -21q-20 -13 -25 -32q-10 0 -10 -22q-6 -6 -13 -17q-7 -19 -7 -14v-2q-17 -15 -21 -34q-6 -11 -27 -39l-9 -10q-9 -4 -14 -16t-9 -13q-9 -3 -9 -11v-4l-7 -1q-9 -3 -23 -9q-9 1 -12 12l-2 14l-6 12v12l-8 33q1 3 1 7t-1 6l-4 7l4 34l-4 7l4 16l-2 9v7
l-4 9l4 10q3 3 3 5q0 10 -5 31l2 9l3 37l-7 23l2 18l-5 14l-9 23q-5 14 -7.5 14.5t-5.5 0.5t-5 -1l-20 -13l-14 -19l-12 -12l-27 -37l-2 -11l-16 -18l-7 -19q-5 -5 -10 -20q-4 -11 -12 -12l-8 -6l-1 -18q-5 -11 -15 -27q-11 -10 -14 -24q-11 0 -11 -14q-3 -10 -11 -10
q-4 -10 -4 -14v-3q-12 -10 -12 -13t3 -6l-10 -6q-6 -7 -13 -23l-5 -6v-4q0 -9 -8 -13l-15 -15q-4 -2 -10 -4q-8 2 -11 23q1 2 1 6q0 7 -7 13v14q0 8 4 16l-5 22l1 16l-1 17v4q0 11 5 16l2 8q-1 8 -2 17t-1 11v16q3 10 9 16l-8 10q3 3 3 5q0 1 -1 3.5t-1 4.5q0 3 5 11.5
t7 17.5l-7 19l3 10l-6 34l3 14l-6 27l2 18l-7 16l7 14q4 7 13 9l4 -2l3 -14q13 -3 13 -16q0 -5 -1 -11.5t-1 -9.5q0 -6 8 -8q-9 -14 -9 -21v-3l5 -51l-2 -38l-4 -11l4 -12l-3 -5l4 -7q-7 -6 -7 -13q0 -2 2 -8q0 -7 -6 -12l4 -28q-7 -17 -7 -25q0 -2 1 -4v-3q1 -2 1 -7
q0 -6 -2 -8q5 -10 5 -11q0 -3 -5 -10l10 -7l19 25l4 14q11 7 15 27l10 14q5 0 22 28l9 9q3 11 14 22l5 17l11 20l3 11l27 29q3 0 14 22q7 14 18 24q8 8 9 15q9 2 9 9q11 5 12 14h2q0 -1 1 -1q5 0 11 19l13 11q6 2 8 2q3 0 8.5 -1t15.5 -5q2 -4 2 -6t-2 -6l7 -2l2 -7l12 -18
v-16l9 -10v-13q10 -21 11 -39l-4 -16l4 -14l-9 -11l5 -31q-3 -10 -3 -24q0 -12 3 -27l-2 -9l2 -10l-3 -4q3 -23 7 -54l-2 -8l-4 -4l6 -11l1 -12l17 -5l46 56q5 10 20 39q5 0 7.5 14t11.5 17q0 9 5 14l14 9v2q0 13 19 29l6 17l7 11l8 8q12 12 17 29l9 15l3 12l8 4l14 21l5 14
q11 3 15 21l16 7l14 -7l-5 -5l7 -7q-8 -3 -8 -7t5 -7l-7 -13l-6 -46q5 -2 7 -7q-8 -12 -8 -34q0 -12 1 -18l-2 -7l3 -13q-6 -12 -6 -10q0 -3 3 -9q6 -1 6 -13q0 -3 -3 -6q2 -2 2 -5q0 -2 -3 -6q0 -18 7 -35t7 -21l3 -20l13 -7l5 -22l10 -6l4 -7l12 -5l15 -3q10 -2 11 -2
q4 0 10 2q14 4 23 12l14 6l8 11l7 13l13 6l6 10l14 -1q0 -13 1 -15z" />
    <glyph glyph-name="n" unicode="n" horiz-adv-x="623" 
d="M626 152q-1 -10 -12 -16q0 -1 1 -1v-2q0 -4 -24 -35l-2 -10l-11 -3l-1 -10q-7 -13 -17 -14q-1 -6 -5 -6h-2q-1 -8 -11 -8l-6 -12l-14 -3l-14 -9l-26 -5l-8 1l-7 -1l-3 4l-9 1l-11 14h-5q-4 4 -4 11q-16 17 -16 27v8l-7 13v6l5 3l-4 14l-7 18l1 27l-10 16v25
q-14 74 -14 89v4q-2 8 -2 11q0 4 1 6l-10 16l-2 12l-5 4l-21 -22l-10 -14l-35 -42l-14 -25l-7 -16l-9 -15l-15 -15l3 -9l-7 -19l-8 -1v-9h-5q-5 -6 -19 -23q-1 -16 -13 -19q-4 -6 -8 -21q-3 -9 -11 -10l-4 -4l-9 -16q-14 -15 -31 -28q-3 -16 -12 -20l-1 -5q-1 -16 -19 -21
l-10 -3q-7 2 -11 17t-12 19l-3 6l8 13l-1 12l5 5l-5 9l1 12l-8 22l7 13l-4 14l5 12l2 29v5q0 2 -6 12q7 5 8 12l-2 16l6 38l-4 7l1 16l-5 9l4 32l-2 11l3 18l-3 26l7 13l18 -5q5 -5 5 -34l8 -13l-3 -19l4 -41l-7 -22l3 -26v-12l-9 -15l6 -21l-3 -7l-4 -20l5 -12l-5 -16
l-3 -23l1 -36l3 -5l12 6h10l5 22q11 3 14 11q2 12 15 12q2 11 7 15q4 0 9 14l9 9l7 12v14h1q4 0 9 7t13 7q4 13 9 18l14 17l13 28q-2 8 -2 10q0 3 3 3l9 6l8 10l3 10v12q15 6 15 11q0 1 -1 3q-2 6 -2 7q0 5 4 5t8 -3q8 27 22 27q3 0 9 -2q0 14 9 23q2 6 23 15l5 8h4l8 -10
l6 -4l2 -7l5 -2l2 -19l13 -8l-4 -17l7 -31v-29l7 -34l3 -36l10 -33l2 -33q5 -7 12 -32l4 -3v-15l9 -10l-2 -7l7 -4v-5q9 -6 16 -6q8 0 15 4q4 -2 5 -2q4 0 9 8q14 2 14 8v2q2 3 20 10l10 10l-1 2q2 5 20 20l8 16l6 8l13 20l14 7h9z" />
    <glyph glyph-name="o" unicode="o" horiz-adv-x="408" 
d="M364 238l-7 -21l4 -9l-4 -28l-7 -11v-12l-3 -6l-4 -14l-9 -12l-7 -22l-7 -3l-4 -13l-11 -7l-8 -18l-15 -7l-1 -13l-13 -5l-9 -12q-4 -6 -14 -9q-15 -6 -16 -7l-2 -7q-8 -10 -26 -11q-6 -7 -14 -7q-2 0 -8 2l-13 -11l-12 -4l-8 -12l-13 8l-3 -6l-15 6l-35 3l-10 18l-16 18
l4 13l-14 36l6 12l-6 27l6 16q0 6 -1.5 15t-1.5 11q0 10 10 17v5q0 12 6 22h6q7 9 7 19l-3 7l3 15v10q7 9 9 22l-3 16q0 8 3 12q15 8 15 15q0 5 -4 10l10 17q5 4 11 10l-2 10q16 1 16 16q0 9 -3 18q15 0 22 4q21 19 22 30h6q7 7 10 7q-2 0 14 -4l18 -1l16 7v-7l11 -2l14 -9
h14q5 -10 9 -10q1 0 1 1h1q11 -18 23 -25l5 -12l9 -4l16 -23l16 -46v-9zM338 222q0 3 -3.5 7t-3.5 5h6q-1 6 -7 10l2 3l-7 16l2 22l-9 16q-9 5 -11 10v3q0 4 -3.5 5t-3.5 4v1q0 1 4 13l-6 5l-10 1l-4 7l4 6l-13 7l-10 9l-28 12l-12 2q-28 0 -28 -16l1 -33l-20 -1l-31 -19
l-3 -11l-11 -7l-5 -29l-10 -7q-3 -1 -3 -14q0 -11 2 -18l-12 -7q-4 -2 -4 -19q0 -8 -9 -15v-10l-9 -14v-9l-3 -6l2 -14l-13 -32l4 -11v-23l-4 -17l1 -24l17 -23l15 -7l3 -5l7 2l6 -2l12 5l24 -1l11 3l3 7h5q4 -1 5 -1q16 0 16 10l14 -4l3 8l9 1l5 11l9 7l3 7h16l5 10l17 15
l10 15l19 10l3 14l6 14l-2 9l14 6l-2 5l6 8l5 6h-5q4 5 4 9q0 3 -1.5 7.5t-1.5 5.5q0 6 3 13.5t3 9.5q0 4 -4 5q6 8 6 12z" />
    <glyph glyph-name="p" unicode="p" horiz-adv-x="449" 
d="M393 103l-9 -13l6 -4l-6 -9l-7 -6l-2 -13l-12 -1l-5 -10l-15 -10l-7 2l-5 -4l-9 -3l-14 -2l-6 4l-1 -8l-14 6q-5 5 -9 5q-2 0 -11 -7l-4 4l-30 3l-18 -3l-9 8l-21 -3l-10 9q-10 -5 -16 -5q-7 0 -15 5q-5 -5 -5 -11q0 -1 2 -7q2 -10 2 -14q0 -6 -5 -19l4 -13l-8 -10
q3 -21 3 -39l-3 -28l3 -35l-9 -13l6 -19l-6 -23l9 -3v-11q-7 -1 -7 -10q0 -2 2 -10l3 -1l-7 -11l-2 -8l-1 -42q-1 -54 -9 -54q-2 0 -14 2l1 19l-5 42l8 16l3 30l-6 34q8 5 8 11q0 4 -1 6l-5 16l7 13l-7 22l7 17l-3 18l9 6q-14 4 -14 16q0 7 2 14l6 22l-6 12l4 16l-4 4l4 6
l-4 36l6 48l-7 10l14 7l-7 2l-6 10l-6 3l5 3l1 -3l3 5l-4 4l11 -2l-4 6l4 -1v5q-7 4 -7 7q0 7 3 13l-3 11q-6 2 -6 5q1 2 5 2h2v3h6l-7 9l3 13v12l1 7l-4 16l4 18l-4 14l4 18l-4 7l1 16l-1 11l1 16l-5 7l-2 16h-9l-8 5l-15 -12v3l-7 -3h-14l-3 -6l-12 -1l-9 -9l-12 2l-8 -15
l-13 6l-3 -8q-20 11 -20 22q0 3 5.5 6t5.5 7q-1 4 -3 10q18 9 35 9l3 -2l13 13l23 10l3 -3l9 10l22 -1l16 5l3 -2l4 21h9q10 -20 24 -26l4 7l7 -5l5 3q26 -3 35 -12q3 -2 25 -7l7 -6l6 4l2 -7l13 -7l1 3l9 -3l11 -15l23 -14l2 -5l12 -4v-3q13 -6 14 -18l11 -7l8 -18h5v-9
l8 -9l3 -14l8 -2q1 -19 13 -26v-13l8 -11l-1 -12l9 -21l1 -13l-5 -2l2 -8v-8l5 -1l-7 -20zM366 134l-1 8l1 6l-5 18l4 10l-6 13l-1 12l-9 17l-4 13l-18 32l-10 9l-7 22l-13 5l-14 19v4l-11 3l-10 -1l-13 18l-7 -2l-5 9l-15 3h-12l-2 4l-7 -4l-5 6l-7 -2l-4 7l-9 -2l-32 5
q-9 -4 -9 -13q0 -2 2 -6l1 -16l-3 -21l7 -22l8 -7l-8 -18l2 -17l-6 -36l4 -8l-5 -12l9 -12l-5 -3l1 -13l8 -5l-8 -9l6 -10l-10 -13l4 -20l-1 -16l5 -18l37 2l2 -6q3 4 7 8q1 -1 10 -11q3 1 8 2.5t6 1.5q5 0 17 -4q3 6 7 6q3 -1 4 -4h16l12 -2l15 6l1 -4q35 5 43 11h3
q8 0 8 9l7 -3l1 11l9 2l2 10l-3 10l7 6l-2 6z" />
    <glyph glyph-name="q" unicode="q" horiz-adv-x="582" 
d="M582 -289l-10 -8l-2 -5l-3 3l-13 4l-12 -9l-7 5h-20l-2 6l-7 -4l-20 16l-6 9l-7 2l-6 17l-7 4l-2 15l-11 12l-10 37l2 5l-5 11l3 5q2 3 2 5t-4 8l-5 14l-2 31l-5 25l3 12l-3 8l3 16q0 7 -3 23l5 21l-3 10l1 32v34l2 11l-3 8l1 9l4 67l-4 35q-1 7 -5 10q-7 -7 -11 -14h-5
l-5 -12l-14 -7l-6 -13q-4 -2 -9.5 -13t-15.5 -14v-4l-23 -20l-10 -13l-22 -11l-2 -7l-10 -7l-14 -13l-13 -5l-9 -9h-9l-9 -6l-16 -5l-8 -12l-16 -4l-4 -10l-5 9l-9 -6l-4 -6l-7 3l-5 -3l-8 1l-14 -1l-7 5l-6 -11l-1 3q-6 0 -16 8h-5v4h-13l-12 12l-9 3l-5 14l-6 11l-4 15
l-3 6l2 15l-5 15l5 19q2 30 7 30l2 7v2q0 3 -1 9l3 3q6 9 6 22v5l8 9l-2 5l4 4l5 14h5l6 18l5 -2l2 20l3 3l7 -3q-2 4 -2 6q0 7 11 13l6 11q1 2 9 6t8 10q0 2 -1 5q5 1 13 4.5t8 15.5h4v3l21 16v9q5 -3 8 -3q4 0 8 3l-2 4q9 4 18 4q9 -1 14 -1l6 18h26l6 14l7 -7q3 2 10 2
q11 0 27 -4l5 6q14 -7 16 -7q3 0 9 3l5 -11h4l-2 4q2 2 6 2q8 0 23 -9q3 -4 3 -11q9 0 9 -7q11 -9 16 -9q2 0 4 2l2 -9q-3 4 -5 4q-1 0 -3 -2l8 -7h8l-7 -29l-16 -2l-9 15l-28 18l-9 12l-9 -4l-12 4l-7 -5l-9 5l-14 -4l-16 4l-11 -9l-7 7l-20 -15l-5 5l-2 -5l-9 -1l-14 -15
l-7 6l-4 -12l-5 2l-16 -16l-12 -6l-11 -16l-13 -12l-39 -55l-6 -22h-6l-21 -53v-18l-6 -10l2 -43l5 -20q6 -5 25 -5q4 -4 7 -4q2 0 6 2l21 7l-4 -7l31 3l-2 4h7l-2 -4l6 4l-2 4q15 0 21 7l23 9l2 8l15 4l3 4q3 3 12 3q4 0 7 -3l-3 8l5 3v9q9 0 18 3q5 0 25 25l10 5l2 6l6 -3
l1 10l13 3l1 6l8 5l5 9h7l9 14h4l3 7l5 2v7l9 5q0 11 3 11q2 0 4 -2l4 13q2 -2 3 -2q2 1 2 8l4 4l3 -4v10l8 6l-4 8l7 -2v13l11 12l-4 16l7 5v18l6 7l-2 20l3 11v12h6l3 14l7 -7q6 2 8 2q7 0 10 -5l4 -15l-2 -17q2 -8 2 -11q0 -9 -6.5 -27t-7.5 -28l-4 -38l2 -30l-6 -7
l2 -11v-36l-5 -16l2 -29l-9 -43l3 -21q4 -7 4 -19l-5 -1l3 -11l-2 -5l2 -19l-5 -20l3 -16l-3 -21l7 -14l-2 -9l2 -13l-4 -10l6 -8l-2 -20l5 -7l6 -38l5 -6l-1 -13l5 -1v-19l8 -4v-12l9 -8l13 -23l3 -9l5 5l21 -10l12 1h7q4 2 12 2q10 0 17 -5v-17z" />
    <glyph glyph-name="r" unicode="r" horiz-adv-x="373" 
d="M392 391l-3 -12l-29 -4l-19 -14l-13 -2l-16 -10l-16 -7l-10 -9l-9 -4v-5l-15 -7l-10 -16h-11l-5 -16l-18 -11l-14 -25q-11 -6 -13 -27l-5 2l-2 -6l-7 -5l-7 -17l-9 -13l-2 -10l-9 -4v-21l-3 -4l-2 -7l2 -3l-10 -4l3 -8l-3 -12l-12 -24l5 -13l-10 -16q2 -10 2 -15
q0 -4 -2 -16l5 -19l11 -12l-6 -11l-6 -6l-13 5l2 -9l-22 4v13l-3 9l3 16l-3 7l2 34l-2 23q-7 3 -7 6q0 4 7 12v15q0 11 -1 17l4 5l-4 19l3 15l-3 9l3 27l-5 8l3 9l-6 20q2 10 2 16t-2 18l3 5l-6 34l-7 5l7 17l-7 12l-3 21v14q-4 5 -6 9q7 9 25 16l7 -2l3 -12l8 -11l-2 -25
q0 -6 10 -76q-1 -4 -6 -13l5 -21l-3 -15l3 -16l-2 -13l7 -15l-4 -3l3 -23l8 -2l4 23l11 14q13 12 13 25v6l6 3q2 0 2.5 3.5t3.5 3.5h3l6 20l15 10l1 6h7l-3 11l15 7l1 12l14 2l10 9l5 10l9 2l2 4l16 14q4 0 5 3l16 9l4 7l9 5l15 11l20 8h4q9 0 14 5l9 -3q7 5 11 5q3 0 7 -2
q8 0 12 -4z" />
    <glyph glyph-name="s" unicode="s" horiz-adv-x="435" 
d="M386 77l-9 -11l-11 -27l-14 -10l1 -6h-13l-13 -14h-17l-11 -6q-5 0 -11 -6q-6 3 -13 3q-5 0 -13 -3v-6l-18 2l-14 -2l-13 2l-2 -3l-5 3l-9 -3h-6q-7 0 -15 -2l-10 3l-8 -5l-4 4l-7 -4q-13 7 -21 7q-3 0 -9 -3q-8 5 -25 5q-4 2 -14 2t-16 -2l-2 4l-9 -6q-3 4 -7 4l-3 6
q-25 5 -29 29q-2 13 -2 15l21 3l-1 7l5 7l3 -6h6v-5l9 5q8 -2 8 -7q0 -3 -3 -9l9 -1v-15l25 -4l10 -9l3 5l128 8l30 6l14 2l2 5l11 2l3 4q24 5 40 16l3 -3l2 6l7 6l1 3l-5 7l2 9l-11 9l-2 8l-7 3l-3 3l-4 -2l-10 9h-4l-4 6h-10q-3 8 -11 8q-1 0 -3 -1h-4q-18 1 -30 10h-10
l-13 8l-6 -4l-3 5h-7l-11 9l-30 13l-11 10l-34 6l-1 3l-28 20l-13 32l-10 16l-3 46l3 5q0 20 10 34q18 10 19 21l7 -1q6 17 18 23l13 12l58 25l9 2l20 3l29 9l45 -3l2 -6h3q8 0 13 -5v-9l12 -9l-3 -14l-2 -12q0 -7 -9 -9q-4 1 -7 7l-7 14l-27 2l-7 -2l-9 7q-6 5 -9 5t-3 -3
l-9 -7q-16 0 -27 -9q-19 -3 -26 -12h-11l-12 -9l-16 -4l-4 -5l-5 -3l-10 -10l-4 -3l-9 -15l-11 -7l-4 -5l-10 -41l5 -3v-3q0 -16 16 -28v-5l27 -16h6l15 -15h20l12 -10l23 -3l7 -6l43 -13q0 -6 7 -6q15 0 32 -11l10 -2l1 -5l9 -5h19l17 -11q3 -11 13 -18l-1 -3l5 -7l9 -2
l-4 -7q9 -8 11 -16z" />
    <glyph glyph-name="t" unicode="t" horiz-adv-x="348" 
d="M344 366q0 -10 -16 -13q-3 2 -8 2q-7 0 -13 -5l-14 3l-27 -1q-15 -8 -37 -10l-19 3l-10 -9h-9v6l-17 -8h-9l-3 -9q-8 2 -29 4q-1 -6 -5 -6q-2 0 -6 4l-14 -2l-10 -10l-3 -49l2 -29l-3 -38l1 -42l3 -20v-18l12 -25v-4q0 -18 20 -33l3 -8l18 -4l13 -14l14 -2l23 -5l49 11
l14 -4l35 16l13 -2q7 -7 7 -13t-5 -10l-8 -6l-7 3l-16 -13l-33 -4l-11 -7l-12 7q-16 -9 -35 -9q-8 0 -20 4h-11l-31 19l-5 2l-17 24l-12 13l-18 48l-8 45l4 18l-8 10l4 11l-4 18l10 8l-4 9l2 12l-4 13l2 19l-2 10l4 3v36q-3 13 -8 13q-3 0 -6 -4l-11 5l-16 -4l-16 12h-8
q-12 0 -12 13v7q1 5 1 8l-7 5l4 9l15 -2l11 2l16 -5h42l2 23v23l-7 17l8 6q2 6 2 7q0 6 -8 11l2 39l-8 12l2 9l-7 2q-3 3 -3 6q0 6 4 13l3 13l7 9l2 5q30 -15 30 -17v-1l-4 -10q7 -14 7 -22v-3q-3 -7 -3 -14q0 -5 3 -8l-1 -8l1 -11l-9 -14l6 -25l-4 -30l4 -6l-6 -9l8 -25h18
l12 9l69 -3l66 3l16 -1l7 1h36q10 0 10 -9z" />
    <glyph glyph-name="u" unicode="u" horiz-adv-x="570" 
d="M543 41q-1 -3 -2.5 -6.5t-8.5 -8.5l-7 -4l-7 -8l-15 -8l-16 -5q-4 -4 -15 -5l-18 -1l-18 5l-12 6l-33 29l-7 31l-10 9v5q0 15 -7 26l1 24q4 20 4 21q0 11 -6 22l3 45l-11 -6l-7 -11l-14 -9l-5 -9l-9 -1q-11 -10 -11 -20q-11 -4 -28 -34l-16 -16q-5 -2 -16 -10l-29 -35h-3
l-23 -28l-19 -10l-8 -13l-18 -6l-23 -11l-15 10q-3 -1 -7 -1q-6 0 -6 5q0 4 1 6l-10 6q0 4 3 10l-13 13l8 10h-11l-7 19l7 6l-9 13q0 23 3 26l1 26l5 12l-8 6q8 11 8 19q0 6 -5 16q6 3 6 16q0 5 -1 13l-4 33l12 70q-1 31 -9 55q3 16 17 16l6 -2l9 -2l7 -9l-4 -21l-2 -50
l2 -32l-7 -16l4 -10l-4 -15v-13q-3 -1 -3 -4q0 -1 1 -4t1 -5q0 -6 -4 -11l7 -9l-10 -12l6 -9l-3 -13l3 -16v-19l6 -7q-2 -12 -3.5 -16t-1.5 -8q0 -6 6 -15l-3 -11l5 -14l9 -6l12 -13q11 2 19 10q2 2 13 8q8 4 8 9q0 1 -4 1q16 9 16 16q11 2 16 4l2 12l10 4q11 14 33 19l1 10
l18 15q3 19 21 20l4 13l9 4l13 19h6v6l9 5l6 14l12 6l12 5l4 11l7 3v6l4 1q3 24 17 24l-3 3l19 55h4v14h1q4 0 17 36l18 2l-2 -4l10 -19l-8 -37l-15 -22l-10 -37l-13 -9v-22l-7 -14l2 -16l-7 -7l2 -44l-4 -54l3 -6l-1 -8h3v-15l14 -21l2 -9l14 -3l3 -9q14 -6 24 -11l13 1
l11 -3l23 9l13 11q7 1 16 1q11 0 11 -8z" />
    <glyph glyph-name="v" unicode="v" horiz-adv-x="475" 
d="M475 478l-5 -10l1 -15l-10 -6l-6 -25l-8 -9l-2 -13h-11q5 -15 5 -18q0 -8 -16 -12v-7l-9 -34l-8 -16h-6q6 -6 6 -12l-13 -13l-23 -60l-21 -36v-16q0 -3 -7 -9.5t-7 -10.5q0 -3 5 -8l-9 -6l-13 -1l4 -11l-9 -14l-2 -7l-7 -6q-3 -3 -3 -8q0 -4 1 -6h-8v-11l-13 -8l-7 -13
l-20 -22l-26 -40q-7 -11 -22 -11q-20 0 -28 13l-32 51l-2 18l-6 4l-1 23l-11 12v23l-24 61l1 12l-9 17l-1 15l-7 9l-8 21l-16 15l-9 35l-16 14l-12 23q-4 -2 -6 -2q-10 0 -10 26q0 17 20 24l22 -19q9 -8 22 -33q11 -21 21 -24q-4 -1 -4 -5q0 -2 3 -7v-8l12 -10l-3 -9l3 -20
l11 -32l3 -3l2 -13l5 -3v-10l12 -44l3 -17l16 -36l13 -47l10 -8v-2q0 -14 21 -14h4v5l10 5q4 3 9 13q4 -2 5 -2q3 0 3 4q-1 6 -1 5l-1 3l23 13q1 19 17 29l18 26l6 18l10 7l6 16l8 7l-1 11l5 2l3 10l4 -4q-2 6 -2 8q0 7 7 8q3 7 9 7q7 14 7 28h8l1 13l6 13l3 15l6 1l14 41
l3 4l-1 -6q7 7 10 18q2 8 3 8l4 -2l13 46l9 12v6l7 -2l-2 16q13 12 20 30q5 13 10 13q2 0 5 -1l1 6z" />
    <glyph glyph-name="w" unicode="w" horiz-adv-x="656" 
d="M640 414l-3 -14l1 -10l-10 -40l-2 -10l-13 -16l-5 -22l-10 -15l-16 -40l-18 -34l-29 -47l-5 -15l-16 -29l-16 -39l-30 -60l-6 -24l-5 -9l-12 5l-9 5l-14 47l-18 33v10l-14 36l-6 8l-41 94l-21 41q-2 2 -7 2t-9 -2l-19 -32l-17 -15l-23 -35l-17 -21l-9 -29l-23 -31l-2 -12
l-13 -27l-3 -9v-13l-7 -13l-11 -29l2 -4q-2 1 -6 1q-1 0 -14 -5l-3 4l-7 3v5l-8 11l-5 27l-8 17v13l-1 7l-14 46l-5 34l-7 8l1 10l-10 28v10l-10 29l-12 18l2 20l-2 10l-10 29l-3 19l-8 16q-5 7 -5 14q0 5 1 8l-7 3l-13 32l13 4q1 10 9 10l9 2l6 -9h10l4 -17l5 -4l-2 -11
l3 -10l-3 -11l11 -20l-2 -14l13 -48l-2 -12l6 -34l13 -34l7 -46l9 -11v-21l7 -25l2 -16l10 -9l4 -13h9l47 84q8 1 8 18q12 8 12 15q0 11 6 21q6 6 6 13q8 -5 14 -5q-3 6 -3 12q0 7 8 8h2q0 -1 1 -1q2 0 2 2q-2 4 -2 3q0 3 6 7l-2 9v5q1 4 4 4q2 -1 2 -4q7 5 10 5q2 0 4 -1
l-2 14l7 9l-3 14l5 -2l2 7l9 4l-4 5l4 4l1 5h11q-13 15 -13 29q0 9 6 21l16 2l10 -11l8 -11l4 -25l8 -14l-2 -11l7 -24v-13l18 -32v-9l7 -6l16 -43l2 -18l11 -15l30 -71l18 -4l16 31l16 36l12 10l7 22l13 7v17q21 14 21 27v16h5v5l8 6l17 34q2 13 15 32l-2 10l14 20l12 32
q-12 38 -12 57q0 14 9 18l10 -4q1 -5 13 -6l2 -10z" />
    <glyph glyph-name="x" unicode="x" horiz-adv-x="461" 
d="M445 -3q-6 -7 -12 -7q-4 0 -10 3l-16 -7l-10 5l-13 4l-23 19l-24 5l-24 23l-30 41l-27 30l-2 8l-5 5l-19 32l-5 11l-8 9q-4 10 -7 14q-4 10 -14 13l-6 -4l-12 -2l-8 -16l-12 -19l-1 -6l-13 -8l-12 -22l-14 -12q-4 -3 -12 -26l-17 -7l-2 -16l-9 -14l-25 -23v-4l-24 -27
l-3 -2l-24 -38l-7 -5v-11l-14 -10l-11 -20l-11 9l9 16l9 1l7 19l6 3l7 7l13 29l8 5l12 24l5 6v15l17 4v3q-1 2 -1 3q0 7 6 13.5t6 8.5q0 1 -5 8l8 -1q-2 2 -2 4q0 3 4 6q21 4 21 26l5 3l2 7l7 2v2q0 11 15 18l8 24l11 5v15l7 3l4 12l3 -1l7 5q0 20 17 20h3l-3 17l-11 15
l-2 12l-8 4l-16 33l-17 31l-12 28l-15 18l4 9l-4 16l13 3l15 -3l3 -11l16 -19l-3 -13l8 -5l7 -20l13 -12h-6l9 -7v-11l18 -25l3 -14l12 -11v3q0 13 15 20l5 -7v14q10 4 16 20h6v7l10 5h4l-2 9q5 6 8 6t6 -4v13l13 1v7l9 6l3 12q14 3 18 20v-11q4 5 4 10q0 1 -2 3l22 9l6 8
l10 2l19 5l7 -12l5 -5q-1 -11 -12 -15q-7 -2 -13 -7l-62 -57l-7 -12l-16 -7l-11 -25l-10 -14l-16 -7l-6 -15l-16 -12v-4q-1 -2 -1 -4q0 -7 17 -17l-1 -11l7 -12l1 -5l11 -6q6 -15 16 -33l16 -12l6 -25l17 -15l11 -18l14 -9l2 -7l11 -7l5 -9l11 -3l10 -16q3 -10 13 -10l10 3
l13 -8l41 -5v-12z" />
    <glyph glyph-name="y" unicode="y" horiz-adv-x="638" 
d="M534 190q-10 -9 -10 -18q0 -4 1 -10l6 -36l-6 -39l2 -16l-5 -14l3 -44l-3 -6v-36l-2 -28l4 -10l-2 -66l5 -12l-5 -6l3 -18l-5 -5l4 -15h-4l-2 -8v-15l-5 -12l2 -9l-21 -37l-2 -19l-5 1l-9 -12l-11 -12l-7 -13l-18 -11q-8 -23 -29 -23q1 -1 1 -3q0 -3 -4 -3l-4 -4l-12 -6
l-5 -6h-11l-3 -4l-13 3l-20 -13l-12 2l-32 -5l-9 1l-5 -1l-29 5h-8l-10 9l-5 -1l-35 12l-25 4l-6 10l-16 2l-7 17l-9 3l-14 19l-14 7l-16 23l-21 12l5 13l-9 10q0 1 1 3v3q0 10 -7 26q-2 8 -2 14q0 13 8 31v3l7 4l2 5l4 -1l3 14l11 14l12 11l14 4l24 21l28 -2q6 9 12 10
q7 -1 7 -8q0 -3 -1 -5l-13 -6l-13 -10l-19 -6l-7 -14h-14l-11 -18l-17 -17l1 -19l-7 -12l-1 -13l-5 -3l22 -52l20 -7l3 -12l31 -30l19 -6l20 -18h16l12 -12l16 2l7 -6l57 2l8 2v-2q0 -5 4 -5q-1 0 7.5 6t20.5 6h5l32 13v-4q6 4 6 6h-3q2 2 6 2q2 0 5 -1q2 9 9 9h3l2 6
q7 0 7 8h1q5 0 8 7t9 8l3 -2q1 12 14 22t13 26h5q16 34 22 51l-2 3l2 25l5 3v23l4 7l-9 11l7 7q2 2 2 3l-2 7.5t-2 15.5v4l2 41v58l-5 11l5 20l-2 23v53l-2 11l4 11l-4 9l4 9l-2 37l-9 9l9 9l-2 8l2 15l-5 6l2 12l-6 12l-5 -5l-8 -3l-5 -12l-8 -5l-2 -12l-16 -11l2 -5
l-8 -11l-7 -2l-3 -5l-15 -5v-13h-7l-3 -12l-9 -9l-25 -22l-23 -26l-12 -4l-6 -9l-23 -21l-9 -2l-3 -3l-15 -13l-3 -9l-9 -5h-8l-5 -9l-11 -2l-20 -20l-18 -3l-7 -7l-7 -2l-13 -5l-3 -8q-6 -3 -23 -3q-23 0 -27 9l-20 34l-2 16l-10 37v32l-4 10l6 24l-4 16l4 4l1 13l7 15
l-1 23l5 13l-5 9l10 46l-3 30l3 27l-9 37l4 9l-4 7l8 20l-4 8l7 6v13l11 1l5 -12l8 -8l-3 -7l6 -1l-3 -13l8 -14l-3 -7l3 -16l5 -4l-7 -15l6 -26l-12 -16l6 -7l-6 -38v-35l-4 -5l-4 -52l-11 -14l2 -9v-23l5 -14l-5 -11l2 -17l-4 -8l4 -9v-12l11 -11l3 -12l7 1l2 -6l8 5
l21 -2l7 16l25 10l1 -3q2 11 13 14q19 17 33 22l-1 -5q5 2 5 5q0 1 -2 5q10 2 32.5 23t46.5 25l12 20l2 -6v9q15 3 16 16l11 8q10 4 10 14v3l13 9l12 4l2 8l16 18l9 15q10 5 21 20l18 38l-1 23l8 4v19l-5 16l3 15l-9 5v2q-1 0 -1 1q0 4 5.5 11.5t6.5 12.5l4 3l1 7q6 4 11 4
l21 -21l2 -25l9 -16l-6 -6l2 -14l-2 -11l8 -9l-8 -1v-14l-5 -18l5 -26l-1 -19l3 -7l-2 -18z" />
    <glyph glyph-name="z" unicode="z" horiz-adv-x="535" 
d="M488 59q0 -7 -1 -8l-24 -29l-3 -12l-14 -4l-5 -10l-15 -3h-16l-43 6l-12 -6l-16 6l-21 -4l-8 7q-11 -2 -35 -6l-18 4l-35 2l-22 -2q-23 7 -30 7q-13 0 -33 -7l-19 7q-36 0 -58 -8l-2 -11l-9 -4l-5 -7l-9 -3l-10 4l-3 9v13l3 7l13 11l6 12l9 7l12 4q14 16 14 21v2
q11 1 13 9q25 14 25 20l7 6l6 3l4 10q11 12 18 18q15 1 18 18l7 9h5v7l16 2v2q0 3 6 17q11 5 12 14q10 10 20 11l1 8l11 7l16 24l7 5q12 3 13 16l14 11l5 13l10 7l17 28l16 11l5 13l7 8v9q13 3 17 9q-4 12 -20 12h-4l-25 -12l-14 2l-12 -4l-18 2l-12 -4l-10 5l-30 -10
q-12 3 -23 3q-14 0 -29 -3l-10 5l-21 -3l-10 3l-19 -5l-31 7l-25 -2l-12 4l-33 7l-17 -4l-13 6l-5 16l12 9l10 -3l9 6l11 2l13 -5h19q0 -10 9 -10q6 1 5 1h20l14 -4l17 3l15 -5l14 3h3q7 0 12 1l17 -2l6 4l88 -1l11 -3l16 7h10v7h40l16 4l16 -4l22 9l15 -1l18 3h2
q11 0 14 -21l-9 -6l-9 -8l-14 -6l-30 -31l-9 -1l-23 -32q-21 -7 -34 -26l-3 -13l-13 -12l-18 -27l-10 -5l-41 -54l-14 -5l-13 -18l-9 -3l-3 -9l-20 -18l-9 -17l-19 -17l-23 -29l-11 -3l-2 -7l-7 -4q4 -10 12 -10l12 -4l10 -7l6 2l49 1l11 -5l53 4l50 -9q5 3 9 3t10 -9l18 11
l18 -7l16 5l18 -3l17 1q8 8 18 8q8 12 12.5 13.5t5.5 10.5q10 6 10 17v5l3 10l8 -3q9 -12 9 -28z" />
    <glyph glyph-name="braceleft" unicode="{" horiz-adv-x="400" 
d="M366 642l-5 -24l-13 -6l-17 5l-13 -3l-14 7l-5 -6l-17 -2l-16 -7l-3 -13l-11 -9l-9 -18l1 -17l-7 -18l1 -30l-8 -30l2 -29l-5 -3l-2 -26l5 -30l-5 -11l2 -11l-7 -8l8 -10l-7 -18l-9 -12l5 -9l-18 -12l-12 -5l8 -9l10 -2l7 -8l5 -15v-18l-4 -19l9 -15l-12 -7l2 -8l-5 -20
l9 -22l-3 -10l-2 -23l-5 -9l7 -16l1 -17l2 -22l-3 -12l9 -23l-3 -14l4 -15l7 -12h11l3 -12h4l7 2l15 -11l15 -4l20 -4l8 5l7 -5l4 6l14 -2l10 4l10 -15l-4 -12l-13 -17l-7 7l-11 -4l-25 2l-14 4l-10 -2l-20 7l-7 13h-17l-11 9l-24 20l-7 29l3 11l-3 14l-10 6l11 18l-5 24
l-7 11l5 21l-5 29l3 19l2 19l-7 12l7 7l2 22l-5 14l7 16l-4 8l-7 12l-12 13v4l-12 -4l-4 6l-4 -7l-16 1l-27 7l-4 14l16 9l18 2l4 -7l13 6l15 1l8 11h5l-3 9l13 5l6 7l-2 10l5 16l-4 16l10 20l-2 12l4 14l-4 25l6 6l-2 22l8 8l-6 5l6 19l-4 22l7 12l3 24l5 8l-7 7l15 8
l-3 17l12 3l4 9l12 10l7 14l17 5l20 3l24 4l15 -4l13 10l9 -3z" />
    <glyph glyph-name="bar" unicode="|" 
d="M272 -236h-44v1000h44v-1000z" />
    <glyph glyph-name="braceright" unicode="}" horiz-adv-x="400" 
d="M309 276l-17 -9l-17 -3l-5 8l-12 -6l-15 -2l-8 -11h-5l4 -10l-13 -5l-7 -7l3 -9l-5 -16l4 -16l-10 -20l3 -13l-3 -15l4 -24l-7 -6l3 -22l-8 -8l6 -5l-6 -19l4 -22l-6 -13l-2 -23l-6 -9l7 -5l-14 -9l3 -18l-12 -2l-5 -10l-11 -10l-6 -14l-17 -5l-20 -3l-25 -4l-13 4
l-13 -12l-11 4l-6 11l5 24l12 6l17 -5l13 3l14 -6l5 5l18 3l16 7l2 13l11 10l8 17l-1 18l7 17l-2 31l8 29l-3 30l5 2l1 27l-4 29l4 12l-3 11l8 9l-9 8l8 19l8 13l-5 8l18 12l12 6l-9 9l-10 2l-7 7l-5 14v18l3 21l-8 15l11 6l-3 9l5 19l-9 22l2 10l2 22l5 10l-8 17v16l-3 22
l3 11l-9 24l2 15l-4 14l-7 12h-11l-3 12h-4l-8 -2l-14 10l-16 4l-19 4l-9 -6l-7 5l-3 -6l-15 2l-10 -4l-9 14l3 13l13 17l8 -7l10 4l26 -1l12 -4l12 2l19 -7l7 -12h18l10 -9l24 -19l8 -29l-3 -12l3 -13l10 -5l-10 -20l6 -24l7 -10l-6 -22l7 -29l-3 -19l-2 -19l8 -11l-8 -8
l-1 -22l5 -13l-6 -17l3 -8l7 -12l13 -13v-4l12 5l5 -6l3 7l16 -1l27 -6z" />
    <glyph glyph-name="asciitilde" unicode="~" horiz-adv-x="833" 
d="M747 316q-103 -72 -189 -72q-46 0 -141 34t-141 34q-80 0 -189 -77v45q101 71 189 71q50 0 141.5 -34t140.5 -34q78 0 189 78v-45z" />
    <glyph glyph-name="nonbreakingspace" unicode="&#xa0;" horiz-adv-x="255" 
 />
    <glyph glyph-name="exclamdown" unicode="&#xa1;" horiz-adv-x="295" 
d="M176 519l-5 -16l-7 -7q0 1 -2 2q-2 -1 -9 -11q-13 6 -17 6v-1l1 -2q-8 0 -15 5l-6 12l-4 12q3 3 3 6q0 4 -3 10l12 10l13 -4l13 6l9 -6h11zM180 16l-2 -20l-10 2q-10 -3 -15 -3q5 0 -21 7l-3 8l-3 3l4 8l2 5l5 9l-7 27l6 8l-4 5l2 8l-4 6q9 0 9 10q0 5 -3 18l5 14l-7 9
l3 7l4 15l1 29v17l3 48l-6 9l6 23l-6 21l6 13l-6 10l2 11l-2 7l6 2q-4 8 -4 18q0 8 9 8q-8 10 -8 13q0 9 10 9q9 0 9 -20v-23l3 -27l4 -16l-6 -12l6 -14l-6 -36l9 -5l-3 -13l2 -12v-9l-4 -2l5 -14l-1 -7q0 -9 -6 -18l4 -9v-14l3 -2l-7 -9l6 -16l-4 -14l7 -9l-7 -9l2 -14
l-2 -10q3 -4 3 -9q0 -3 -1 -4l-2 -5l5 -2v-21z" />
    <glyph glyph-name="cent" unicode="&#xa2;" horiz-adv-x="598" 
d="M556 187q0 -5 -3 -14l-11 -6q-7 -12 -19 -16q-1 -9 -9 -9l-36 -24l-24 -12l-15 -12l-17 -7l-20 -14l-27 -5l-22 -15l-10 2l-16 -16l-12 2q-6 0 -9 -7v-18l-2 -17l2 -25l-4 -15l11 -9l-9 -7v-35l2 -32l2 -9l-4 -11l9 -10l-5 -11l-4 -4l-5 2v50l-5 32q-1 3 -4 41q2 9 7 16
l-9 25l2 32q-7 5 -11 5q-5 0 -8 -4l-37 -5l-8 -16l4 -28v-36l1 -18v-12l7 -11v-2q0 -3 -6 -3q-10 0 -10 18v35l-5 23l2 6l-2 3l-7 9l5 2q2 2 2 3t-2 5.5t-2 9.5t2 9l-17 -3l-16 1l-21 -2l-29 14l-7 -2l-12 15l-26 10l2 13l-19 28l-8 18l4 12l-11 27l6 57v11l3 16h3v17l10 24
v10h5l1 18l11 14l9 22q9 10 11 16l-2 4l13 13q9 9 9 17v8h3q8 0 21 18l17 4l1 7l18 1l18 15l6 -2l6 23l-2 19v10l-4 55q0 2 1 5.5t1 2.5q0 2 -2.5 13.5t-3.5 22.5l1 4l16 1l12 4l15 -13l4 -33l-12 -9l6 -6l-3 -8v-11l-6 -5l2 -26q-3 -13 -3 -23q0 -5 6 -19q7 2 21 2t21 -2
q5 3 7 8v29l3 11l-3 18l7 21l-4 21l6 3l-6 10l4 11v16l16 8l5 -1h4q20 0 20 -19v-4l-3 -16v-9l-5 -6v-10l-8 -16l5 -12l-11 -27l2 -20l-2 -5l5 -6q-8 -6 -8 -13q0 -3 3 -8l12 -14l15 -10l12 -14l12 -7l9 -10l12 -4l1 -9l11 -8l1 -17l-5 -19l-5 -12q-4 -3 -10 -3q-6 1 -5 1
l-9 2q-12 1 -24 37l-5 23l-11 9q-3 15 -11 15q-7 0 -7 -16l3 -20l-3 -2l-2 -10l2 -44l-6 -58v-42l-8 -27l7 -2q0 -13 -6 -22l4 -10l-7 -15l-2 -32l4 -5l-2 -12l17 -2l14 4l10 6l13 4q7 5 13 5l19 8q23 10 50 28q16 11 18 11q2 -1 2 -4q17 15 20 15q1 0 2 -1q-2 0 4 -1
q2 0 15 5l4 11l17 7q12 10 15 16q10 2 11 2q4 0 4 -4zM301 370l-2 5l-1 26v13q0 3 -3 4l-14 4l-38 -7l-3 -17l3 -19l-5 -17l8 -22l-9 -16l3 -7l-6 -32l6 -13l-7 -14l4 -18l-7 -14l10 -23l-3 -9l1 -9l-8 -18l10 -25l-6 -7v-15l-8 -15l7 -18l-7 -9l7 -8l-2 -12q14 -4 16 -4
q16 0 24 1q12 8 15 11l2 12v15l4 16l2 30l-4 12l4 31l-4 12l5 2l-5 12l2 36l5 7l-5 16l6 35l-4 29l3 21l-4 11zM217 77l-3 7l3 18l-11 24l5 22l-1 34l4 1l-4 34l1 29l-3 19l3 10l-1 26l1 26l-1 6l5 11l-4 26l3 12l-8 9l9 7l-3 7l-12 -3l-33 -26l-1 -6l-9 -8l-22 -31
q-11 -15 -25 -53q-2 -23 -12 -29q-4 -8 -7 -25.5t-8 -27.5l6 -14l-6 -11l4 -13v-10l7 -14v-13l6 -11l3 -17l9 -7l6 -13h7l9 -7l32 -14l20 1l14 -7l6 7v11l5 7l-1 6h7z" />
    <glyph glyph-name="sterling" unicode="&#xa3;" horiz-adv-x="651" 
d="M604 80l-7 -19v-8l-15 -12l-10 -19l-20 -9l-7 -10q-1 0 -2 1h-3q-9 0 -18 -11l-8 4l-10 -7l-10 1l-4 -3l-9 -2l-4 -1q-4 -4 -16 -7l-33 8q-8 2 -9 2q-4 0 -14 -4l-36 4l-9 -5l-7 7l-11 -2l-21 7l-22 2l-6 3l-10 -9l-8 9l-8 -3l-35 10l-10 -4l-13 6l-7 1l-11 -1l-7 1
l-6 -3l-16 2l-3 -2l-16 6l-32 -7q-6 -30 -19 -30q-1 0 -5 1q3 -1 4 -1q-2 -1 -31 -2l-13 3l-5 11q2 3 2 8q0 2 -1 7t-1 7q0 7 8 12l12 7q10 0 17 10h5q1 8 8 18t8 13l2 16l8 12q5 3 6 18l14 44l13 25v17l7 3l2 8q3 23 9 27l3 22q-21 -4 -32 -8l-10 -4q-4 8 -10 8h-2l-16 -5
l-15 5l-32 -5l-7 -4l-9 5l-8 5l-1 11l-2 6h5l24 9l14 3l21 -4l18 3l32 -4l24 5l17 -1l-5 12l7 3l7 18l-2 5l9 12l-4 10l4 9v10l9 6l-2 3l11 11v12q0 15 13 29l3 10l5 11l2 11q17 14 29 32l1 14l15 7q6 -2 8 -2q8 0 8 9l-3 6l9 9q1 5 9 5h4l30 8q8 0 14 3t14 6q5 -3 9 -4
q3 0 4 6q2 2 8 2t10 -2l1 -3l10 5l22 -7q2 1 7 1q6 0 12 -7l10 -3q7 -3 16 -7q1 -6 9 -12l7 -4v-3l11 -2l8 -14l10 -13l1 -9q3 -11 11 -16q3 -1 4 -7t4 -10l-7 -8l-10 -2l-24 16l-8 25l-3 20l-13 -4l-13 24h-10l-6 5l-4 -2l-12 4l-6 -4l-11 13l-16 -6l-14 6l-25 -8l-8 4
l-8 -7l-11 -2l-5 -9l-11 -3l-10 -13l-11 -3l-11 -18l-7 -2q-9 -1 -9 -11l-1 -10l-12 -11q-2 -13 -9 -23.5l-7 -10.5v-10l-16 -22q2 -10 2 -13q0 -6 -3 -12l5 -7l-20 -16v-16l-7 -5l3 -7v-5l23 -11l13 5l11 -1q6 -2 8 -2q6 0 10 3q6 0 15 -6q4 7 15 7q5 0 8 -1l4 -3l53 7
l24 2h4q4 0 11 -1t10 -1q2 0 4.5 1t3.5 1q5 0 8 -4h16l16 1l15 -4l14 5q2 -5 5 -5q2 0 10.5 2t15.5 2q-3 0 27 -3l12 6q8 -2 19 -2l9 -11l-9 -2l-7 -5l-12 7h-15q-8 -5 -10 -5q-4 0 -7 3l-8 -3l-11 5l-10 -7l-14 4l-40 -8l-10 4h-4q-10 0 -50 -9q-5 5 -20 5l-9 -4l-20 -1
q-13 4 -20 4l-44 -7l-17 3l-28 -10q-39 -1 -39 -8v-22l-11 -10l2 -21l-18 -27l-4 -17l-25 -77q-5 -5 -7 -16l-1 -7l10 -2l5 -3l6 3l5 -6q2 -1 5 -1q2 0 6 1h7q4 0 16 -3l8 -2l4 5l6 -3l16 -2l3 4q6 -2 11 -3.5t17 -5.5l1 -6l25 4l21 -7q8 3 14 3q4 0 5 -1l12 -2l3 -4l10 4
l19 -7l1 6l11 1l4 -13h16l3 6l9 -3q4 0 13.5 2t15.5 2q-1 0 36 -8q3 1 6.5 5t6.5 5q12 4 25 4q7 0 10 -1l6 -4q14 20 24 20h3q2 -1 3 -1l15 25l9 5l16 22h8z" />
    <glyph glyph-name="currency" unicode="&#xa4;" horiz-adv-x="606" 
d="M561 204l-29 -29l-100 101q-57 -45 -129 -45q-71 0 -128 45l-101 -101l-28 29l101 100q-45 57 -45 128t45 128l-101 100l28 29l101 -101q58 46 128 46q71 0 129 -46l100 101l29 -29l-101 -100q45 -57 45 -128t-45 -128zM466 433q0 67 -47.5 114t-114.5 47t-114.5 -47.5
t-47.5 -113.5q0 -67 47.5 -114.5t114.5 -47.5t114.5 47.5t47.5 114.5z" />
    <glyph glyph-name="yen" unicode="&#xa5;" horiz-adv-x="538" 
d="M533 498l-3 -12l-6 -2l-3 -14l-22 -6q-21 -27 -33 -27l1 -10l-9 -7l-8 -13l-20 -9l-8 -12l-9 -12l-10 -8l-7 -17l-14 -2l-11 -13l-18 -10l-5 -7q-24 -19 -31 -25q-12 -12 -13 -20l-11 -3l-5 -7h-4l-3 -8l-15 -10l11 -11l1 -11q3 -5 8 -5q2 0 5 1l16 4l6 -4l26 6
q5 -4 12 -4q5 0 7 1l13 7l9 -4l7 4l7 -7l6 -3l-2 -8h-11l-9 -4l-10 7l-35 -13q-9 0 -22 1h-17q-17 0 -17 -5v-1q-4 -6 -4 -10q0 -1 2 -7q-5 -2 -5 -7q0 -3 3.5 -8t3.5 -11t13 -6l14 4l14 -4h30l10 5l12 -5l8 4l11 -2l16 3q3 -7 12 -7t18 4l7 -6q-5 -6 -21 -8l-35 4l-22 -8
l-46 4l-9 -6h-31l-6 -18l-2 -27l5 -13l-5 -12l2 -13l5 -11l-5 -12l-2 -15l2 -37l-2 -21l-8 -23l-3 -22l6 -21q-4 -13 -10 -43l4 -21l-4 -9l3 -13q2 -24 2 -32v-10q-1 -6 -1 -8l-7 -4l3 -28l-3 -19v-13q-5 -5 -7 -5q-9 0 -9 14l6 11l-5 20l2 24l-10 18l10 2l-5 11l3 3l-3 11
l5 12l-5 7l3 16l-5 20l7 20l-6 50l6 28q5 8 5 11q0 2 -2.5 6t-2.5 7v1q2 4 2 6q0 4 -7 8l3 34l-4 14l3 3l3 15l-3 1v15l-3 12l3 4l1 19l-3 20q-4 4 -11 4t-22 -7l-3 7l-19 -9l-29 3l-12 -9l-20 8l-43 -12l-5 12l-17 3l3 11h6l8 14h12l10 2l13 -4q24 -4 34 -4q8 0 20 2h11
l8 4l12 -4l11 6l19 -6l7 6l7 -2l2 14l-3 10l-3 28l-16 -8h-29q-9 3 -15 6l-5 -7l-18 3l-16 -9l-4 4h-14l-12 2l-12 -11h-1q-5 0 -18.5 12t-13.5 15q0 8 19 8q37 0 40 5q5 -5 19 -5q10 2 14 2q3 0 6 -3q6 6 11 6q4 0 9 -5q6 3 11 3q7 0 16 -3l1 5q1 2 6 2h10q6 0 9 1l-5 23
l-11 10l-5 15l-12 7l-3 7l-10 7l1 5l-8 4l-4 14l-7 11l-9 7l-4 12l-16 15l3 7l-13 12v5l-6 2q-11 8 -11 13q1 3 3 5l-8 4l-7 7l-13 1v8l-7 3v12h-13l-9 33l-13 8v3q0 7 6 8l5 -5l7 2l8 7l9 -6q14 -1 31 -12q0 -19 19 -32l9 -18l9 -7l22 -41l16 -21l6 -13l8 -3l7 -25l23 -30
q10 -13 24 -13q3 0 3 6l10 9l4 -4l11 15l11 8q0 -1 -1 6q0 3 10 3h5l2 14q11 0 16 2q3 10 16 19q15 17 18 17q1 0 1 -2l7 17l9 4q4 6 23 25q14 5 15 19l16 6l5 5q18 21 18 25q0 2 -2 5l16 15l4 -2l7 21q16 13 28 13t21 -16z" />
    <glyph glyph-name="brokenbar" unicode="&#xa6;" 
d="M272 329h-44v370h44v-370zM272 -171h-44v370h44v-370z" />
    <glyph glyph-name="section" unicode="&#xa7;" horiz-adv-x="440" 
d="M378 217q0 -15 -15 -30t-17 -21l6 -19h6l4 -25l10 -13l-10 -29h6l-11 -42l-14 -12l-15 -28q-7 -13 -58 -29l-17 -10l-19 2l-14 -11l-15 9q-6 -16 -26 -17l-17 13l-15 -5l-19 11q-16 8 -32 15q-28 16 -51 42q-17 19 -17 79q0 14 24 18l13 6l11 -9l14 -1v-21l-20 -20
l-1 -22q5 -13 15 -26l13 -3l5 -12l14 -7h16l10 -10l20 -2l19 -7q4 -1 12 -1t12 1q8 0 15 9l10 -2l7 5q3 -1 9 -1q24 0 30 14l14 6l18 16l5 13l16 14l5 13l1 27q-5 28 -6 34q-4 12 -9 13l-42 30l-21 2l-15 15l-45 4q-29 6 -36 8q-14 3 -17 8q-12 13 -26 21h-2q-2 -1 -3 -1
q-10 0 -23 11v5q0 16 -15 30q-10 9 -10 26q0 16 1 25q33 24 33 42q0 17 -19 48q-6 14 -6 25t6 29q12 2 15 32l14 8h4q8 10 24 29l24 6q4 9 15 9h6l4 -7q16 13 21 13t23 -6l19 5l22 -5l13 -9l26 -4l4 -10q0 -10 14 -13l11 -8v-13l13 -15q8 -12 12 -29l-6 -14
q-4 -17 -16.5 -29.5t-21.5 -12.5q-12 0 -19 19v14l12 21l-7 17l8 19q-1 10 -13 17q-21 12 -24 14l-20 7l-10 -3l-6 2l-14 -9q-20 0 -37 10q-32 -16 -46 -36q-29 -10 -29 -32v-3q-13 -4 -13 -20v-4l2 -12l8 -12q8 -22 12 -28q5 -9 16.5 -10.5t13.5 -1.5q7 -3 12 -11l20 -2
q14 -14 34 -14h4l75 -15v-10l29 -4l6 -15l23 -13l13 -16l2 -29q6 -12 6 -20zM339 234q0 15 -33 48l-27 7l-22 9l-9 -3l-30 14l-32 5q-9 1 -27 13t-29 12q-9 0 -20 -10t-11 -19q0 -41 54 -73q5 -3 20 -3q4 0 23 -3t34 -4l7 -6l22 -3l7 -7h5q21 0 28 -17l7 1l8 -5l16 4
q9 23 9 40z" />
    <glyph glyph-name="dieresis" unicode="&#xa8;" 
d="M370 551l-6 -16l-12 -6q-7 -9 -18 -13q-5 0 -9 -2l-8 -3q-14 11 -30 29l-2 16l9 11l-2 6l4 4l-2 5q6 2 6 5q2 -1 4 -1t2 2v2h3q4 0 5.5 4.5t4.5 4.5l3 -2l11 -3l12 -1l11 -14l8 -4v-7l5 -3l-2 -11zM205 563l-3 -3l2 -11l-5 -3v-7l-7 -4l-12 -14l-11 -1l-12 -3
q-4 -2 -5 -2q-2 0 -3.5 4.5t-5.5 4.5h-2q0 5 -4 5h-2l-6 3l2 5l-4 4l2 6l-9 14l3 14q1 6 12.5 13.5t16.5 14.5l8 -3l9 -1q8 -3 18 -14l12 -5z" />
    <glyph glyph-name="copyright" unicode="&#xa9;" horiz-adv-x="271" 
d="M253 605q0 -46 -32.5 -78t-79.5 -32q-43 0 -75.5 33t-32.5 79q0 42 32.5 75t77.5 33t77.5 -32.5t32.5 -77.5zM237 605q0 39 -27.5 66t-66.5 27t-66 -27.5t-27 -65.5t27.5 -65.5t65.5 -27.5t66 27t28 66zM195 586q0 -48 -53 -48q-55 0 -55 68q0 29 16 47t42 18
q47 0 49 -42h-27q-2 22 -23 22q-28 0 -28 -45q0 -44 28 -44q22 0 24 24h27z" />
    <glyph glyph-name="ordfeminine" unicode="&#xaa;" horiz-adv-x="206" 
d="M218 260l-8 -5l-2 -5h-5l-4 -3l-3 3l-4 -3l-15 12v13l-4 4l1 18l-4 38l3 14l-5 5l6 4l-4 5l1 6l4 2l-1 7h3v19h4l-3 4l-9 -4l-4 -6l-4 -3l-1 -7l-7 -3l-1 -9l-4 -3v-4l-6 -4l-2 -6l-5 -2l-9 -17l-14 -15l-5 -7l-13 -13l-2 -7l-17 -12l-20 -23l-9 -3l-7 -5q-5 1 -9 9
q-23 11 -24 26l4 2l-3 12l-1 12l-3 3l3 4l2 17l5 21q-1 3 -1 7q0 2 1 4q-1 2 -1 6q0 5 1 7l3 1q5 5 5 10q0 3 -4 9l3 3q-4 0 -4 3t6 3q0 7 8 21h-5l9 12v5q0 13 8 21v11l2 1q-2 4 -2 6q1 2 3 2h1v10q3 0 3 2v2q-1 1 -1 2q7 8 17 22h3q4 0 4 2q0 1 -1 3q12 0 13 5l10 5l31 -2
v-2l26 -6h3q5 0 5 -4h3q3 -4 9 -4l6 -5l13 -3v-6l8 6l13 3v-9h-3l5 -4l5 -15l-6 -7l-3 -14l-4 -7l3 -8q-2 -2 -4 -5t-2 -8t1 -7l-1 -6l1 -5l-1 -5v-6l-4 -5v-18q1 -1 1 -4q0 -1 -1 -4l1 -4l-3 -6l-2 -8l2 -8l-6 -7q1 -1 6 -7l-4 -8l-3 -16l5 -1l-1 -3q1 -2 1 -5q0 -6 -4 -11
h3l2 -10h12l2 -10q2 -4 6 -7zM230 210l-11 -14l-6 4l-17 -3l-24 -7l-32 5q-8 -2 -11 -2q-5 0 -11 3l-15 2l-28 -3l-30 -5q-8 5 -14 5q-5 0 -10 -3l-9 -5l2 4h-8l-10 13v15l7 1l4 10l5 -9l12 8q6 0 10 -6q2 -1 8 -1q11 0 11 6l17 -5l16 1q-3 -3 -3 -5q0 -4 3 -4q2 0 6 2l2 9
l10 -3l15 2q2 1 5 1q5 0 10 -5l16 -3l10 4q10 -5 18 -5t20 5l11 -5h17q-2 -1 -5 -1q6 -3 9 -6zM179 467l-1 5l-2 4l-9 4l-15 13q-1 1 -6 1h-3l-3 3h-9l-2 3l-7 -2l-2 2l-5 -1q-1 0 -4 1h-5q-5 0 -9 -2l-8 -6l-6 -3l-5 -2v-3q-10 -7 -13 -17l-4 -14l-6 -14l4 -2l-7 -5l2 -6
q-4 -5 -4 -14v-5l-4 -5v-10l-4 -4v-6l-3 -1v-10l-2 -3q0 -9 -3 -15l3 -6q-3 -2 -7 -7l3 -3l-4 -5l5 -11l-6 -7l1 -12l-2 -6l3 -2l1 -4l4 -1l4 -4l12 3q3 6 12 8l-1 4l9 2q0 4 6 8l2 2l10 12h-2l8 8l7 2l4 11q3 1 8 6l3 4h3l5 7l-1 5l5 1v2q0 2 1.5 5.5t6.5 10.5l3 -1
q0 5 6 9q2 6 8 10h4l1 7l-1 4l5 7l3 3v6l5 2l-1 6l2 4l1 5l5 5z" />
    <glyph glyph-name="guillemotleft" unicode="&#xab;" horiz-adv-x="400" 
d="M378 336q-4 -8 -16.5 -13.5t-12.5 -11.5q0 -1 1 -5l-6 -2l-9 -10l-21 -7l-8 -13h-4q-6 0 -18 -5l3 -3l-26 -29l-14 -12q-11 -7 -13 -13v-6l13 -30q14 -20 19 -34h-7l9 -12l5 -2l4 -18l9 -16l3 -11l20 -19q-4 -4 -6 -9q0 -6 6 -14l21 -27h-12l-11 11l-9 7l-11 21
q-10 19 -26 30l-2 11l-27 25v9l-9 9l-1 11l-8 2l-12 20l-25 5q-9 0 -9 8v7l13 6v16l3 9q7 3 9 7l18 -3q3 3 6 3h4q4 0 9 10q9 16 23 31l24 25q1 5 10.5 9t12.5 14l16 19q10 3 10 11q8 3 11 12l14 -1l15 -5l7 -8zM286 402q-9 0 -12 -4t-10 -14l-14 -3l-9 -13l-16 -7v-8
l-11 -3l-3 -8l-18 -11l-9 -11l-18 -7l-1 -7l-9 -7l-14 -7l-15 -20l-10 -6l-14 -7l-8 -10v-7l-5 -2l-3 -15l7 -4l7 -20l7 -7l3 -18l9 -19l5 -19l15 -17l5 -11l5 -1l-1 -9l5 -7l12 -32l9 -8l16 -21l6 -3l-1 -13l-17 -9l-12 20l-13 8q-5 7 -11 15v7l-16 29q-6 8 -12 17
q-6 2 -11 9l-5 20l-12 12l-2 7l-13 9l-2 6l-10 3l2 18l-29 26l-2 9l-7 9l9 3l13 10l11 3l6 11l11 2l2 12l15 11l19 9v12l30 27h10v15q12 10 15 10q7 0 14 10l18 6q3 8 7 12l3 18l16 9q13 11 14 23q4 2 20 5q12 -4 18 -15t11 -22z" />
    <glyph glyph-name="logicalnot" unicode="&#xac;" horiz-adv-x="833" 
d="M709 173h-39v206h-546v39h585v-245z" />
    <glyph glyph-name="minus" unicode="&#xad;" horiz-adv-x="833" 
d="M709 279h-585v39h585v-39z" />
    <glyph glyph-name="minus" unicode="&#x2212;" horiz-adv-x="833" 
d="M709 279h-585v39h585v-39z" />
    <glyph glyph-name="registered" unicode="&#xae;" horiz-adv-x="271" 
d="M253 605q0 -46 -32.5 -78t-79.5 -32q-43 0 -75.5 33t-32.5 79q0 42 32.5 75t77.5 33t77.5 -32.5t32.5 -77.5zM237 605q0 39 -27.5 66t-66.5 27t-66 -27.5t-27 -65.5t27.5 -65.5t65.5 -27.5t66 27t28 66zM193 546h-28l-23 48h-17v-48h-26v118h43q50 0 50 -34
q0 -25 -25 -32zM166 628q0 18 -25 18h-16v-34h17q24 0 24 16z" />
    <glyph glyph-name="macron" unicode="&#xaf;" 
d="M383 552l-10 -14l-19 4l-41 -9l-32 4l-22 -4l-15 1l-21 -4l-7 2l-30 -6q-5 5 -12 5q-10 0 -21 -7l-12 4h-9l-9 22v16h7l4 10l9 -7l10 -2l12 8q4 -1 9 -4t9 -3q11 0 12 6l17 -4h15q-3 -3 -3 -6q1 -3 4 -3q2 0 5 2l2 6l10 -3l15 2q1 1 4 1q5 0 11 -6l16 -3l10 5q8 -5 19 -5
q10 0 19 4l11 -5h12q21 0 21 -7z" />
    <glyph glyph-name="macron" unicode="&#x2c9;" 
d="M383 552l-10 -14l-19 4l-41 -9l-32 4l-22 -4l-15 1l-21 -4l-7 2l-30 -6q-5 5 -12 5q-10 0 -21 -7l-12 4h-9l-9 22v16h7l4 10l9 -7l10 -2l12 8q4 -1 9 -4t9 -3q11 0 12 6l17 -4h15q-3 -3 -3 -6q1 -3 4 -3q2 0 5 2l2 6l10 -3l15 2q1 1 4 1q5 0 11 -6l16 -3l10 5q8 -5 19 -5
q10 0 19 4l11 -5h12q21 0 21 -7z" />
    <glyph glyph-name="degree" unicode="&#xb0;" horiz-adv-x="167" 
d="M179 428q0 -4 -1 -6l-12 -32l-8 -5l-13 -12l-15 -4l-6 -12l-43 1q0 1 1 1v1t-2 1t-10 -3l-33 -4l-3 12q-16 15 -16 43q0 3 3 16l-10 13l4 4l2 11l5 1q0 12 12 15q-2 3 -2 7q0 7 6 7h8l1 5l12 2l11 14l4 -2l7 6l10 -2l3 2l10 -2l2 -7l12 3l11 -8l11 -2q3 -1 9 -7l4 -11
l19 -18l5 -9l-3 -5q0 -3 2.5 -5.5t2.5 -8.5zM156 421q-9 18 -9 25l-2 14l-9 3l-2 11q-3 2 -10 5q-3 0 -9 1t-9 1q-16 0 -34 -18l-7 -7l-2 -9l-14 -32l4 -13l-4 -10l7 -5l9 -12l17 3l9 -3q7 0 11 1.5t16 3.5q5 5 19 7l-1 3q7 1 7 6l7 10l-1 7z" />
    <glyph glyph-name="plusminus" unicode="&#xb1;" horiz-adv-x="833" 
d="M709 355h-273v-172h-39v172h-273v39h273v173h39v-173h273v-39zM709 30h-585v39h585v-39z" />
    <glyph glyph-name="twosuperior" unicode="&#xb2;" horiz-adv-x="376" 
d="M368 200l-2 -3q-3 -3 -9 -7l-9 -4l-4 1h-9v-4q-3 1 -7 1q-6 0 -9 -3q-2 1 -5 1h-3l-7 2h-7l-9 5h-6l-1 -3l-8 6l-6 -1q-4 6 -8 6h-1q-6 -1 -7 -1q-6 0 -6 6q-6 -2 -8 -2q1 0 -15 2q-1 3 -3 6q-1 0 -6 -2q-3 0 -8.5 3t-9.5 4q-1 -1 -4 -1q-5 0 -11 6h-12q-5 0 -10 6l-4 -3
l-5 3h-4l-6 1q-6 -8 -15 -8l-3 -1l-2 2l-5 -7q-8 0 -15 -1.5t-12 -6.5l-11 -1v-2q0 -2 -2 -2q-4 1 -7 4q-4 -4 -8 -4h-14l-23 8l-5 5l-2 7q0 6 -1 9l4 5l-1 4q6 6 16 7l8 7l7 -1l5 3q5 2 13 6l3 -1q17 3 21 3q2 0 4 -2h17l12 -2q9 -4 18 -6l9 1l4 -3q8 8 12 8q-2 0 3 -1
l15 6l-1 2q7 2 14 5v1l4 8l12 6l21 9q-2 2 -3 4q0 3 5 5v4q9 3 12 3h1q0 -1 1 -1q4 7 13 12l3 12l13 2q1 10 10 10l5 7l6 1l2 8q0 4 3 10t3 9v2q2 3 4 3l4 10l-5 4q5 0 6 3q0 6 -2 10v10l-10 16q-2 8 -10 11l-24 13l-4 7l-9 -3l-9 6h-9l-5 8l-9 -3l-12 3l-5 -1l-8 2l-12 -2
l-5 2l-6 -2l-5 2l-8 -2l-13 1q-2 -5 -6 -5q-1 0 -5 1l-12 -7h-8l-2 -4l-9 -3q-2 1 -5 1t-11 -9h-10v-6l-5 -1q-2 -5 -6 -5l1 -4l-11 -3v-2q0 -3 -8 -8l-1 -5l-14 -1l-6 5l-5 12v3q0 9 6 11l2 -2q1 6 5 14l6 -5l4 8h9l2 5l24 12l7 -2l6 6l7 1v2q9 6 20 6q8 0 12 -1q15 9 28 9
h5l20 -2l17 1l8 -2q2 -2 6 -2h4q12 -2 25 -11l6 2l5 -2q4 -7 14 -7l5 -8l18 -7l21 -21l3 -8l-1 -7l9 -3l-2 -5l4 -6l-2 -9l3 -10l-3 -6l1 -10q-5 -7 -13 -21l-6 -12q-1 -2 -16 -12l-5 -11l-7 -3l-1 -3h-6q1 -1 2 -3q0 -5 -16 -11q-6 -4 -14 -14l-11 -8h-3q-11 0 -11 -5v-2
q-1 0 -1 1h-2q-5 0 -9 -8.5t-18 -13.5l-5 1l-2 -6q-2 0 -6 -3l-7 -6h9l4 -5q1 2 4 2t5 -1q4 -6 10 -6l7 1l1 -5l10 2l4 -6h9q6 -9 18 -9q3 0 3 1v1l26 -9q4 -2 5 -2t2 1h1l6 1l6 -4l31 -3l8 3h9q0 4 8 4h4zM125 234q-16 6 -24 6h-6q-5 0 -10 3q-4 -2 -8 -2h-3l-8 -4h-2
q-6 0 -9 -4l-5 -6l-3 -5l3 -4l7 -4l10 -2l9 3h5l4 3l21 5z" />
    <glyph glyph-name="threesuperior" unicode="&#xb3;" horiz-adv-x="374" 
d="M340 264l-9 -8l-2 -10l-10 -5h-5v-5l-6 -1l-8 -9l-10 -2q-6 -3 -19 -7q-4 -7 -22 -8q-2 -2 -28 -9l-8 2l-29 -8h-11l-13 3q-8 0 -13 -3l-14 -1l-10 1l-7 -1q-9 3 -12 3l-8 -3q-1 0 -3.5 2.5t-4.5 3.5q-2 -5 -6 -6q-1 1 -3.5 2.5t-4.5 1.5q0 -4 -2 -4l-5.5 2t-12.5 3
l-1 -2l-7 6l-8 -4l-6 2q-1 0 -1 1h-1t-3 -2t-3 -2q0 1 -1 1v1q0 3 -10 4q-6 0 -6 22q0 11 8 11h4q3 3 15 4l19 2q6 -1 6 -6q-1 -2 -4 -4l-18 -2q-8 -1 -9 -9l-4 -3q12 -5 28 -6q5 -3 7 -3t10 4l1 -4l20 4q7 -2 7 -9q14 7 36 7q8 0 13 -2q2 5 5 5q1 0 4 -2.5t5 -2.5
q10 8 13 8h1q3 -5 13 -5q-7 0 14 3l12 -1l12 9h5q4 -1 5 -1q11 0 18 7q4 -1 10 -1q2 0 4 1l-1 6l11 7l9 -1q9 5 31 23l2 8q0 2 1 5v4q0 10 -18 13l-12 9l-19 4l-14 -3l-5 6l-7 -2l-12 10l-6 -5q-6 2 -10 2l-8 -2q-5 5 -10 5q-9 -4 -21 -5l-4 4l-18 2l-12 5l-13 -1l-11 6
l-6 4v9l-2 7l11 1q9 8 25 9q13 1 14 4l21 -1q5 3 7 9l14 3l5 3h15l2 5h4q13 0 13 5q-1 5 -1 4q3 2 21 4q0 2 5 5t7 7q12 4 17 8q0 1 1 3v3v2q-1 0 -1 1q1 1 2 1q-4 16 -23 20l-27 6l-16 -1q-6 2 -17 2t-17 -1h-8l-10 -3l-12 3h-7l-5 -6l-11 -1q-3 -1 -9 -5l-3 3l-9 -3l-3 2
l-6 -4q-2 -4 -5 -4q-4 0 -7 2h-2q-7 0 -13 -7h-1q-13 0 -21 -15q-10 0 -11 -6l-9 4l-5 7l-1 2t-2 3v4q0 2 -1 4l8 5q2 3 5 3q6 -1 5 -1l4 4h9q4 0 4 1t-1 2q6 3 14 4t12 7h9l7 4l7 1q2 -2 4 -2l5 1h9l10 2q10 2 19 5l11 -2q8 4 19 4h4q4 -2 10 -2h1q3 0 7 -4l12 4l13 -1
q3 1 10 1v-2l12 -4q1 -2 11 -4l15 -3l7 -9l11 -9l6 -11q-2 -4 -10 -18l-4 -6q-6 -9 -19 -12l-6 -7l-12 -5l-16 -3l-9 -7l-14 -3l-12 -6q-1 1 -3 2q-3 0 -4 -4h-8l-4 -4l-13 -3l-9 -5l-3 1q-5 -2 -5 -7q1 -3 5 -3l8 -2l4 -2l9 2l4 -2h10q1 -2 6 -2h3l10 2l10 -5l8 3q4 0 5 -3
q14 -6 32 -6q5 -5 14 -5h3l11 -1l10 -7h7l9 -10l4 -16l7 -6l-1 -5z" />
    <glyph glyph-name="acute" unicode="&#xb4;" 
d="M369 655l-4 -13l-3 -15q-20 0 -26 -14l-3 2l-36 -36l-6 2l-14 -19l-8 -2l1 -9l-14 -5v-8l-9 -3l-10 -18l-3 -7l-9 -4v-8l-8 -4l-16 -16l-15 14l11 9l5 18l20 11l12 23l9 2l6 19l4 -3v5l6 2l4 8l12 11q36 33 36 44v1q3 8 9 8l14 16l11 2l5 -2q19 -5 19 -11z" />
    <glyph glyph-name="mu" unicode="&#xb5;" horiz-adv-x="513" 
d="M516 150q0 -39 -26 -86q-40 -71 -103 -71q-70 0 -70 85q0 3 1 8v8q-42 -104 -132 -104q-93 0 -107 103q-13 -111 -27 -223q-10 -73 -42 -73q-34 0 -34 30q0 19 23 113q35 145 54 238l53 254h58l-54 -253q-4 -19 -4 -43q0 -47 23 -75t59 -28q98 0 136 164l54 235h58
l-57 -257q-13 -59 -13 -87q0 -46 37 -46q43 0 64 50q10 27 20 53q7 20 16 20q13 0 13 -15z" />
    <glyph glyph-name="mu" unicode="&#x3bc;" horiz-adv-x="513" 
d="M516 150q0 -39 -26 -86q-40 -71 -103 -71q-70 0 -70 85q0 3 1 8v8q-42 -104 -132 -104q-93 0 -107 103q-13 -111 -27 -223q-10 -73 -42 -73q-34 0 -34 30q0 19 23 113q35 145 54 238l53 254h58l-54 -253q-4 -19 -4 -43q0 -47 23 -75t59 -28q98 0 136 164l54 235h58
l-57 -257q-13 -59 -13 -87q0 -46 37 -46q43 0 64 50q10 27 20 53q7 20 16 20q13 0 13 -15z" />
    <glyph glyph-name="paragraph" unicode="&#xb6;" horiz-adv-x="457" 
d="M394 491q0 -5 -1 -7l-4 -1l-4 -5l1 -5q-3 -8 -10 -8q-1 0 -7 2l-6 -4l-8 1l4 -34l-9 -40l6 -36l-10 -20l2 -50l-11 -33l7 -4q-9 -30 -9 -42q0 -7 3 -16l-6 -25l7 -25l-11 -26l-2 -53l-7 -15l2 -80l-11 -37l3 -61q-1 -24 -11 -37l-6 12q5 23 5 33q0 14 -7 20l5 27l-1 19
l5 15l-6 20l7 18l2 52l-4 23l5 25q-4 29 -4 49q0 18 8 47l-2 12l6 12l-5 34l7 19l-3 21l4 12l1 20q4 26 4 47q0 25 -3 47l-3 22l3 18l1 20l-5 -2l-12 6l-11 -6q-3 6 -10 6q-6 0 -9 -2h-10l2 -18l4 -4l-1 -11l2 -17l-6 -15l3 -22v-24l4 -6l-10 -28l3 -30l-8 -10q2 -5 6 -25
v-51l-8 -28l2 -36q-3 -10 -3 -20q0 -14 4 -25q-6 -2 -6 -12q0 1 1 -15t1 -33q0 -22 -1 -36l-16 -61l8 -18l-3 -15v-18l-10 -4l-3 9l-8 13l4 12l-4 16l8 22q1 3 1 9q0 11 -5 23l7 46l-5 10l5 28q1 3 1 8q0 8 -6 14l2 88q1 6 1 13v7q-1 5 -1 7q0 9 3 17l5 3q-3 15 -3 25
q0 11 3 21l-11 -2l-7 -11h-7l-4 -10l-19 -9q-9 -2 -20 -5l-16 -6h-4q-10 0 -15 9h-4q-6 0 -12 -4q-36 6 -39 12t-3 8q0 4 1 6q-6 0 -6 4t2 6l1 9l-3 11l4 19l-7 7q2 10 10 21l3 14l12 14l-2 8l3 8l11 9l8 18l8 2l15 29l10 6l15 16l16 3q10 19 32 19l19 9q9 -3 16 -3
q2 0 20 4q12 -4 15 -4q2 0 4 1l8 2l6 -4l3 2l4 -2q2 0 8 4l15 -1l10 -7l13 6q5 -5 11 -5q4 0 10 3l8 -2l9 2q6 -3 6 -10z" />
    <glyph glyph-name="periodcentered" unicode="&#xb7;" horiz-adv-x="243" 
d="M163 261l-6 -16l-11 -6l-12 -10q-3 -2 -12 -4h-2q-4 0 -10 -3q-7 7 -21 15q-9 6 -9 10v1l2 23l6 7l-1 9q5 9 13 12l12 10l11 -3l15 -3l12 -14l7 -3v-8l5 -3l-2 -11z" />
    <glyph glyph-name="periodcentered" unicode="&#x2219;" horiz-adv-x="243" 
d="M163 261l-6 -16l-11 -6l-12 -10q-3 -2 -12 -4h-2q-4 0 -10 -3q-7 7 -21 15q-9 6 -9 10v1l2 23l6 7l-1 9q5 9 13 12l12 10l11 -3l15 -3l12 -14l7 -3v-8l5 -3l-2 -11z" />
    <glyph glyph-name="cedilla" unicode="&#xb8;" 
d="M346 -162l-16 -15l-13 -8l-7 -12l-32 -3q-5 -6 -13 -9l-58 7l-5 12l14 5q5 -8 12 -8q4 0 6.5 2t3.5 2l5.5 -2t10.5 -2t8.5 2.5t9.5 2.5q4 0 6 -1l3 6q7 5 12 5q2 0 8 -2l11 13l2 16l5 14l-3 18l-6 2q2 3 2 8q0 13 -23 16l-32 4l-14 -7l-11 2l-14 -19l-7 3q-10 -2 -16 -12
l-7 25l3 -4v11l4 -4l16 33q4 1 4 4q0 1 -1 4l7 3l-3 13l3 5v9l6 4l-4 14l4 8l1 11l9 -1v3h4q6 -15 16 -19q-6 -5 -6 -10q0 -3 6 -3l-9 -3l2 -13l-5 -7l1 -7q0 -18 15 -18h7q6 3 10 3q7 0 11 -8h14l7 -8l11 -1l12 -19l13 -16l-4 -25z" />
    <glyph glyph-name="onesuperior" unicode="&#xb9;" horiz-adv-x="324" 
d="M306 203q-1 -3 -6 -3l-28 -1l-24 -5l-26 5q1 -1 1 -2q-1 0 -6 -2q-10 4 -18 4q-3 0 -17 -2l-16 1l-4 -2l-23 3l-7 -1l-1 4l-19 -4l-13 -1l-7 -3l-4 3h-2q-3 0 -5 -2t-3 -2h-1l-3 2h-9q-4 -2 -6 -2q-4 0 -13 5q0 -1 1 -2q0 -1 -6 -3q-10 0 -11 4l-2 3l-9 3l3 3l-5 8
q7 7 20 7h2q3 -3 7 -3t14 2l10 1l13 4l15 -1l19 -5q4 -1 8 -1q7 0 14 3l-2 7l2 4l-7 13l1 9q-2 4 -2 5q1 3 3 3q-3 6 -3 24q0 4 7 7l1 6l-2 10q3 5 3 8q0 5 -7 11l-1 6l5 2l-3 6l5 10l-4 10l6 6l4 19v2q0 6 1 9l5 3l-5 8q-1 1 -1 4q0 4 4 8l1 4h-9q-4 2 -7 2t-8 -2t-9 -2
l-13 -5h-7l-11 -5l-8 -2l-8 -8l-7 3l-10 -2q-7 -1 -21 -8q-5 3 -15 5l-12 5l-3 5q3 6 9 6q7 -1 6 -1q3 -5 10 -5l10 2h6q4 -1 5 -1t3.5 3t5.5 4l18 5h4q8 0 14 4q10 7 11 7l4 -2q4 0 6 7q10 1 10 3q0 1 -3 2h8q3 0 4 4l2 6l-3 3l3 2l9 -2q16 3 16 11q-1 7 -1 8q0 3 3 9l18 4
h17l8 -8q1 -2 2 -6q0 -3 -2 -3l-20 -17q-2 -2 -2 -4q0 -4 7 -8l-9 -5q0 -2 2 -6l-10 -8q1 0 1 -1t-2.5 -5.5t-2.5 -8.5l1 -6l-3 -9q-3 -9 -4 -22l-4 -6l3 -5l-7 -12l2 -10l-2 -9h-3l4 -10l-4 -11q3 -7 3 -9q0 -3 -5 -5q6 -6 6 -10l-6 -4q2 -4 2 -5t-1 -2q2 -8 2 -12
q0 -7 -4 -10q2 -8 7 -9q-2 -6 -2 -7q0 -3 3 -5q-1 -1 -2 -4q0 -3 8 -9q2 -5 7 -5h2l4 4l5 -2l9 2l1 -5l16 5l-1 -4l16 -3q3 1 9 1q5 0 11 -3h7q6 1 13 2t9 1t9 -1t12 -2l2 -4l5 4q7 -4 7 -6z" />
    <glyph glyph-name="ordmasculine" unicode="&#xba;" horiz-adv-x="249" 
d="M221 427l-4 -14l2 -4l-2 -17l-5 -7v-7l-2 -3l-2 -9l-6 -8l-4 -12l-4 -2l-2 -8l-6 -4l-5 -10l-9 -5l-1 -7l-8 -4l-5 -8q-1 -2 -18 -9l-2 -4q-8 -7 -15 -7q-1 -4 -7 -4q-1 0 -3 1h-3l-8 -6l-7 -3l-5 -7l-8 5l-2 -4l-9 4l-21 2l-5 10l-10 11l2 8l-8 22l3 7l-3 17l3 9
q-1 5 -1 13q0 10 6 12q0 10 3 17h4q1 2 4 11l-1 5l1 8v6q5 7 5 13l-2 10q1 6 6.5 10t5.5 6q0 3 -3 6l6 11q2 3 7 5l-2 7q10 1 10 12l-2 8q10 0 14 2q8 7 13 18h3q5 5 8 5q1 0 7 -2l10 -2l10 5v-5l6 -1l9 -5h8l7 -6q6 -10 14 -14l3 -7l5 -3l10 -14l9 -28v-5zM230 210l-11 -14
l-6 4l-17 -3l-24 -7l-32 5q-8 -2 -11 -2q-5 0 -11 3l-15 2l-28 -3l-30 -5q-8 5 -14 5q-5 0 -10 -3l-9 -5l2 4h-8l-10 13v15l7 1l4 10l5 -9l12 8q6 0 10 -6q2 -1 8 -1q11 0 11 6l17 -5l16 1q-3 -3 -3 -5q0 -4 3 -4q2 0 6 2l2 9l10 -3l15 2q2 1 5 1q5 0 10 -5l16 -3l10 4
q10 -5 18 -5t20 5l11 -5h17q-2 -1 -5 -1q6 -3 9 -6zM197 415q0 2 -1 3.5t-1 2.5t2 1l-3 7l-4 8l1 12l-4 9q-4 1 -6 5v1q0 2 -2 3t-2 2v1q0 5 2 8l-3 2l-6 1l-2 4l2 2l-7 4l-5 5l-15 6l-6 1q-10 -1 -15 -8v-17l-12 -1l-16 -11l-1 -6l-6 -3l-3 -15l-5 -5q-3 -3 -3 -8
q0 -1 2 -9l-6 -4l-2 -10q0 -5 -5 -8v-5l-6 -8v-5l-1 -3v-8l-6 -18l2 -4v-13l-2 -9l1 -13l9 -13l8 -4l2 -2l3 1l4 -1l6 2l13 -1l6 2l2 4q2 -1 5 -1q7 0 8 6l8 -2l2 4l5 1l3 6l5 3l1 5h9l1 5l10 7l6 9l10 5l2 8l3 8l-2 4l8 3l-1 3l4 5l2 3h-2q2 4 2 7t-1 4q2 6 2 8t-2 8
q3 3 3 6z" />
    <glyph glyph-name="guillemotright" unicode="&#xbb;" horiz-adv-x="400" 
d="M378 215l-9 -3l-13 -10l-11 -2l-7 -11l-10 -2l-3 -12l-15 -12l-18 -9v-12l-30 -27h-11l1 -14q-15 -11 -16 -11q-7 0 -14 -10l-17 -5q-4 -10 -7 -13l-4 -17l-16 -10q-12 -11 -14 -22q-14 -6 -19 -6q-12 3 -17.5 15t-11.5 23h2q6 0 11 5q0 1 8 12l14 4l10 12l16 8v7l10 3
l3 9l19 10l9 11l17 8l2 7l9 6l14 7l15 21l10 5l13 7l8 11v7l6 1l3 15l-7 4l-7 21l-7 7l-4 17l-8 20l-6 18l-14 17l-5 11l-6 1l2 10l-6 6l-12 33l-9 7l-16 21l-5 4l1 12l16 9l12 -20l13 -8q5 -6 11 -14v-7l17 -29q3 -5 12 -18q4 -2 11 -9l4 -20l13 -12l2 -7l13 -8l1 -6l11 -3
l-2 -18l29 -27l1 -9zM234 256l-13 -6v-16l-3 -9q-6 -3 -9 -7l-19 3q-3 -3 -6 -3q-1 0 -1 1h-2q-4 0 -10 -10q-10 -17 -23 -31l-23 -25q-1 -6 -10 -9t-13 -14l-16 -20q-11 -3 -11 -11q-8 -3 -11 -12l-14 2l-14 4l-7 9l-6 8q3 8 18 14q12 5 12 12v3q-1 1 -1 2l6 1l8 11l21 7
l9 13h4q8 0 18 5l-4 2l27 30l14 11q12 8 12 13v6l-12 30q-9 13 -10 17q-8 10 -10 17h7l-8 13l-5 1l-4 18l-9 16l-3 11l-20 19q3 3 5 9q-2 11 -5 15l-22 26h13l10 -10l9 -8l11 -21q10 -18 27 -30l1 -11l28 -25v-9l8 -8l2 -12l7 -1l12 -21l26 -4q9 -1 9 -9v-7z" />
    <glyph glyph-name="onequarter" unicode="&#xbc;" horiz-adv-x="977" 
d="M925 132q0 -8 -11 -14l-2 -5l2 -2q-9 -7 -12 -7q-5 1 -4 1q-5 0 -8.5 -4t-7.5 -4h-2l-6 -2l-10 -1l-1 -2h-10l-10 3l-6 -3l-9 5l-6 -2l-11 3l-6 -3v-7l-5 -6l1 -9l-2 -7l2 -7q-3 -1 -3 -5v-1l-4 -5l4 -10l-4 -4l-1 -5l3 -8l-5 -12q2 -1 2 -3t-2 -3v-2q0 -2 1.5 -5.5
t1.5 -4.5v-9l6 -3l6 -12q-1 -3 -6 -3q-2 0 -10 2l-1 10l-5 6v8l-5 5l3 5l-4 3l1 3l-2 10l2 4l-3 4l3 6l-2 9l4 14l-1 2l1 5l-2 2q0 5 5 8l-2 4v7v6q-1 2 -1 3l2 2v2q0 8 -10 11q-5 1 -31 4h-16l-5 3l-10 -3l-7 5l-13 -1l-4 3h-8l-5 2l-6 -4l-6 1q-10 -5 -23 -7l-4 -4l-7 -1
l-1 -3l-10 -3h-12q-2 0 -3.5 -1.5t-2.5 -1.5h-1l-3 5l-3 1l-4 6q5 11 14 12l3 6l3 2l10 5l21 2q6 1 8 6l13 -3l8 1l5 11l6 4h5l-2 6l12 3q3 10 10 14q0 2 5.5 6t8.5 9l6 5l4 7l8 4q0 10 6 11q3 9 12 15q4 0 4 3q-1 5 -1 4q13 5 15 9q-4 1 -6 7l10 6l1 6q2 11 12 14l4 -2
l3 -5l4 -2l-1 -3l1 -4l-4 -3l2 -6l-8 -8l-1 -7l-6 -2l-6 -13v-1q0 -3 -8 -9q-12 -11 -19 -19q1 -1 2 -4q0 -1 -6.5 -4.5t-8.5 -7t-7 -9.5q-1 -2 -4 -5l-10 -6v-4l-5 -3l-20 -16l10 -5h10l9 -4q3 3 4 3h4q7 -8 14 -8q5 0 14 2t12 2q5 0 11 -6h10q5 0 5 7v7l7 7l-1 6l3 5l-2 8
l4 2l-2 8q8 10 8 13v3h-2q1 2 5 8v14q3 1 3 6v5q2 6 2 8t-2 6v3q-1 1 -1 2q0 3 1 6l6 17l-1 16q2 7 9 7q6 -5 13 -14q1 -3 1 -10l-6 -7l1 -18l-3 -7l2 -3l-4 -6l1 -9h-1l-3 -9l-5 -13v-10l-12 -46l-4 -6l-1 -4l2 -6q2 -4 5 -4q2 0 6 2q5 0 9 -4l13 2l12 -6l14 3h2q4 0 7 4
l7 2l4 -3l6 5l3 3l10 2q3 6 10 10zM641 545q-3 -9 -9 -15q0 -8 -9 -13l-16 1l-23 -20l-7 -26l-15 -16l2 -6l-7 -3l-3 -10l-13 -6l-2 -14l-8 -9q-8 -11 -11 -23l-14 -16l-3 -19l-9 -9l-13 -36l-13 -13l-12 -32l-11 -7l-2 -23l-16 -11l2 -16q-16 -1 -16 -23v-2l-6 -1
q-5 -23 -13 -24l-6 -5v-18q-4 -7 -9 -12q-2 -8 -7 -20q-6 -4 -16 -28v-7l-5 -7l-8 -16l-9 -9l-3 -11l-1 -10l-16 -39l-5 -18l-12 -18l-22 3l9 22l-2 16q8 0 10 7q5 14 8.5 19.5t8.5 24.5l11 20l8 18l2 14l7 12l12 13v9q10 11 20 35l5 11l17 39q10 14 24 37v12l16 23l7 26
l8 3l3 20l9 3l9 13l4 27q12 4 16.5 17t8.5 25l15 14q5 7 21 47l18 29l25 46q4 6 15 22l17 4q2 1 5 1q6 0 10 -6q19 -15 19 -16zM292 222q-1 -2 -5 -2l-27 -1l-24 -4l-24 4q1 -1 1 -2q-1 0 -6 -2q-10 4 -17 4q-2 0 -16 -2l-16 1l-4 -2l-21 3l-7 -1l-1 3l-18 -3l-13 -1l-6 -3
l-4 3h-2q-3 0 -5 -2t-3 -2l-3 2h-9q-2 -1 -5 -1q-5 0 -14 4l2 -2q-1 -2 -6 -3q-8 0 -11 4l-2 3l-8 2l3 4q-5 5 -5 7q4 4 14 6q3 1 5 1q1 0 2.5 -1.5t5.5 -1.5t14 2l10 1l12 3l15 -1l18 -4q6 -2 8 -2q-2 0 13 3l-2 7l2 3l-7 13l1 9q-2 2 -2 4q1 2 3 2q-3 6 -3 23q0 4 7 7v5
l-1 10q3 3 3 7q0 6 -7 10l-1 6l5 2l-3 5l5 9l-4 10l5 5l4 18v3q0 1 1 4v3l5 4l-5 7q-1 1 -1 3q0 4 4 8l1 4h-9q-2 1 -6 1q-3 0 -8 -1.5t-8 -1.5l-12 -5h-7q-5 -2 -11 -5l-8 -1l-7 -7l-7 2l-10 -2q-9 0 -20 -7q-7 4 -14 4l-12 5l-2 5q3 5 8 5q2 0 6 -1q3 -4 10 -4q5 0 9 2
q3 0 6 -1t4 -1q-2 0 9 8l17 4h4q8 0 14 4l11 6q1 -1 3 -1q5 0 6 6q6 1 9 2q0 2 -2 2h7q2 0 4 4l2 6l-3 3l3 2l8 -2q16 1 16 10l-1 7q0 5 2 9l17 4h17l8 -8q1 -2 1 -6q0 -1 -1 -3l-20 -15q-1 -5 -1 -4q0 -4 6 -7l-8 -5q0 -4 2 -5l-10 -8q1 0 1 -1t-2.5 -5.5t-2.5 -7.5
q0 -2 2 -5l-4 -9q-1 -4 -3 -21l-4 -5l2 -5l-6 -11l2 -9l-2 -9h-3l4 -9l-4 -10q3 -7 3 -9q0 -3 -5 -5q6 -4 6 -9l-6 -4q2 -2 2 -4q0 -1 -1 -2q2 -4 2 -11t-4 -10q2 -6 7 -8q-2 -6 -2 -7q0 -3 3 -5q-2 -2 -2 -3q0 -3 8 -8q0 -5 7 -5h1l4 4l5 -2l8 2l2 -5l15 5l-1 -4l15 -3
q3 1 8 1t11 -3h7q5 1 12 2t8 1q-7 0 20 -3l3 -4l4 4q7 -4 7 -6z" />
    <glyph glyph-name="onehalf" unicode="&#xbd;" horiz-adv-x="938" 
d="M931 2l-2 -3q-2 -1 -5 -4t-4 -3l-8 -3l-5 1l-9 -1v-3q-2 1 -6 1t-9 -3q-1 1 -5 1h-2l-7 2h-7l-8 5h-5l-2 -3l-8 5l-5 -1q-3 6 -7 6h-2q-2 -1 -6 -1q-6 0 -6 6q-6 -2 -8 -2l-14 2q-1 3 -3 5q-1 0 -6 -1q7 0 -17 6q-1 -1 -4 -1t-10 5l-9 1l-2 -1h-1q-3 0 -9 6l-4 -2l-5 3
h-10q-5 -8 -14 -8h-3l-2 2l-5 -7q-5 0 -15 -2q-5 0 -10 -5l-11 -2v-1q0 -1 -1 -2q-2 0 -7 3q-6 -3 -7 -3h-14l-22 7l-5 5l-2 7q0 5 -1 8l5 5l-2 3q5 5 15 7l8 6h6l6 2l12 6l3 -1q15 3 20 3q2 0 4 -2h16l12 -2q8 -5 17 -5l8 1l4 -3q7 7 12 7q1 0 2 -1l15 6l-1 2l13 5l4 8
l11 6l21 8l-4 4q0 3 6 4v4l10 2q2 0 3 -1q3 8 12 12l3 11l12 2q1 9 10 10l5 6l5 1l2 8q0 3 3 8.5t3 8.5v2q1 2 4 2l4 10l-5 3q5 1 6 4q0 1 -2 9v9l-10 15q-1 7 -9 10l-24 13l-3 6l-9 -2l-8 5h-9l-5 7l-9 -2l-11 2l-5 -1l-7 2l-12 -2l-4 3l-6 -3l-5 3l-8 -3l-11 1
q-3 -4 -7 -4q-1 0 -4 1l-12 -7h-7l-2 -3l-9 -4q-4 2 -5 2q-4 0 -10 -9h-9v-5l-5 -1q-3 -5 -6 -5l1 -4l-11 -3v-1q0 -3 -7 -8l-1 -4l-14 -2l-5 5l-5 12v2q0 7 5 11l2 -2q1 11 5 12l6 -4l4 8h9l1 4l23 11l7 -2l6 6l6 1v2q9 6 20 6q7 0 10 -2q15 9 27 9h5l19 -2l16 1l8 -2
q4 -2 6 -2h4q11 -2 24 -10l5 2l5 -2q3 -6 13 -7l6 -7l17 -6l20 -20l2 -7v-8l8 -2l-2 -4l4 -6l-2 -9l3 -9l-3 -6l1 -9q-4 -6 -12 -20l-7 -11q-4 -3 -14 -11l-5 -11l-7 -2l-1 -3h-6q2 -2 2 -3q0 -4 -15 -10q-6 -4 -14 -13l-10 -7h-3q-11 0 -11 -5v-2q0 1 -2 1q-5 0 -8.5 -7.5
t-17.5 -13.5l-5 2l-2 -6q-3 -1 -5 -3l-7 -5h9l3 -6q2 3 5 3q1 0 4 -1q4 -6 9 -6l7 1l2 -4l9 1l4 -6h8q7 -8 17 -8q3 0 3 1v1l25 -8q2 -2 5 -2h2l7 2l5 -4l29 -3l8 3h9q0 4 8 4h3zM641 545q-3 -9 -9 -15q0 -8 -9 -13l-16 1l-23 -20l-7 -26l-15 -16l2 -6l-7 -3l-3 -10l-13 -6
l-2 -14l-8 -9q-8 -11 -11 -23l-14 -16l-3 -19l-9 -9l-13 -36l-13 -13l-12 -32l-11 -7l-2 -23l-16 -11l2 -16q-16 -1 -16 -23v-2l-6 -1q-5 -23 -13 -24l-6 -5v-18q-4 -7 -9 -12q-2 -8 -7 -20q-6 -4 -16 -28v-7l-5 -7l-8 -16l-9 -9l-3 -11l-1 -10l-16 -39l-5 -18l-12 -18
l-22 3l9 22l-2 16q8 0 10 7q5 14 8.5 19.5t8.5 24.5l11 20l8 18l2 14l7 12l12 13v9q10 11 20 35l5 11l17 39q10 14 24 37v12l16 23l7 26l8 3l3 20l9 3l9 13l4 27q12 4 16.5 17t8.5 25l15 14q5 7 21 47l18 29l25 46q4 6 15 22l17 4q2 1 5 1q6 0 10 -6q19 -15 19 -16zM292 222
q-1 -2 -5 -2l-27 -1l-24 -4l-24 4q1 -1 1 -2q-1 0 -6 -2q-10 4 -17 4q-2 0 -16 -2l-16 1l-4 -2l-21 3l-7 -1l-1 3l-18 -3l-13 -1l-6 -3l-4 3h-2q-3 0 -5 -2t-3 -2l-3 2h-9q-2 -1 -5 -1q-5 0 -14 4l2 -2q-1 -2 -6 -3q-8 0 -11 4l-2 3l-8 2l3 4q-5 5 -5 7q4 4 14 6q3 1 5 1
q1 0 2.5 -1.5t5.5 -1.5t14 2l10 1l12 3l15 -1l18 -4q6 -2 8 -2q-2 0 13 3l-2 7l2 3l-7 13l1 9q-2 2 -2 4q1 2 3 2q-3 6 -3 23q0 4 7 7v5l-1 10q3 3 3 7q0 6 -7 10l-1 6l5 2l-3 5l5 9l-4 10l5 5l4 18v3q0 1 1 4v3l5 4l-5 7q-1 1 -1 3q0 4 4 8l1 4h-9q-2 1 -6 1q-3 0 -8 -1.5
t-8 -1.5l-12 -5h-7q-5 -2 -11 -5l-8 -1l-7 -7l-7 2l-10 -2q-9 0 -20 -7q-7 4 -14 4l-12 5l-2 5q3 5 8 5q2 0 6 -1q3 -4 10 -4q5 0 9 2q3 0 6 -1t4 -1q-2 0 9 8l17 4h4q8 0 14 4l11 6q1 -1 3 -1q5 0 6 6q6 1 9 2q0 2 -2 2h7q2 0 4 4l2 6l-3 3l3 2l8 -2q16 1 16 10l-1 7
q0 5 2 9l17 4h17l8 -8q1 -2 1 -6q0 -1 -1 -3l-20 -15q-1 -5 -1 -4q0 -4 6 -7l-8 -5q0 -4 2 -5l-10 -8q1 0 1 -1t-2.5 -5.5t-2.5 -7.5q0 -2 2 -5l-4 -9q-1 -4 -3 -21l-4 -5l2 -5l-6 -11l2 -9l-2 -9h-3l4 -9l-4 -10q3 -7 3 -9q0 -3 -5 -5q6 -4 6 -9l-6 -4q2 -2 2 -4
q0 -1 -1 -2q2 -4 2 -11t-4 -10q2 -6 7 -8q-2 -6 -2 -7q0 -3 3 -5q-2 -2 -2 -3q0 -3 8 -8q0 -5 7 -5h1l4 4l5 -2l8 2l2 -5l15 5l-1 -4l15 -3q3 1 8 1t11 -3h7q5 1 12 2t8 1q-7 0 20 -3l3 -4l4 4q7 -4 7 -6zM699 34q-20 5 -24 5h-5q-5 0 -10 3q-4 -2 -8 -2h-2l-8 -4h-2
q-5 0 -8 -4l-6 -5l-2 -5l2 -4l7 -3l10 -2l8 3h5l4 2l20 6z" />
    <glyph glyph-name="threequarters" unicode="&#xbe;" horiz-adv-x="1024" 
d="M973 132q0 -8 -11 -14l-2 -5l2 -2q-9 -7 -12 -7q-5 1 -4 1q-5 0 -8.5 -4t-7.5 -4h-2l-6 -2l-10 -1l-1 -2h-10l-10 3l-6 -3l-9 5l-6 -2l-11 3l-6 -3v-7l-5 -6l1 -9l-2 -7l2 -7q-3 -1 -3 -5v-1l-4 -5l4 -10l-4 -4l-1 -5l3 -8l-5 -12q2 -1 2 -3t-2 -3v-2q0 -2 1.5 -5.5
t1.5 -4.5v-9l6 -3l6 -12q-1 -3 -6 -3q-2 0 -10 2l-1 10l-5 6v8l-5 5l3 5l-4 3l1 3l-2 10l2 4l-3 4l3 6l-2 9l4 14l-1 2l1 5l-2 2q0 5 5 8l-2 4v7v6q-1 2 -1 3l2 2v2q0 8 -10 11q-5 1 -31 4h-16l-5 3l-10 -3l-7 5l-13 -1l-4 3h-8l-5 2l-6 -4l-6 1q-10 -5 -23 -7l-4 -4l-7 -1
l-1 -3l-10 -3h-12q-2 0 -3.5 -1.5t-2.5 -1.5h-1l-3 5l-3 1l-4 6q5 11 14 12l3 6l3 2l10 5l21 2q6 1 8 6l13 -3l8 1l5 11l6 4h5l-2 6l12 3q3 10 10 14q0 2 5.5 6t8.5 9l6 5l4 7l8 4q0 10 6 11q3 9 12 15q4 0 4 3q-1 5 -1 4q13 5 15 9q-4 1 -6 7l10 6l1 6q2 11 12 14l4 -2
l3 -5l4 -2l-1 -3l1 -4l-4 -3l2 -6l-8 -8l-1 -7l-6 -2l-6 -13v-1q0 -3 -8 -9q-12 -11 -19 -19q1 -1 2 -4q0 -1 -6.5 -4.5t-8.5 -7t-7 -9.5q-1 -2 -4 -5l-10 -6v-4l-5 -3l-20 -16l10 -5h10l9 -4q3 3 4 3h4q7 -8 14 -8q5 0 14 2t12 2q5 0 11 -6h10q5 0 5 7v7l7 7l-1 6l3 5l-2 8
l4 2l-2 8q8 10 8 13v3h-2q1 2 5 8v14q3 1 3 6v5q2 6 2 8t-2 6v3q-1 1 -1 2q0 3 1 6l6 17l-1 16q2 7 9 7q6 -5 13 -14q1 -3 1 -10l-6 -7l1 -18l-3 -7l2 -3l-4 -6l1 -9h-1l-3 -9l-5 -13v-10l-12 -46l-4 -6l-1 -4l2 -6q2 -4 5 -4q2 0 6 2q5 0 9 -4l13 2l12 -6l14 3h2q4 0 7 4
l7 2l4 -3l6 5l3 3l10 2q3 6 10 10zM689 545q-3 -9 -9 -15q0 -8 -9 -13l-16 1l-23 -20l-7 -26l-15 -16l2 -6l-7 -3l-3 -10l-13 -6l-2 -14l-8 -9q-8 -11 -11 -23l-14 -16l-3 -19l-9 -9l-13 -36l-13 -13l-12 -32l-11 -7l-2 -23l-16 -11l2 -16q-16 -1 -16 -23v-2l-6 -1
q-5 -23 -13 -24l-6 -5v-18q-4 -7 -9 -12q-2 -8 -7 -20q-6 -4 -16 -28v-7l-5 -7l-8 -16l-9 -9l-3 -11l-1 -10l-16 -39l-5 -18l-12 -18l-22 3l9 22l-2 16q8 0 10 7q5 14 8.5 19.5t8.5 24.5l11 20l8 18l2 14l7 12l12 13v9q10 11 20 35l5 11l17 39q10 14 24 37v12l16 23l7 26
l8 3l3 20l9 3l9 13l4 27q12 4 16.5 17t8.5 25l15 14q5 7 21 47l18 29l25 46q4 6 15 22l17 4q2 1 5 1q6 0 10 -6q19 -15 19 -16zM324 280l-8 -8l-2 -9l-10 -5h-5v-4l-5 -1l-8 -9l-9 -2q-2 0 -8.5 -3t-9.5 -3q-5 -7 -21 -7q-3 -2 -27 -9l-8 1l-27 -7l-11 1l-12 2q-5 0 -13 -2
l-13 -2l-10 2l-6 -2q-4 3 -11 3l-8 -3q-2 3 -8 6q-2 -4 -6 -5q-1 0 -7 3q0 -2 -2 -3l-5.5 1.5t-11.5 2.5l-2 -2l-7 5l-6 -3l-7 2q0 1 -1 1t-3 -2t-3 -2q0 1 -1 1v1q0 3 -8 3.5t-8 20.5q0 11 8 11h4q5 3 14 3l18 2q6 -1 6 -5q0 -3 -4 -4l-17 -2q-7 -1 -8 -9l-4 -2
q11 -4 27 -6q2 -2 7 -2q3 0 9 3l1 -3l19 3q7 -2 7 -8q11 6 34 6q8 0 12 -1q2 4 5 4q-1 0 9 -5q8 7 12 7h1q4 -4 12 -4q-7 0 14 3l11 -1l12 9q8 -2 9 -2q10 0 18 7q3 -1 9 -1q2 0 4 1l-1 5l10 7l9 -1q9 4 30 22l1 7q2 8 2 9q0 8 -17 12l-12 8l-19 3l-13 -2l-4 5l-7 -1l-12 9
l-5 -4q-3 1 -10 1q-4 0 -7 -1q-6 4 -10 4q-5 -2 -20 -4l-4 3l-17 2l-12 5l-12 -1l-10 5l-6 4v8l-2 7l11 1q8 7 23 8q12 1 13 4l21 -1q4 3 6 8l14 3l5 3h14l1 4h4q13 0 13 5q0 -2 -1 4q2 2 20 4q0 2 5 4.5t7 6.5q17 7 17 13v2q-1 0 -1 1l1 1q-2 13 -22 18l-25 6l-16 -1
q-5 2 -15 2q-11 0 -17 -1h-7l-10 -2l-12 2h-6l-5 -6h-11q-2 -1 -8 -5l-3 2l-8 -2l-3 2l-6 -4q-2 -4 -5 -4q-2 0 -7 2h-1q-7 0 -12 -6h-2q-12 0 -20 -15q-9 0 -10 -5l-9 4l-5 6q-1 3 -3 5q1 1 1 3t-2 5l8 4q2 3 4 3h3q2 -1 3 -1l3 4l6 -1h3q4 0 4 2l-1 1q8 4 14.5 4t10.5 7h9
l6 4h7q1 -1 4 -1l5 1h8l9 1q7 2 19 5l10 -2q7 4 18 4h4q4 -2 9 -2h1q3 0 7 -3l12 3l12 -1q3 1 10 1v-2l11 -4q2 -3 10 -3l15 -3l7 -9l10 -8l5 -10q-1 -4 -8 -17l-4 -5q-8 -9 -19 -12l-5 -6l-12 -5l-15 -3l-9 -6l-13 -3l-12 -6q-1 2 -3 2q-1 0 -4 -3h-7l-3 -5l-13 -2l-9 -5
l-3 1q-4 -3 -4 -6t4 -3l8 -2l4 -2l8 2l5 -2h9q2 -2 5 -2h3l10 2l10 -5l7 4q4 -1 5 -4q15 -5 31 -5q3 -5 13 -5h13l10 -8h7l8 -9l4 -14l6 -6l-1 -5z" />
    <glyph glyph-name="questiondown" unicode="&#xbf;" horiz-adv-x="374" 
d="M237 526l-5 -9l2 -22h-4l-1 -8l-15 4l-3 2l-4 -2l-8 3l-20 13l-7 19q0 7 3 10l11 2l19 6l22 -10l5 -9zM312 43q-15 -15 -37 -18q-8 -1 -8 -5q0 -1 2 -3l-12 -4l-11 -12h-11l-10 -7l-12 -3l-17 7l-9 -6q-9 1 -21 9l-3 -6q-10 7 -16 7h-2q-1 -1 -2 -1l-13 3q-1 5 -5 9
q-4 -2 -6 -2q-5 0 -8 4l-11 12l-16 22l-14 25l-8 7l-1 14l-11 12l8 22l-6 8l6 6l-2 10q10 12 26 28l8 9l5 10h3l24 19l1 6l13 7v5l14 4q4 4 4 9q0 1 -2 7l18 4v7l10 7l-2 5l20 16l5 16l13 23l-4 19l-3 22l-16 13l-12 1q-7 6 -7 13q0 2 1 5v4l19 -2l16 -12l11 -13q9 -6 9 -12
q0 -1 -2 -7l14 -4v-4l-5 -17l9 -11l-9 -2l7 -9l-2 -17q-6 -2 -10 -7.5t-6 -5.5q-11 -13 -14 -27h-5l-8 -15l-8 -3q-4 -7 -12 -13t-8 -9v-3l-9 -1l-10 -16q-20 -3 -20 -10q0 -1 2 -5l-14 -9v-7l-13 -6l-1 -13q-13 -3 -20 -13l2 -25l3 -10l-3 -13l3 -3l13 -25l9 2l5 -3l2 -8
l14 -12l7 -8l8 7q-1 -2 -1 -5q0 -2 3.5 -6.5t7.5 -4.5l7 5l27 -5l3 6q3 -1 11 -1q9 0 34 6h19l38 11q4 2 5 2q5 0 9 -6z" />
    <glyph glyph-name="Agrave" unicode="&#xc0;" horiz-adv-x="704" 
d="M672 247q0 -7 -7 -10l-16 5l-18 -14l-21 3l-12 -7l-16 -2q-11 0 -15 -5q-12 5 -23 5q-10 0 -13 -7q2 -5 7 -9l-3 -10l3 -34l13 -19l2 -18l22 -32l-3 -15l15 -14l23 -39l15 -18l6 -12l18 -9l7 -16l7 -5l-13 -10l-16 13h-10l-13 10h-10l-9 17l-10 5l-12 22l-14 15v10l-9 8
l-1 16l-15 16l-21 50l-7 9l-4 29l-12 19v21h-12l-13 -9l-20 4l-14 -9l-5 5l-11 -7l-3 7q-2 0 -10 -3t-16 -3t-13 1h-17l-17 -11l-18 4l-25 -2v-5l-9 5l-12 -7l-9 7h-16l-16 -7l-13 14l-7 -5l-14 5l-12 -7q-15 -15 -34 -44l-16 -4q-19 -30 -43 -62l-9 -5l-28 -36h-5l-24 -39
l-26 -16l-20 5l4 9v14l7 9l-3 7l18 2l12 7q16 7 20 25q20 6 24 23q23 14 32 45l14 5l32 50v14q-7 5 -10 15l19 17v7l23 -2l13 8l3 -4l13 18q-4 1 -4 4t14 12l4 -6l2 13l8 16l-3 2l12 1l4 13q12 2 12 10v12q24 21 24 38v2l13 2l3 14l7 2l10 21l7 -5l-5 11q15 1 16 19l7 -4v20
h7v14q6 6 13.5 13t9.5 19l11 11l-7 16q15 18 26 18h2l6 9l9 -13l23 -12l2 -25l7 -7l6 -13l8 -3l2 -22l8 -30l13 -23l9 -32l2 -21l14 -19l-4 -8l11 -12v-15l2 -14q-2 -6 -4 -10q3 -10 10 -18q9 -18 25 -18q6 0 19 4h23q11 -3 18 -3q8 0 13 2.5t9.5 6t6.5 3.5q3 0 6 -2l12 -7z
M482 272q-7 17 -16 22l5 14l-13 7l-4 38l-12 19l-2 16l-7 14v5h-3l-2 25l-14 21l-12 9l-13 6l-11 -6l-7 -12l-24 -34l-8 -16l-21 -21l-4 -16l-21 -11q-7 -37 -30 -44l-9 -30l-20 -8v-10l-3 -13l16 -5l9 -5l12 1l20 -5q8 -2 9 -2q4 0 14 2q1 1 4 1q1 0 7.5 -2t11.5 -2
q6 0 13 3l39 3l32 4l23 -3q8 -1 16 -1q23 0 23 10q0 7 -9 17zM460 583l-7 -12l-13 4l-9 10h-9l-2 9l-7 -1l-3 4q-3 4 -11 8l-17 2l-8 13l-6 2l-2 12q-12 3 -18 14q-19 8 -20 26h-8l-10 11h-4q-3 0 -8 11t-13 18l-7 -2v6l4 5l6 13l14 6l6 7l8 -4l9 -3l7 -14l20 -25l10 -22
l11 -11l7 -17l14 -7l7 -12l14 -8l4 -6l6 -3l10 -12q17 -6 18 -22h7z" />
    <glyph glyph-name="Aacute" unicode="&#xc1;" horiz-adv-x="704" 
d="M672 247q0 -7 -7 -10l-16 5l-18 -14l-21 3l-12 -7l-16 -2q-11 0 -15 -5q-12 5 -23 5q-10 0 -13 -7q2 -5 7 -9l-3 -10l3 -34l13 -19l2 -18l22 -32l-3 -15l15 -14l23 -39l15 -18l6 -12l18 -9l7 -16l7 -5l-13 -10l-16 13h-10l-13 10h-10l-9 17l-10 5l-12 22l-14 15v10l-9 8
l-1 16l-15 16l-21 50l-7 9l-4 29l-12 19v21h-12l-13 -9l-20 4l-14 -9l-5 5l-11 -7l-3 7q-2 0 -10 -3t-16 -3t-13 1h-17l-17 -11l-18 4l-25 -2v-5l-9 5l-12 -7l-9 7h-16l-16 -7l-13 14l-7 -5l-14 5l-12 -7q-15 -15 -34 -44l-16 -4q-19 -30 -43 -62l-9 -5l-28 -36h-5l-24 -39
l-26 -16l-20 5l4 9v14l7 9l-3 7l18 2l12 7q16 7 20 25q20 6 24 23q23 14 32 45l14 5l32 50v14q-7 5 -10 15l19 17v7l23 -2l13 8l3 -4l13 18q-4 1 -4 4t14 12l4 -6l2 13l8 16l-3 2l12 1l4 13q12 2 12 10v12q24 21 24 38v2l13 2l3 14l7 2l10 21l7 -5l-5 11q15 1 16 19l7 -4v20
h7v14q6 6 13.5 13t9.5 19l11 11l-7 16q15 18 26 18h2l6 9l9 -13l23 -12l2 -25l7 -7l6 -13l8 -3l2 -22l8 -30l13 -23l9 -32l2 -21l14 -19l-4 -8l11 -12v-15l2 -14q-2 -6 -4 -10q3 -10 10 -18q9 -18 25 -18q6 0 19 4h23q11 -3 18 -3q8 0 13 2.5t9.5 6t6.5 3.5q3 0 6 -2l12 -7z
M482 272q-7 17 -16 22l5 14l-13 7l-4 38l-12 19l-2 16l-7 14v5h-3l-2 25l-14 21l-12 9l-13 6l-11 -6l-7 -12l-24 -34l-8 -16l-21 -21l-4 -16l-21 -11q-7 -37 -30 -44l-9 -30l-20 -8v-10l-3 -13l16 -5l9 -5l12 1l20 -5q8 -2 9 -2q4 0 14 2q1 1 4 1q1 0 7.5 -2t11.5 -2
q6 0 13 3l39 3l32 4l23 -3q8 -1 16 -1q23 0 23 10q0 7 -9 17zM523 742l-4 -13l-3 -15q-20 0 -26 -14l-3 2l-36 -36l-6 2l-14 -19l-8 -2l1 -9l-14 -5v-8l-9 -3l-10 -18l-3 -7l-9 -4v-8l-8 -4l-16 -16l-15 14l11 9l5 18l20 11l12 23l9 2l6 19l4 -3v5l6 2l4 8l12 11
q36 33 36 44v1q3 8 9 8l14 16l11 2l5 -2q19 -5 19 -11z" />
    <glyph glyph-name="Acircumflex" unicode="&#xc2;" horiz-adv-x="704" 
d="M672 247q0 -7 -7 -10l-16 5l-18 -14l-21 3l-12 -7l-16 -2q-11 0 -15 -5q-12 5 -23 5q-10 0 -13 -7q2 -5 7 -9l-3 -10l3 -34l13 -19l2 -18l22 -32l-3 -15l15 -14l23 -39l15 -18l6 -12l18 -9l7 -16l7 -5l-13 -10l-16 13h-10l-13 10h-10l-9 17l-10 5l-12 22l-14 15v10l-9 8
l-1 16l-15 16l-21 50l-7 9l-4 29l-12 19v21h-12l-13 -9l-20 4l-14 -9l-5 5l-11 -7l-3 7q-2 0 -10 -3t-16 -3t-13 1h-17l-17 -11l-18 4l-25 -2v-5l-9 5l-12 -7l-9 7h-16l-16 -7l-13 14l-7 -5l-14 5l-12 -7q-15 -15 -34 -44l-16 -4q-19 -30 -43 -62l-9 -5l-28 -36h-5l-24 -39
l-26 -16l-20 5l4 9v14l7 9l-3 7l18 2l12 7q16 7 20 25q20 6 24 23q23 14 32 45l14 5l32 50v14q-7 5 -10 15l19 17v7l23 -2l13 8l3 -4l13 18q-4 1 -4 4t14 12l4 -6l2 13l8 16l-3 2l12 1l4 13q12 2 12 10v12q24 21 24 38v2l13 2l3 14l7 2l10 21l7 -5l-5 11q15 1 16 19l7 -4v20
h7v14q6 6 13.5 13t9.5 19l11 11l-7 16q15 18 26 18h2l6 9l9 -13l23 -12l2 -25l7 -7l6 -13l8 -3l2 -22l8 -30l13 -23l9 -32l2 -21l14 -19l-4 -8l11 -12v-15l2 -14q-2 -6 -4 -10q3 -10 10 -18q9 -18 25 -18q6 0 19 4h23q11 -3 18 -3q8 0 13 2.5t9.5 6t6.5 3.5q3 0 6 -2l12 -7z
M482 272q-7 17 -16 22l5 14l-13 7l-4 38l-12 19l-2 16l-7 14v5h-3l-2 25l-14 21l-12 9l-13 6l-11 -6l-7 -12l-24 -34l-8 -16l-21 -21l-4 -16l-21 -11q-7 -37 -30 -44l-9 -30l-20 -8v-10l-3 -13l16 -5l9 -5l12 1l20 -5q8 -2 9 -2q4 0 14 2q1 1 4 1q1 0 7.5 -2t11.5 -2
q6 0 13 3l39 3l32 4l23 -3q8 -1 16 -1q23 0 23 10q0 7 -9 17zM553 578l-3 -3l-10 -4l-25 4q-10 6 -25 26l-1 7l-9 4q-12 3 -12 9v2l-11 11l-13 16l-11 7v9l-7 8l3 4l-11 11l-6 13l-4 -4q-2 9 -5 11q-4 -6 -15 -6l-8 -18l-8 -3l-2 -5l-6 -4v-7l-21 -19v-4l-11 -5l-3 -9l-5 -3
l-5 -8q-10 -5 -14 -10l-10 -6l-11 -19l-10 -7l-7 -10l-12 10q2 14 15 17l3 5l4 2v3l4 2l4 9h4q7 12 22 29l2 -4q6 0 13 22l7 3l3 8l13 14l1 9q8 1 13 9q4 4 7 5q12 8 15 26q3 5 8 14l9 -2q0 9 6 12l13 -12l2 2l4 -11l17 -21l2 -10l10 -6l2 -12l11 -11q4 -14 14 -24l22 -22
l2 -17l13 -7l8 -10l14 -6z" />
    <glyph glyph-name="Atilde" unicode="&#xc3;" horiz-adv-x="704" 
d="M672 247q0 -7 -7 -10l-16 5l-18 -14l-21 3l-12 -7l-16 -2q-11 0 -15 -5q-12 5 -23 5q-10 0 -13 -7q2 -5 7 -9l-3 -10l3 -34l13 -19l2 -18l22 -32l-3 -15l15 -14l23 -39l15 -18l6 -12l18 -9l7 -16l7 -5l-13 -10l-16 13h-10l-13 10h-10l-9 17l-10 5l-12 22l-14 15v10l-9 8
l-1 16l-15 16l-21 50l-7 9l-4 29l-12 19v21h-12l-13 -9l-20 4l-14 -9l-5 5l-11 -7l-3 7q-2 0 -10 -3t-16 -3t-13 1h-17l-17 -11l-18 4l-25 -2v-5l-9 5l-12 -7l-9 7h-16l-16 -7l-13 14l-7 -5l-14 5l-12 -7q-15 -15 -34 -44l-16 -4q-19 -30 -43 -62l-9 -5l-28 -36h-5l-24 -39
l-26 -16l-20 5l4 9v14l7 9l-3 7l18 2l12 7q16 7 20 25q20 6 24 23q23 14 32 45l14 5l32 50v14q-7 5 -10 15l19 17v7l23 -2l13 8l3 -4l13 18q-4 1 -4 4t14 12l4 -6l2 13l8 16l-3 2l12 1l4 13q12 2 12 10v12q24 21 24 38v2l13 2l3 14l7 2l10 21l7 -5l-5 11q15 1 16 19l7 -4v20
h7v14q6 6 13.5 13t9.5 19l11 11l-7 16q15 18 26 18h2l6 9l9 -13l23 -12l2 -25l7 -7l6 -13l8 -3l2 -22l8 -30l13 -23l9 -32l2 -21l14 -19l-4 -8l11 -12v-15l2 -14q-2 -6 -4 -10q3 -10 10 -18q9 -18 25 -18q6 0 19 4h23q11 -3 18 -3q8 0 13 2.5t9.5 6t6.5 3.5q3 0 6 -2l12 -7z
M482 272q-7 17 -16 22l5 14l-13 7l-4 38l-12 19l-2 16l-7 14v5h-3l-2 25l-14 21l-12 9l-13 6l-11 -6l-7 -12l-24 -34l-8 -16l-21 -21l-4 -16l-21 -11q-7 -37 -30 -44l-9 -30l-20 -8v-10l-3 -13l16 -5l9 -5l12 1l20 -5q8 -2 9 -2q4 0 14 2q1 1 4 1q1 0 7.5 -2t11.5 -2
q6 0 13 3l39 3l32 4l23 -3q8 -1 16 -1q23 0 23 10q0 7 -9 17zM545 663q-4 -11 -4 -23l-12 -12l-16 -4l-14 -7l-5 -9l-16 -7l-23 -2l-30 5q-7 10 -16 10q-4 0 -6 -1l4 9l2 6l-13 3v7l-7 7l2 4q-22 5 -36 5l-32 -19q-3 -7 -12.5 -11t-9.5 -7q0 -2 4 -5q-7 -24 -22 -24
q-2 0 -10 2q-7 11 -7 20q0 11 16 21l13 20l14 8q2 10 8 11l12 1q11 1 25 13l17 2q14 0 23 -12l13 -3l12 -12l13 -8l1 -9l9 -4l7 -9h4q2 -1 3 -1q8 0 10 7q17 0 19 5l13 1q1 9 6 20q-3 4 -10 4v9q20 23 27 23q8 0 24 -34z" />
    <glyph glyph-name="Adieresis" unicode="&#xc4;" horiz-adv-x="704" 
d="M672 247q0 -7 -7 -10l-16 5l-18 -14l-21 3l-12 -7l-16 -2q-11 0 -15 -5q-12 5 -23 5q-10 0 -13 -7q2 -5 7 -9l-3 -10l3 -34l13 -19l2 -18l22 -32l-3 -15l15 -14l23 -39l15 -18l6 -12l18 -9l7 -16l7 -5l-13 -10l-16 13h-10l-13 10h-10l-9 17l-10 5l-12 22l-14 15v10l-9 8
l-1 16l-15 16l-21 50l-7 9l-4 29l-12 19v21h-12l-13 -9l-20 4l-14 -9l-5 5l-11 -7l-3 7q-2 0 -10 -3t-16 -3t-13 1h-17l-17 -11l-18 4l-25 -2v-5l-9 5l-12 -7l-9 7h-16l-16 -7l-13 14l-7 -5l-14 5l-12 -7q-15 -15 -34 -44l-16 -4q-19 -30 -43 -62l-9 -5l-28 -36h-5l-24 -39
l-26 -16l-20 5l4 9v14l7 9l-3 7l18 2l12 7q16 7 20 25q20 6 24 23q23 14 32 45l14 5l32 50v14q-7 5 -10 15l19 17v7l23 -2l13 8l3 -4l13 18q-4 1 -4 4t14 12l4 -6l2 13l8 16l-3 2l12 1l4 13q12 2 12 10v12q24 21 24 38v2l13 2l3 14l7 2l10 21l7 -5l-5 11q15 1 16 19l7 -4v20
h7v14q6 6 13.5 13t9.5 19l11 11l-7 16q15 18 26 18h2l6 9l9 -13l23 -12l2 -25l7 -7l6 -13l8 -3l2 -22l8 -30l13 -23l9 -32l2 -21l14 -19l-4 -8l11 -12v-15l2 -14q-2 -6 -4 -10q3 -10 10 -18q9 -18 25 -18q6 0 19 4h23q11 -3 18 -3q8 0 13 2.5t9.5 6t6.5 3.5q3 0 6 -2l12 -7z
M482 272q-7 17 -16 22l5 14l-13 7l-4 38l-12 19l-2 16l-7 14v5h-3l-2 25l-14 21l-12 9l-13 6l-11 -6l-7 -12l-24 -34l-8 -16l-21 -21l-4 -16l-21 -11q-7 -37 -30 -44l-9 -30l-20 -8v-10l-3 -13l16 -5l9 -5l12 1l20 -5q8 -2 9 -2q4 0 14 2q1 1 4 1q1 0 7.5 -2t11.5 -2
q6 0 13 3l39 3l32 4l23 -3q8 -1 16 -1q23 0 23 10q0 7 -9 17zM524 638l-6 -16l-12 -6q-7 -9 -18 -13q-5 0 -9 -2l-8 -3q-14 11 -30 29l-2 16l9 11l-2 6l4 4l-2 5q6 2 6 5q2 -1 4 -1t2 2v2h3q4 0 5.5 4.5t4.5 4.5l3 -2l11 -3l12 -1l11 -14l8 -4v-7l5 -3l-2 -11zM359 650
l-3 -3l2 -11l-5 -3v-7l-7 -4l-12 -14l-11 -1l-12 -3q-4 -2 -5 -2q-2 0 -3.5 4.5t-5.5 4.5h-2q0 5 -4 5h-2l-6 3l2 5l-4 4l2 6l-9 14l3 14q1 6 12.5 13.5t16.5 14.5l8 -3l9 -1q8 -3 18 -14l12 -5z" />
    <glyph glyph-name="Aring" unicode="&#xc5;" horiz-adv-x="704" 
d="M672 247q0 -7 -7 -10l-16 5l-18 -14l-21 3l-12 -7l-16 -2q-11 0 -15 -5q-12 5 -23 5q-10 0 -13 -7q2 -5 7 -9l-3 -10l3 -34l13 -19l2 -18l22 -32l-3 -15l15 -14l23 -39l15 -18l6 -12l18 -9l7 -16l7 -5l-13 -10l-16 13h-10l-13 10h-10l-9 17l-10 5l-12 22l-14 15v10l-9 8
l-1 16l-15 16l-21 50l-7 9l-4 29l-12 19v21h-12l-13 -9l-20 4l-14 -9l-5 5l-11 -7l-3 7q-2 0 -10 -3t-16 -3t-13 1h-17l-17 -11l-18 4l-25 -2v-5l-9 5l-12 -7l-9 7h-16l-16 -7l-13 14l-7 -5l-14 5l-12 -7q-15 -15 -34 -44l-16 -4q-19 -30 -43 -62l-9 -5l-28 -36h-5l-24 -39
l-26 -16l-20 5l4 9v14l7 9l-3 7l18 2l12 7q16 7 20 25q20 6 24 23q23 14 32 45l14 5l32 50v14q-7 5 -10 15l19 17v7l23 -2l13 8l3 -4l13 18q-4 1 -4 4t14 12l4 -6l2 13l8 16l-3 2l12 1l4 13q12 2 12 10v12q24 21 24 38v2l13 2l3 14l7 2l10 21l7 -5l-5 11q15 1 16 19l7 -4v20
h7v14q6 6 13.5 13t9.5 19l11 11l-7 16q15 18 26 18h2l6 9l9 -13l23 -12l2 -25l7 -7l6 -13l8 -3l2 -22l8 -30l13 -23l9 -32l2 -21l14 -19l-4 -8l11 -12v-15l2 -14q-2 -6 -4 -10q3 -10 10 -18q9 -18 25 -18q6 0 19 4h23q11 -3 18 -3q8 0 13 2.5t9.5 6t6.5 3.5q3 0 6 -2l12 -7z
M482 272q-7 17 -16 22l5 14l-13 7l-4 38l-12 19l-2 16l-7 14v5h-3l-2 25l-14 21l-12 9l-13 6l-11 -6l-7 -12l-24 -34l-8 -16l-21 -21l-4 -16l-21 -11q-7 -37 -30 -44l-9 -30l-20 -8v-10l-3 -13l16 -5l9 -5l12 1l20 -5q8 -2 9 -2q4 0 14 2q1 1 4 1q1 0 7.5 -2t11.5 -2
q6 0 13 3l39 3l32 4l23 -3q8 -1 16 -1q23 0 23 10q0 7 -9 17zM490 637q0 -18 -21 -35l-15 -12l-11 -1l-5 -11q-3 -4 -23 -7q-5 -1 -10 -3l-5 -2q-2 0 -4 2l-4 7h-10q-6 -6 -13 -6q-4 0 -9 2l-14 6q0 16 -12 25q-3 6 -3 9q0 2 1 5v5q0 3 -4 9l1 14q3 0 3 3t-8 13l7 14l11 9
q0 18 5 18h7q1 8 10 8h3l12 13l12 4l11 -2q6 0 12 -2l4 -5q4 4 9 4q1 0 9 -6t18 -9l9 -12l19 -20l3 -14zM466 638v11l-8 5q-5 15 -5 24q-1 1 -16 13q-8 7 -17 7q-21 0 -28 -12l-6 -1l-1 -7l-11 -4l-11 -14l-3 -22l2 -19l-4 -9l9 -5l9 -12l18 3l7 -3l17 1l13 9l6 -1
q14 3 17 12l8 11l-3 7z" />
    <glyph glyph-name="AE" unicode="&#xc6;" horiz-adv-x="1078" 
d="M1041 162q0 -7 -4 -12l-11 -2q0 -10 -10 -16q-3 5 -7 5q-6 0 -9 -7q-21 -11 -61 -30l-5 -6h-15l-9 -8l-14 -1l-18 -10h-4q-17 0 -20 -13q-1 1 -2 1t-6 -3.5t-11 -5.5l-17 -2q-12 -5 -14 -5h-2q-2 0 -7 -2l-1 -6l-19 2l-5 -6h-14q-15 0 -34 -13l-20 3l-14 -3l-16 3l-10 4
l-45 22l-25 35l-12 32l-9 51v46q0 25 -14 25l-11 1l-15 -5l-40 1l-29 -9l-18 -2l-14 4l-17 -8l-14 3l-13 -5l-4 3l-10 -5l-29 4l-6 -8l-6 6l-9 -2h-9q-1 4 -6 4q-3 -1 -5 -4l-12 -7l-13 -2l-26 -19l-21 -16l-17 -9l-42 -30l-21 -17l-52 -31l-16 -16l-36 -25l-30 -28l-16 -8
l-5 -8q-4 -2 -5 -2q-6 0 -6 13v3l7 6l9 3l2 7l7 9v7q14 5 14 12v2q4 4 14 5q1 8 5 11t7 5l13 10l8 10l15 7l8 11q11 3 12 9q31 11 33 23l25 8q5 19 19 19h5l12 15l11 4q15 17 30 18l7 5q8 2 11 12l9 3l20 24l19 5l12 12h11l7 18l34 19q8 2 15 12t13 10l18 16l17 8
q12 7 34 24q14 11 21 11q4 0 6 -1q19 14 19 20q6 9 19 18l9 9l17 11l6 9l16 6l3 9q6 2 12 6t7 4q2 -1 4 -4l4 24l7 11h9q6 -3 5 -3q7 1 9 1q6 6 6 18q7 7 12 7t11 -15l23 -7l45 6l21 -2l21 7l12 -4l27 3l17 -7l10 5q2 1 6 1t11 6l12 -8l10 8q23 -2 45 -5q17 -3 21 -13l23 2
l5 -8q9 0 12 -7l-17 -9q-10 7 -20 9l-14 -5l-14 5l-22 -9l-25 4l-8 -5l-21 -2l-18 -5l-46 -3l-23 3l-18 -1l-10 -6l-16 -2l-10 5l-16 -5l-9 3l-7 -2q-11 -2 -17 -30l-6 -30l-6 -15l-4 -17l-5 -9l-7 -35l-9 -30l-4 -32l33 2l21 -4h17l21 6l13 -4l10 5l14 -3q7 0 19 5
q6 0 15 -1.5t11 -1.5q5 0 17 6q7 2 20 2h12q2 0 6 2l15 2l16 -1q5 4 9 4t11 -7l5 7l21 -5l14 6l19 3l25 -3l11 1l9 -9q-4 -9 -10 -9q-4 0 -5 4q-16 -9 -20 -9h-3l-19 -2l-8 -6l-17 1l-16 -7l-13 5l-13 -3l-7 4l-9 -8l-13 1l-4 -3l-27 6q-3 -12 -11 -13l-12 5q-3 -1 -7 -5
h-30l-16 -6l-15 3l-10 -6q-3 1 -9 1q-7 0 -13 -3l-16 4q-9 -2 -12 -4l-25 1l-32 -7l-4 -21l1 -40q1 -29 9 -50q5 -15 14 -32l18 -15l15 -3l19 -13h22l17 5h32l41 10l17 7l13 3q10 10 21 10h2l4 -2q1 0 6.5 4t11.5 4h2l38 19l21 3l13 8l17 2l2 5q7 7 18 7q5 9 26 11
q14 17 26 17q9 0 9 -13zM618 430q0 7 -10 7q-9 0 -10 -7q-4 -5 -15 -8l-16 -13h-1q-7 0 -13 -7.5t-12 -8.5l-17 -12l-10 -11l-8 -3q-9 -12 -16 -12q-1 0 -3 1h-3l-10 -15l-22 -10l-22 -13l-19 -19l-17 -7l-10 -10l-7 -4q-8 -7 -24 -20q9 -2 26 -5l24 5l34 1l37 7l42 3l26 3
l28 2l12 3q0 -6 3 33l6 9l-1 15q7 14 7 18l2 20l18 55q0 1 1 2v1z" />
    <glyph glyph-name="Ccedilla" unicode="&#xc7;" horiz-adv-x="608" 
d="M605 176q-15 -8 -17 -14l3 -12q-3 -13 -12 -13h-13l-8 -21l-33 -22l-8 -12l-11 -12q-15 0 -39 -19t-42 -22l-23 -13q-8 -2 -10 -2h-7q-18 0 -37 -14l-12 -9l-15 3q-20 -7 -32 -7q-4 0 -7 1q2 -2 2 -4t-3.5 -8.5t-3.5 -12.5q0 -5 1 -8l-6 -7l2 -7q0 -20 20 -20q4 4 8 4
q7 0 12 -11l15 -1l5 -8l12 -2l21 -39l-6 -24l2 -23l-14 -11l-3 -4l-14 -6l-8 -11h-7q-13 0 -23 -4q-4 -6 -11 -6q-3 0 -5 1l-35 5l-22 7l-1 7l-3 7l15 3q2 -9 8 -9h2q0 1 1 1l10 3q6 -5 21 -6q6 3 11 3t8 -1l3 5h9l6 4q7 0 18 9l3 17l6 12l-2 20h-2q-3 0 -3 2q0 1 3 8
q-2 14 -22 18l-31 6l-15 -6l-10 4l-17 -20q-7 5 -9 5q-5 0 -8 -5l-6 11l3 16l11 16l1 5l6 7q8 0 11 9l-1 13l10 17l-3 16q-9 0 -13 6l-27 -1l-14 5l-9 -4l-20 9l-13 10l-19 6l-5 13l-24 6q-4 1 -5.5 12.5t-11 17.5t-15.5 31q-18 24 -18 45v3l2 31q-6 11 -6 21l6 17v17l6 3
l2 16l12 46l9 22l4 1l2 15q6 2 7.5 15t5.5 20q15 22 15 27t-3 12l12 4q9 14 19 21l5 21l13 8l4 16q16 5 29 19t19 14l9 9l18 6l3 -2l11 11l7 -8l10 -2q15 6 32 6q5 -2 22 -4q18 -10 41 -16l11 -9l55 -34l5 -13l9 -8l6 -19l6 -15l3 -16l-1 -22q-1 -4 -1 -16v-1l-16 -28
l-18 -4l-10 8l-6 10l-4 14l-2 15l3 19l-3 22l1 18l-9 20l-20 16q-7 4 -14.5 6.5t-7.5 3.5v1l-10 9h-21l-14 11q-15 0 -15 -6l-9 6l-10 -7l-13 2l-10 -7l-16 1l-11 -3l-16 -23l-27 -27l-21 -32l-9 -4l-8 -26l-14 -11v-14l-17 -29l-8 -33h-7l4 -19l-10 -19l3 -7h-6v-15l-4 -3
l1 -39l-4 -29l10 -16l1 -10l9 -7v-12l7 -11l-4 -11l19 -20l1 -10l31 -12l-3 -13l41 -3l13 -13l21 7l11 -13l23 8q8 7 13 7q3 0 3 -3l15 1l8 -7l16 6h5q15 0 21 7.5t21 7.5q4 0 14 -2q3 11 21 12q8 9 25 14q7 0 29 10l7 12l9 3l19 9l11 14l17 7l53 56l18 10z" />
    <glyph glyph-name="Egrave" unicode="&#xc8;" horiz-adv-x="599" 
d="M570 514q-1 -7 -5 -11h-11l-7 -5l-14 5l-16 -1q-7 0 -11 1q-6 6 -10 6t-13 -6q-7 4 -13 4t-18 -5t-21 -6q-4 0 -13 1t-14 1q-6 0 -8 -6q-7 6 -16 6q-14 0 -29 -12l-10 5l-9 -5l-23 7l-16 -9h-18q-11 -3 -34 -8l-16 -8l-9 6l-18 -14l-18 1l-13 -24l5 -19q-10 -3 -10 -26
q0 -1 1 -4v-4q-1 -8 -1 -21l3 -4l-7 -6l4 -6q-7 -16 -7 -27q0 -22 26 -22q4 0 11.5 2t11.5 2l7.5 -1.5t15.5 -2.5l15 6l16 -5l10 3l10 -1l15 3l9 -2h2q6 0 18 6q6 -3 20 -3q2 0 8 1h10l13 4q20 -4 22 -4q3 0 6 6q28 -5 30 -5q7 0 11 1q13 0 34 -2l18 4q2 6 12 6q8 0 23 -3
l9 2l13 -5l13 3l-3 -12q-17 -7 -26 -7q-2 0 -10 2t-15 3l-26 -13l-22 2l-13 -5l-9 2l-16 -9l-11 3l-40 -1q-7 0 -13 -6l-14 4l-7 -7l-13 4l-7 -7l-19 9l-14 -9l-16 4q-2 1 -8 1q-15 0 -32 -8l-36 -3l-8 4l-8 -4l-22 -4l-8 -19l9 -52l-5 -7l6 -16l-1 -18l5 -7l4 -27l9 -10
l-5 -17l10 3l18 -28q38 -29 66 -29q4 0 18 -3l13 2l8 2l4 5h9q13 0 18 1l17 11q13 0 16 4l17 4l19 15l5 7l10 9l13 1l25 22q29 8 36 32l7 -4l3 16l13 1l2 15h3q9 0 13 -12l-34 -44l-12 -3l-8 -12l-16 -19l-25 -17l-16 -15l-7 1l-12 -13l-46 -19l-11 -14l-16 5l-5 -8l-4 1
l-8 -7l-27 6l-33 -15l-24 9l-41 21q-26 13 -44 49q-12 26 -30 87l3 14l-7 19l7 9l-7 39l-2 15l-16 20q-1 4 -1 9q0 15 8.5 21.5t8.5 5.5v6q0 7 9 9l3 14l-3 6v28l-3 12l11 30l4 16l4 11l-13 16l-24 -2q-14 0 -14 14q0 9 13 24q5 2 7 5q18 7 20 7q3 0 7 -5q3 7 8 7q15 0 15 9
q0 3 -3 7l33 -2l6 -11q16 11 32 11h3q2 -1 4 -1l21 5q8 0 20 7v-7q9 8 25 8h9q6 -1 8 -1h3l95 9l22 -9l7 12q3 -7 8 -7q1 0 9 2l11 -6l7 6l18 -7l12 3l6 -5l32 3l5 -3l18 -4q3 -1 7 -5zM406 583l-7 -12l-13 4l-9 10h-9l-2 9l-7 -1l-3 4q-3 4 -11 8l-17 2l-8 13l-6 2l-2 12
q-12 3 -18 14q-19 8 -20 26h-8l-10 11h-4q-3 0 -8 11t-13 18l-7 -2v6l4 5l6 13l14 6l6 7l8 -4l9 -3l7 -14l20 -25l10 -22l11 -11l7 -17l14 -7l7 -12l14 -8l4 -6l6 -3l10 -12q17 -6 18 -22h7z" />
    <glyph glyph-name="Eacute" unicode="&#xc9;" horiz-adv-x="599" 
d="M570 514q-1 -7 -5 -11h-11l-7 -5l-14 5l-16 -1q-7 0 -11 1q-6 6 -10 6t-13 -6q-7 4 -13 4t-18 -5t-21 -6q-4 0 -13 1t-14 1q-6 0 -8 -6q-7 6 -16 6q-14 0 -29 -12l-10 5l-9 -5l-23 7l-16 -9h-18q-11 -3 -34 -8l-16 -8l-9 6l-18 -14l-18 1l-13 -24l5 -19q-10 -3 -10 -26
q0 -1 1 -4v-4q-1 -8 -1 -21l3 -4l-7 -6l4 -6q-7 -16 -7 -27q0 -22 26 -22q4 0 11.5 2t11.5 2l7.5 -1.5t15.5 -2.5l15 6l16 -5l10 3l10 -1l15 3l9 -2h2q6 0 18 6q6 -3 20 -3q2 0 8 1h10l13 4q20 -4 22 -4q3 0 6 6q28 -5 30 -5q7 0 11 1q13 0 34 -2l18 4q2 6 12 6q8 0 23 -3
l9 2l13 -5l13 3l-3 -12q-17 -7 -26 -7q-2 0 -10 2t-15 3l-26 -13l-22 2l-13 -5l-9 2l-16 -9l-11 3l-40 -1q-7 0 -13 -6l-14 4l-7 -7l-13 4l-7 -7l-19 9l-14 -9l-16 4q-2 1 -8 1q-15 0 -32 -8l-36 -3l-8 4l-8 -4l-22 -4l-8 -19l9 -52l-5 -7l6 -16l-1 -18l5 -7l4 -27l9 -10
l-5 -17l10 3l18 -28q38 -29 66 -29q4 0 18 -3l13 2l8 2l4 5h9q13 0 18 1l17 11q13 0 16 4l17 4l19 15l5 7l10 9l13 1l25 22q29 8 36 32l7 -4l3 16l13 1l2 15h3q9 0 13 -12l-34 -44l-12 -3l-8 -12l-16 -19l-25 -17l-16 -15l-7 1l-12 -13l-46 -19l-11 -14l-16 5l-5 -8l-4 1
l-8 -7l-27 6l-33 -15l-24 9l-41 21q-26 13 -44 49q-12 26 -30 87l3 14l-7 19l7 9l-7 39l-2 15l-16 20q-1 4 -1 9q0 15 8.5 21.5t8.5 5.5v6q0 7 9 9l3 14l-3 6v28l-3 12l11 30l4 16l4 11l-13 16l-24 -2q-14 0 -14 14q0 9 13 24q5 2 7 5q18 7 20 7q3 0 7 -5q3 7 8 7q15 0 15 9
q0 3 -3 7l33 -2l6 -11q16 11 32 11h3q2 -1 4 -1l21 5q8 0 20 7v-7q9 8 25 8h9q6 -1 8 -1h3l95 9l22 -9l7 12q3 -7 8 -7q1 0 9 2l11 -6l7 6l18 -7l12 3l6 -5l32 3l5 -3l18 -4q3 -1 7 -5zM469 742l-4 -13l-3 -15q-20 0 -26 -14l-3 2l-36 -36l-6 2l-14 -19l-8 -2l1 -9l-14 -5
v-8l-9 -3l-10 -18l-3 -7l-9 -4v-8l-8 -4l-16 -16l-15 14l11 9l5 18l20 11l12 23l9 2l6 19l4 -3v5l6 2l4 8l12 11q36 33 36 44v1q3 8 9 8l14 16l11 2l5 -2q19 -5 19 -11z" />
    <glyph glyph-name="Ecircumflex" unicode="&#xca;" horiz-adv-x="599" 
d="M570 514q-1 -7 -5 -11h-11l-7 -5l-14 5l-16 -1q-7 0 -11 1q-6 6 -10 6t-13 -6q-7 4 -13 4t-18 -5t-21 -6q-4 0 -13 1t-14 1q-6 0 -8 -6q-7 6 -16 6q-14 0 -29 -12l-10 5l-9 -5l-23 7l-16 -9h-18q-11 -3 -34 -8l-16 -8l-9 6l-18 -14l-18 1l-13 -24l5 -19q-10 -3 -10 -26
q0 -1 1 -4v-4q-1 -8 -1 -21l3 -4l-7 -6l4 -6q-7 -16 -7 -27q0 -22 26 -22q4 0 11.5 2t11.5 2l7.5 -1.5t15.5 -2.5l15 6l16 -5l10 3l10 -1l15 3l9 -2h2q6 0 18 6q6 -3 20 -3q2 0 8 1h10l13 4q20 -4 22 -4q3 0 6 6q28 -5 30 -5q7 0 11 1q13 0 34 -2l18 4q2 6 12 6q8 0 23 -3
l9 2l13 -5l13 3l-3 -12q-17 -7 -26 -7q-2 0 -10 2t-15 3l-26 -13l-22 2l-13 -5l-9 2l-16 -9l-11 3l-40 -1q-7 0 -13 -6l-14 4l-7 -7l-13 4l-7 -7l-19 9l-14 -9l-16 4q-2 1 -8 1q-15 0 -32 -8l-36 -3l-8 4l-8 -4l-22 -4l-8 -19l9 -52l-5 -7l6 -16l-1 -18l5 -7l4 -27l9 -10
l-5 -17l10 3l18 -28q38 -29 66 -29q4 0 18 -3l13 2l8 2l4 5h9q13 0 18 1l17 11q13 0 16 4l17 4l19 15l5 7l10 9l13 1l25 22q29 8 36 32l7 -4l3 16l13 1l2 15h3q9 0 13 -12l-34 -44l-12 -3l-8 -12l-16 -19l-25 -17l-16 -15l-7 1l-12 -13l-46 -19l-11 -14l-16 5l-5 -8l-4 1
l-8 -7l-27 6l-33 -15l-24 9l-41 21q-26 13 -44 49q-12 26 -30 87l3 14l-7 19l7 9l-7 39l-2 15l-16 20q-1 4 -1 9q0 15 8.5 21.5t8.5 5.5v6q0 7 9 9l3 14l-3 6v28l-3 12l11 30l4 16l4 11l-13 16l-24 -2q-14 0 -14 14q0 9 13 24q5 2 7 5q18 7 20 7q3 0 7 -5q3 7 8 7q15 0 15 9
q0 3 -3 7l33 -2l6 -11q16 11 32 11h3q2 -1 4 -1l21 5q8 0 20 7v-7q9 8 25 8h9q6 -1 8 -1h3l95 9l22 -9l7 12q3 -7 8 -7q1 0 9 2l11 -6l7 6l18 -7l12 3l6 -5l32 3l5 -3l18 -4q3 -1 7 -5zM499 578l-3 -3l-10 -4l-25 4q-10 6 -25 26l-1 7l-9 4q-12 3 -12 9v2l-11 11l-13 16
l-11 7v9l-7 8l3 4l-11 11l-6 13l-4 -4q-2 9 -5 11q-4 -6 -15 -6l-8 -18l-8 -3l-2 -5l-6 -4v-7l-21 -19v-4l-11 -5l-3 -9l-5 -3l-5 -8q-10 -5 -14 -10l-10 -6l-11 -19l-10 -7l-7 -10l-12 10q2 14 15 17l3 5l4 2v3l4 2l4 9h4q7 12 22 29l2 -4q6 0 13 22l7 3l3 8l13 14l1 9
q8 1 13 9q4 4 7 5q12 8 15 26q3 5 8 14l9 -2q0 9 6 12l13 -12l2 2l4 -11l17 -21l2 -10l10 -6l2 -12l11 -11q4 -14 14 -24l22 -22l2 -17l13 -7l8 -10l14 -6z" />
    <glyph glyph-name="Edieresis" unicode="&#xcb;" horiz-adv-x="599" 
d="M570 514q-1 -7 -5 -11h-11l-7 -5l-14 5l-16 -1q-7 0 -11 1q-6 6 -10 6t-13 -6q-7 4 -13 4t-18 -5t-21 -6q-4 0 -13 1t-14 1q-6 0 -8 -6q-7 6 -16 6q-14 0 -29 -12l-10 5l-9 -5l-23 7l-16 -9h-18q-11 -3 -34 -8l-16 -8l-9 6l-18 -14l-18 1l-13 -24l5 -19q-10 -3 -10 -26
q0 -1 1 -4v-4q-1 -8 -1 -21l3 -4l-7 -6l4 -6q-7 -16 -7 -27q0 -22 26 -22q4 0 11.5 2t11.5 2l7.5 -1.5t15.5 -2.5l15 6l16 -5l10 3l10 -1l15 3l9 -2h2q6 0 18 6q6 -3 20 -3q2 0 8 1h10l13 4q20 -4 22 -4q3 0 6 6q28 -5 30 -5q7 0 11 1q13 0 34 -2l18 4q2 6 12 6q8 0 23 -3
l9 2l13 -5l13 3l-3 -12q-17 -7 -26 -7q-2 0 -10 2t-15 3l-26 -13l-22 2l-13 -5l-9 2l-16 -9l-11 3l-40 -1q-7 0 -13 -6l-14 4l-7 -7l-13 4l-7 -7l-19 9l-14 -9l-16 4q-2 1 -8 1q-15 0 -32 -8l-36 -3l-8 4l-8 -4l-22 -4l-8 -19l9 -52l-5 -7l6 -16l-1 -18l5 -7l4 -27l9 -10
l-5 -17l10 3l18 -28q38 -29 66 -29q4 0 18 -3l13 2l8 2l4 5h9q13 0 18 1l17 11q13 0 16 4l17 4l19 15l5 7l10 9l13 1l25 22q29 8 36 32l7 -4l3 16l13 1l2 15h3q9 0 13 -12l-34 -44l-12 -3l-8 -12l-16 -19l-25 -17l-16 -15l-7 1l-12 -13l-46 -19l-11 -14l-16 5l-5 -8l-4 1
l-8 -7l-27 6l-33 -15l-24 9l-41 21q-26 13 -44 49q-12 26 -30 87l3 14l-7 19l7 9l-7 39l-2 15l-16 20q-1 4 -1 9q0 15 8.5 21.5t8.5 5.5v6q0 7 9 9l3 14l-3 6v28l-3 12l11 30l4 16l4 11l-13 16l-24 -2q-14 0 -14 14q0 9 13 24q5 2 7 5q18 7 20 7q3 0 7 -5q3 7 8 7q15 0 15 9
q0 3 -3 7l33 -2l6 -11q16 11 32 11h3q2 -1 4 -1l21 5q8 0 20 7v-7q9 8 25 8h9q6 -1 8 -1h3l95 9l22 -9l7 12q3 -7 8 -7q1 0 9 2l11 -6l7 6l18 -7l12 3l6 -5l32 3l5 -3l18 -4q3 -1 7 -5zM470 638l-6 -16l-12 -6q-7 -9 -18 -13q-5 0 -9 -2l-8 -3q-14 11 -30 29l-2 16l9 11
l-2 6l4 4l-2 5q6 2 6 5q2 -1 4 -1t2 2v2h3q4 0 5.5 4.5t4.5 4.5l3 -2l11 -3l12 -1l11 -14l8 -4v-7l5 -3l-2 -11zM305 650l-3 -3l2 -11l-5 -3v-7l-7 -4l-12 -14l-11 -1l-12 -3q-4 -2 -5 -2q-2 0 -3.5 4.5t-5.5 4.5h-2q0 5 -4 5h-2l-6 3l2 5l-4 4l2 6l-9 14l3 14
q1 6 12.5 13.5t16.5 14.5l8 -3l9 -1q8 -3 18 -14l12 -5z" />
    <glyph glyph-name="Igrave" unicode="&#xcc;" horiz-adv-x="262" 
d="M170 503l-4 -1l-6 -15l6 -3l-3 -22q-3 -4 -3 -10q0 -5 3 -13v-12l-5 -5l5 -6l-7 -18l2 -17l-16 -32l4 -2q-2 -5 -2 -12q0 -4 1 -9t1 -6v-2l-11 -5l11 -25h-7l3 -9l-7 -13l9 -17l-2 -7h-5q-3 -1 -3 -6q0 -11 12 -19q-9 -6 -9 -16l-3 -23l5 -16l-5 -12l1 -37l-5 -26l10 -5
q-2 -10 -4.5 -14.5t-2.5 -9.5q0 -8 10 -21l-7 -2l13 -13l-5 -8l14 -4q-3 -14 -11 -24q-9 3 -9 13l-13 17l-8 2l4 17l-16 18l7 9l-10 15l3 21l-4 12l-4 6q0 2 4 6l4 6l-4 13l4 9l-13 10l10 15l-1 67l7 52l-3 51l5 14l-5 4l3 12v18l4 7l-7 2l5 23q-11 0 -14 7h14l2 16l-7 2
l5 12q8 7 8 14q0 8 -6 15l6 2v9h10l6 14l8 3q9 0 21 -5q5 -4 7 -11zM211 583l-7 -12l-13 4l-9 10h-9l-2 9l-7 -1l-3 4q-3 4 -11 8l-17 2l-8 13l-6 2l-2 12q-12 3 -18 14q-19 8 -20 26h-8l-10 11h-4q-3 0 -8 11t-13 18l-7 -2v6l4 5l6 13l14 6l6 7l8 -4l9 -3l7 -14l20 -25
l10 -22l11 -11l7 -17l14 -7l7 -12l14 -8l4 -6l6 -3l10 -12q17 -6 18 -22h7z" />
    <glyph glyph-name="Iacute" unicode="&#xcd;" horiz-adv-x="262" 
d="M170 503l-4 -1l-6 -15l6 -3l-3 -22q-3 -4 -3 -10q0 -5 3 -13v-12l-5 -5l5 -6l-7 -18l2 -17l-16 -32l4 -2q-2 -5 -2 -12q0 -4 1 -9t1 -6v-2l-11 -5l11 -25h-7l3 -9l-7 -13l9 -17l-2 -7h-5q-3 -1 -3 -6q0 -11 12 -19q-9 -6 -9 -16l-3 -23l5 -16l-5 -12l1 -37l-5 -26l10 -5
q-2 -10 -4.5 -14.5t-2.5 -9.5q0 -8 10 -21l-7 -2l13 -13l-5 -8l14 -4q-3 -14 -11 -24q-9 3 -9 13l-13 17l-8 2l4 17l-16 18l7 9l-10 15l3 21l-4 12l-4 6q0 2 4 6l4 6l-4 13l4 9l-13 10l10 15l-1 67l7 52l-3 51l5 14l-5 4l3 12v18l4 7l-7 2l5 23q-11 0 -14 7h14l2 16l-7 2
l5 12q8 7 8 14q0 8 -6 15l6 2v9h10l6 14l8 3q9 0 21 -5q5 -4 7 -11zM274 742l-4 -13l-3 -15q-20 0 -26 -14l-3 2l-36 -36l-6 2l-14 -19l-8 -2l1 -9l-14 -5v-8l-9 -3l-10 -18l-3 -7l-9 -4v-8l-8 -4l-16 -16l-15 14l11 9l5 18l20 11l12 23l9 2l6 19l4 -3v5l6 2l4 8l12 11
q36 33 36 44v1q3 8 9 8l14 16l11 2l5 -2q19 -5 19 -11z" />
    <glyph glyph-name="Icircumflex" unicode="&#xce;" horiz-adv-x="262" 
d="M170 503l-4 -1l-6 -15l6 -3l-3 -22q-3 -4 -3 -10q0 -5 3 -13v-12l-5 -5l5 -6l-7 -18l2 -17l-16 -32l4 -2q-2 -5 -2 -12q0 -4 1 -9t1 -6v-2l-11 -5l11 -25h-7l3 -9l-7 -13l9 -17l-2 -7h-5q-3 -1 -3 -6q0 -11 12 -19q-9 -6 -9 -16l-3 -23l5 -16l-5 -12l1 -37l-5 -26l10 -5
q-2 -10 -4.5 -14.5t-2.5 -9.5q0 -8 10 -21l-7 -2l13 -13l-5 -8l14 -4q-3 -14 -11 -24q-9 3 -9 13l-13 17l-8 2l4 17l-16 18l7 9l-10 15l3 21l-4 12l-4 6q0 2 4 6l4 6l-4 13l4 9l-13 10l10 15l-1 67l7 52l-3 51l5 14l-5 4l3 12v18l4 7l-7 2l5 23q-11 0 -14 7h14l2 16l-7 2
l5 12q8 7 8 14q0 8 -6 15l6 2v9h10l6 14l8 3q9 0 21 -5q5 -4 7 -11zM304 578l-3 -3l-10 -4l-25 4q-10 6 -25 26l-1 7l-9 4q-12 3 -12 9v2l-11 11l-13 16l-11 7v9l-7 8l3 4l-11 11l-6 13l-4 -4q-2 9 -5 11q-4 -6 -15 -6l-8 -18l-8 -3l-2 -5l-6 -4v-7l-21 -19v-4l-11 -5l-3 -9
l-5 -3l-5 -8q-10 -5 -14 -10l-10 -6l-11 -19l-10 -7l-7 -10l-12 10q2 14 15 17l3 5l4 2v3l4 2l4 9h4q7 12 22 29l2 -4q6 0 13 22l7 3l3 8l13 14l1 9q8 1 13 9q4 4 7 5q12 8 15 26q3 5 8 14l9 -2q0 9 6 12l13 -12l2 2l4 -11l17 -21l2 -10l10 -6l2 -12l11 -11q4 -14 14 -24
l22 -22l2 -17l13 -7l8 -10l14 -6z" />
    <glyph glyph-name="Idieresis" unicode="&#xcf;" horiz-adv-x="262" 
d="M170 503l-4 -1l-6 -15l6 -3l-3 -22q-3 -4 -3 -10q0 -5 3 -13v-12l-5 -5l5 -6l-7 -18l2 -17l-16 -32l4 -2q-2 -5 -2 -12q0 -4 1 -9t1 -6v-2l-11 -5l11 -25h-7l3 -9l-7 -13l9 -17l-2 -7h-5q-3 -1 -3 -6q0 -11 12 -19q-9 -6 -9 -16l-3 -23l5 -16l-5 -12l1 -37l-5 -26l10 -5
q-2 -10 -4.5 -14.5t-2.5 -9.5q0 -8 10 -21l-7 -2l13 -13l-5 -8l14 -4q-3 -14 -11 -24q-9 3 -9 13l-13 17l-8 2l4 17l-16 18l7 9l-10 15l3 21l-4 12l-4 6q0 2 4 6l4 6l-4 13l4 9l-13 10l10 15l-1 67l7 52l-3 51l5 14l-5 4l3 12v18l4 7l-7 2l5 23q-11 0 -14 7h14l2 16l-7 2
l5 12q8 7 8 14q0 8 -6 15l6 2v9h10l6 14l8 3q9 0 21 -5q5 -4 7 -11zM275 638l-6 -16l-12 -6q-7 -9 -18 -13q-5 0 -9 -2l-8 -3q-14 11 -30 29l-2 16l9 11l-2 6l4 4l-2 5q6 2 6 5q2 -1 4 -1t2 2v2h3q4 0 5.5 4.5t4.5 4.5l3 -2l11 -3l12 -1l11 -14l8 -4v-7l5 -3l-2 -11z
M110 650l-3 -3l2 -11l-5 -3v-7l-7 -4l-12 -14l-11 -1l-12 -3q-4 -2 -5 -2q-2 0 -3.5 4.5t-5.5 4.5h-2q0 5 -4 5h-2l-6 3l2 5l-4 4l2 6l-9 14l3 14q1 6 12.5 13.5t16.5 14.5l8 -3l9 -1q8 -3 18 -14l12 -5z" />
    <glyph glyph-name="Eth" unicode="&#xd0;" horiz-adv-x="624" 
d="M585 196l-5 -11l-2 -15l-18 -26l-5 -10l-18 -9l-7 -9l-23 -7l-14 -9h-9l-9 -2l-4 -8h-16l-2 -4l-6 1q-3 -5 -18 -12q-4 3 -8 3q-7 0 -21 -7l-18 4l-12 -8q-2 1 -6 1t-14 -3t-16 -3h-7q-5 0 -19.5 -4.5t-24.5 -4.5q-8 0 -14 2l-15 -4l-16 6l-10 -6l-6 2l-7 -14l-9 8
l-12 -6l-4 7l-5 -2l-12 -1l-3 -20l-12 -15l-5 -15l-15 -20l-3 3h-5l2 17l-1 25l-15 10q-5 5 -10 5q-2 0 -20 -10h-15l-8 6l-2 8l9 9l1 7l35 9q1 0 8.5 1.5t7.5 3.5v1l-6 20q-1 2 -1 5t2 8t2 6l-3 48l5 12v23l7 16l-12 22l4 8q-8 4 -19 4q-13 0 -22 -5l-18 9l-38 -9l-14 15
l11 16l8 -9l6 6l25 3l45 2l19 -5h4l-5 59l3 23v21l-9 23v36l-11 18v10l-27 3l-21 -9l-32 -2q-6 8 -6 17l-5 23q16 11 26 11h4q2 -1 4 -1q3 0 7 6q15 4 35 4q12 -9 24 -9q3 0 11 2q3 -6 6 -6q1 0 17 6l12 -6l15 4l30 -7l17 -11l22 4l7 -13l12 -3l18 -11l11 -2l14 -7q2 0 4 1
h4q9 0 19 -8q18 -1 44 -30h9q12 -12 32 -16l23 -18l25 -23q5 -6 10 -6q3 0 11 4l4 -3l3 -16q34 -30 53 -57q2 -8 6 -14l9 -6v-13q0 -10 9 -19q0 -9 7 -17t7 -10v-1zM548 190l-3 28l-40 54h-7l-11 27l-12 1l-13 10l-4 14l-12 9l-25 9l-8 14l-79 48h-9l-5 -1q-7 0 -18 6
q-6 7 -12 7q-3 0 -7 -2l-5 12l-15 -1q-8 1 -29 9l-4 -2q0 7 -9 7q-20 16 -55 16q-3 0 -7 -2l3 -11l-5 -15q-2 -3 -2 -8q0 -8 9 -16l-10 -17q4 -7 10 -30q-3 -24 -3 -17q0 -4 1 -5l4 -10l-7 -2l3 -21v-32l8 1l25 3l11 -7l11 4l17 -8l3 9l9 -4l12 7l34 -8l20 2l9 -3l-8 -23
l-9 -5l-31 9l-23 -4l-23 3l-14 -4l-1 3q-10 -9 -30 -9l-7 7l-17 -7l4 -4l-9 -25l4 -23l-10 -23l10 -19l-2 -20l4 -11l-6 -15l9 -24l25 2l37 5q15 5 14 5q5 0 17.5 -2.5t19.5 -2.5q24 0 47 16q10 1 24 1h16l8 -1q11 0 21 8l7 1q6 2 14 6.5t11 4.5q5 0 9 -4q10 0 16 6l18 2
l2 10l7 -3l11 5h7l9 11h7l38 29z" />
    <glyph glyph-name="Ntilde" unicode="&#xd1;" horiz-adv-x="757" 
d="M677 422l-13 -20l2 -16l5 2q0 -8 -7 -23l-6 -13v-51l-10 -23l2 -15l-9 -45l4 -12l-8 -36l2 -16l-7 -26l7 -25l-16 -25l4 -14l-9 -17l5 -10l4 -47l7 -15l-7 -5l-4 -7l-9 2l-5 49l-7 2q-2 24 -2 66l-9 18l-19 3l-11 13l-5 -6l-9 11l-16 -5l-20 16l-10 -2l-20 4l-12 12
l-7 -2l-61 39l-7 9l-21 9l-13 17l-12 6l-16 16l-45 20l-32 41l-14 1l-7 11q-13 6 -32 27h5l-9 9l-7 14l-7 2h-2q-15 0 -21 -36l-9 -51l9 -31l-14 -51l5 -26l1 -8v-4q0 -12 -6.5 -19.5t-6.5 -10.5q0 -1 2 -3l11 -4l-6 -21v-25l-5 -27l5 -11l-5 -7l-2 -21q-3 -13 -11 -26h-7
q-12 0 -12 19v4l12 39l-5 16l7 21l-7 8l8 16l-11 15q2 12 2 19q0 8 -2 22l4 -2l4 10l-8 15l8 23l-5 30l7 32l-6 22l7 48l-1 37l5 34l-5 11l1 48l11 3q-13 13 -13 23q0 1 2 7l4 4l18 -4l5 7q9 -7 9 -16q0 -6 -5 -14h14l2 -23l12 -10l2 -15l16 -10l7 -27l9 -11l33 -24v-2
q0 -8 10 -18l23 -16l25 -29l78 -65h9l7 -6q3 -8 12 -18l32 -10l25 -21l15 -5l28 -16l27 -8q22 -22 42 -25q10 4 15 4h3l2 28l14 30l-7 7l3 47l11 17l-2 16l-9 15l11 39l-5 37l10 71l-12 13l14 41l-5 5l7 9l-2 7l15 7l3 -7l14 3q-3 -10 -3 -19q0 -10 5 -17.5t5 -9.5l-7 -19z
M534 663q-4 -11 -4 -23l-12 -12l-16 -4l-14 -7l-5 -9l-16 -7l-23 -2l-30 5q-7 10 -16 10q-4 0 -6 -1l4 9l2 6l-13 3v7l-7 7l2 4q-22 5 -36 5l-32 -19q-3 -7 -12.5 -11t-9.5 -7q0 -2 4 -5q-7 -24 -22 -24q-2 0 -10 2q-7 11 -7 20q0 11 16 21l13 20l14 8q2 10 8 11l12 1
q11 1 25 13l17 2q14 0 23 -12l13 -3l12 -12l13 -8l1 -9l9 -4l7 -9h4q2 -1 3 -1q8 0 10 7q17 0 19 5l13 1q1 9 6 20q-3 4 -10 4v9q20 23 27 23q8 0 24 -34z" />
    <glyph glyph-name="Ograve" unicode="&#xd2;" horiz-adv-x="697" 
d="M657 269l-9 -22l-3 -30l-9 -9l-10 -32q-3 -10 -5.5 -13t-14.5 -6l-59 -47l-20 -10l-14 -13v6l-41 -32l-18 -8l-43 -23q-9 4 -18 4q-7 0 -10.5 -5t-7.5 -6l-9 2l-16 -15l-8 4l-4 -5h-17l-9 -9l-30 2l-48 -9q-3 1 -9 1q-5 0 -15 -2l-17 3l-4 4l-42 7l-20 10h-9v19l-14 -5
l-11 15l-21 10l-7 23l-2 28l-5 7l-2 40l14 43l-2 21l9 8l-7 17l17 14v14l6 13v11l7 12l-3 4l5 3l21 48l39 62q10 3 18 18l16 12l-2 9h12l-3 6q12 12 31 18l7 8h-1q3 1 42 6l23 3l29 -4l22 1h26q10 -2 14 -2q14 0 21 9q5 -5 11 -5q2 0 5 1q1 -10 10 -10q4 -4 22 -6l7 -7
l15 -2h19l27 -14h-6l22 -16l6 -11l15 -7l7 -12l17 -7l24 -41l14 -21q25 -75 25 -73v-7zM625 295l-9 23q0 2 1 4v3q0 13 -11 20l-12 8l-7 19l-6 3l-3 11l-28 30l-25 21l-8 -3l-36 23q-14 2 -45 13q0 -1 -3 -1q-1 0 -15 2l-5 -3l-15 5l-10 -5q-14 4 -18 4q-3 0 -8.5 -2
t-8.5 -2q-5 0 -7 2q-10 -5 -18 -13q-4 -6 -18 -12l-14 3l-14 -9l-16 2l-9 -4q-13 -13 -45 -33l-10 -18l1 -14l-21 -9l-9 -11q-7 -16 -18 -27v-12l-7 -3l-7 -9l-9 -29l-17 -11q-3 -61 -13 -76q-9 -9 -12 -39l-6 -18l6 -12l3 -18l11 -15l3 -16l16 -16q38 -21 64 -22l32 8l7 -7
h16v-7h16l4 12l16 2l40 -5q5 10 12 10h2q1 -1 2 -1q23 14 32 14h4l24 15l17 1l13 11l23 1q15 1 24.5 9l9.5 8l13 3l7 19l3 -1l2 7l11 4l8 9l9 -3l5 10l16 12l27 30l16 6l8 17l13 9l-3 18l7 16l-4 29zM427 583l-7 -12l-13 4l-9 10h-9l-2 9l-7 -1l-3 4q-3 4 -11 8l-17 2l-8 13
l-6 2l-2 12q-12 3 -18 14q-19 8 -20 26h-8l-10 11h-4q-3 0 -8 11t-13 18l-7 -2v6l4 5l6 13l14 6l6 7l8 -4l9 -3l7 -14l20 -25l10 -22l11 -11l7 -17l14 -7l7 -12l14 -8l4 -6l6 -3l10 -12q17 -6 18 -22h7z" />
    <glyph glyph-name="Oacute" unicode="&#xd3;" horiz-adv-x="697" 
d="M657 269l-9 -22l-3 -30l-9 -9l-10 -32q-3 -10 -5.5 -13t-14.5 -6l-59 -47l-20 -10l-14 -13v6l-41 -32l-18 -8l-43 -23q-9 4 -18 4q-7 0 -10.5 -5t-7.5 -6l-9 2l-16 -15l-8 4l-4 -5h-17l-9 -9l-30 2l-48 -9q-3 1 -9 1q-5 0 -15 -2l-17 3l-4 4l-42 7l-20 10h-9v19l-14 -5
l-11 15l-21 10l-7 23l-2 28l-5 7l-2 40l14 43l-2 21l9 8l-7 17l17 14v14l6 13v11l7 12l-3 4l5 3l21 48l39 62q10 3 18 18l16 12l-2 9h12l-3 6q12 12 31 18l7 8h-1q3 1 42 6l23 3l29 -4l22 1h26q10 -2 14 -2q14 0 21 9q5 -5 11 -5q2 0 5 1q1 -10 10 -10q4 -4 22 -6l7 -7
l15 -2h19l27 -14h-6l22 -16l6 -11l15 -7l7 -12l17 -7l24 -41l14 -21q25 -75 25 -73v-7zM625 295l-9 23q0 2 1 4v3q0 13 -11 20l-12 8l-7 19l-6 3l-3 11l-28 30l-25 21l-8 -3l-36 23q-14 2 -45 13q0 -1 -3 -1q-1 0 -15 2l-5 -3l-15 5l-10 -5q-14 4 -18 4q-3 0 -8.5 -2
t-8.5 -2q-5 0 -7 2q-10 -5 -18 -13q-4 -6 -18 -12l-14 3l-14 -9l-16 2l-9 -4q-13 -13 -45 -33l-10 -18l1 -14l-21 -9l-9 -11q-7 -16 -18 -27v-12l-7 -3l-7 -9l-9 -29l-17 -11q-3 -61 -13 -76q-9 -9 -12 -39l-6 -18l6 -12l3 -18l11 -15l3 -16l16 -16q38 -21 64 -22l32 8l7 -7
h16v-7h16l4 12l16 2l40 -5q5 10 12 10h2q1 -1 2 -1q23 14 32 14h4l24 15l17 1l13 11l23 1q15 1 24.5 9l9.5 8l13 3l7 19l3 -1l2 7l11 4l8 9l9 -3l5 10l16 12l27 30l16 6l8 17l13 9l-3 18l7 16l-4 29zM490 742l-4 -13l-3 -15q-20 0 -26 -14l-3 2l-36 -36l-6 2l-14 -19l-8 -2
l1 -9l-14 -5v-8l-9 -3l-10 -18l-3 -7l-9 -4v-8l-8 -4l-16 -16l-15 14l11 9l5 18l20 11l12 23l9 2l6 19l4 -3v5l6 2l4 8l12 11q36 33 36 44v1q3 8 9 8l14 16l11 2l5 -2q19 -5 19 -11z" />
    <glyph glyph-name="Ocircumflex" unicode="&#xd4;" horiz-adv-x="697" 
d="M657 269l-9 -22l-3 -30l-9 -9l-10 -32q-3 -10 -5.5 -13t-14.5 -6l-59 -47l-20 -10l-14 -13v6l-41 -32l-18 -8l-43 -23q-9 4 -18 4q-7 0 -10.5 -5t-7.5 -6l-9 2l-16 -15l-8 4l-4 -5h-17l-9 -9l-30 2l-48 -9q-3 1 -9 1q-5 0 -15 -2l-17 3l-4 4l-42 7l-20 10h-9v19l-14 -5
l-11 15l-21 10l-7 23l-2 28l-5 7l-2 40l14 43l-2 21l9 8l-7 17l17 14v14l6 13v11l7 12l-3 4l5 3l21 48l39 62q10 3 18 18l16 12l-2 9h12l-3 6q12 12 31 18l7 8h-1q3 1 42 6l23 3l29 -4l22 1h26q10 -2 14 -2q14 0 21 9q5 -5 11 -5q2 0 5 1q1 -10 10 -10q4 -4 22 -6l7 -7
l15 -2h19l27 -14h-6l22 -16l6 -11l15 -7l7 -12l17 -7l24 -41l14 -21q25 -75 25 -73v-7zM625 295l-9 23q0 2 1 4v3q0 13 -11 20l-12 8l-7 19l-6 3l-3 11l-28 30l-25 21l-8 -3l-36 23q-14 2 -45 13q0 -1 -3 -1q-1 0 -15 2l-5 -3l-15 5l-10 -5q-14 4 -18 4q-3 0 -8.5 -2
t-8.5 -2q-5 0 -7 2q-10 -5 -18 -13q-4 -6 -18 -12l-14 3l-14 -9l-16 2l-9 -4q-13 -13 -45 -33l-10 -18l1 -14l-21 -9l-9 -11q-7 -16 -18 -27v-12l-7 -3l-7 -9l-9 -29l-17 -11q-3 -61 -13 -76q-9 -9 -12 -39l-6 -18l6 -12l3 -18l11 -15l3 -16l16 -16q38 -21 64 -22l32 8l7 -7
h16v-7h16l4 12l16 2l40 -5q5 10 12 10h2q1 -1 2 -1q23 14 32 14h4l24 15l17 1l13 11l23 1q15 1 24.5 9l9.5 8l13 3l7 19l3 -1l2 7l11 4l8 9l9 -3l5 10l16 12l27 30l16 6l8 17l13 9l-3 18l7 16l-4 29zM520 578l-3 -3l-10 -4l-25 4q-10 6 -25 26l-1 7l-9 4q-12 3 -12 9v2
l-11 11l-13 16l-11 7v9l-7 8l3 4l-11 11l-6 13l-4 -4q-2 9 -5 11q-4 -6 -15 -6l-8 -18l-8 -3l-2 -5l-6 -4v-7l-21 -19v-4l-11 -5l-3 -9l-5 -3l-5 -8q-10 -5 -14 -10l-10 -6l-11 -19l-10 -7l-7 -10l-12 10q2 14 15 17l3 5l4 2v3l4 2l4 9h4q7 12 22 29l2 -4q6 0 13 22l7 3l3 8
l13 14l1 9q8 1 13 9q4 4 7 5q12 8 15 26q3 5 8 14l9 -2q0 9 6 12l13 -12l2 2l4 -11l17 -21l2 -10l10 -6l2 -12l11 -11q4 -14 14 -24l22 -22l2 -17l13 -7l8 -10l14 -6z" />
    <glyph glyph-name="Otilde" unicode="&#xd5;" horiz-adv-x="697" 
d="M657 269l-9 -22l-3 -30l-9 -9l-10 -32q-3 -10 -5.5 -13t-14.5 -6l-59 -47l-20 -10l-14 -13v6l-41 -32l-18 -8l-43 -23q-9 4 -18 4q-7 0 -10.5 -5t-7.5 -6l-9 2l-16 -15l-8 4l-4 -5h-17l-9 -9l-30 2l-48 -9q-3 1 -9 1q-5 0 -15 -2l-17 3l-4 4l-42 7l-20 10h-9v19l-14 -5
l-11 15l-21 10l-7 23l-2 28l-5 7l-2 40l14 43l-2 21l9 8l-7 17l17 14v14l6 13v11l7 12l-3 4l5 3l21 48l39 62q10 3 18 18l16 12l-2 9h12l-3 6q12 12 31 18l7 8h-1q3 1 42 6l23 3l29 -4l22 1h26q10 -2 14 -2q14 0 21 9q5 -5 11 -5q2 0 5 1q1 -10 10 -10q4 -4 22 -6l7 -7
l15 -2h19l27 -14h-6l22 -16l6 -11l15 -7l7 -12l17 -7l24 -41l14 -21q25 -75 25 -73v-7zM625 295l-9 23q0 2 1 4v3q0 13 -11 20l-12 8l-7 19l-6 3l-3 11l-28 30l-25 21l-8 -3l-36 23q-14 2 -45 13q0 -1 -3 -1q-1 0 -15 2l-5 -3l-15 5l-10 -5q-14 4 -18 4q-3 0 -8.5 -2
t-8.5 -2q-5 0 -7 2q-10 -5 -18 -13q-4 -6 -18 -12l-14 3l-14 -9l-16 2l-9 -4q-13 -13 -45 -33l-10 -18l1 -14l-21 -9l-9 -11q-7 -16 -18 -27v-12l-7 -3l-7 -9l-9 -29l-17 -11q-3 -61 -13 -76q-9 -9 -12 -39l-6 -18l6 -12l3 -18l11 -15l3 -16l16 -16q38 -21 64 -22l32 8l7 -7
h16v-7h16l4 12l16 2l40 -5q5 10 12 10h2q1 -1 2 -1q23 14 32 14h4l24 15l17 1l13 11l23 1q15 1 24.5 9l9.5 8l13 3l7 19l3 -1l2 7l11 4l8 9l9 -3l5 10l16 12l27 30l16 6l8 17l13 9l-3 18l7 16l-4 29zM512 663q-4 -11 -4 -23l-12 -12l-16 -4l-14 -7l-5 -9l-16 -7l-23 -2
l-30 5q-7 10 -16 10q-4 0 -6 -1l4 9l2 6l-13 3v7l-7 7l2 4q-22 5 -36 5l-32 -19q-3 -7 -12.5 -11t-9.5 -7q0 -2 4 -5q-7 -24 -22 -24q-2 0 -10 2q-7 11 -7 20q0 11 16 21l13 20l14 8q2 10 8 11l12 1q11 1 25 13l17 2q14 0 23 -12l13 -3l12 -12l13 -8l1 -9l9 -4l7 -9h4
q2 -1 3 -1q8 0 10 7q17 0 19 5l13 1q1 9 6 20q-3 4 -10 4v9q20 23 27 23q8 0 24 -34z" />
    <glyph glyph-name="Odieresis" unicode="&#xd6;" horiz-adv-x="697" 
d="M657 269l-9 -22l-3 -30l-9 -9l-10 -32q-3 -10 -5.5 -13t-14.5 -6l-59 -47l-20 -10l-14 -13v6l-41 -32l-18 -8l-43 -23q-9 4 -18 4q-7 0 -10.5 -5t-7.5 -6l-9 2l-16 -15l-8 4l-4 -5h-17l-9 -9l-30 2l-48 -9q-3 1 -9 1q-5 0 -15 -2l-17 3l-4 4l-42 7l-20 10h-9v19l-14 -5
l-11 15l-21 10l-7 23l-2 28l-5 7l-2 40l14 43l-2 21l9 8l-7 17l17 14v14l6 13v11l7 12l-3 4l5 3l21 48l39 62q10 3 18 18l16 12l-2 9h12l-3 6q12 12 31 18l7 8h-1q3 1 42 6l23 3l29 -4l22 1h26q10 -2 14 -2q14 0 21 9q5 -5 11 -5q2 0 5 1q1 -10 10 -10q4 -4 22 -6l7 -7
l15 -2h19l27 -14h-6l22 -16l6 -11l15 -7l7 -12l17 -7l24 -41l14 -21q25 -75 25 -73v-7zM625 295l-9 23q0 2 1 4v3q0 13 -11 20l-12 8l-7 19l-6 3l-3 11l-28 30l-25 21l-8 -3l-36 23q-14 2 -45 13q0 -1 -3 -1q-1 0 -15 2l-5 -3l-15 5l-10 -5q-14 4 -18 4q-3 0 -8.5 -2
t-8.5 -2q-5 0 -7 2q-10 -5 -18 -13q-4 -6 -18 -12l-14 3l-14 -9l-16 2l-9 -4q-13 -13 -45 -33l-10 -18l1 -14l-21 -9l-9 -11q-7 -16 -18 -27v-12l-7 -3l-7 -9l-9 -29l-17 -11q-3 -61 -13 -76q-9 -9 -12 -39l-6 -18l6 -12l3 -18l11 -15l3 -16l16 -16q38 -21 64 -22l32 8l7 -7
h16v-7h16l4 12l16 2l40 -5q5 10 12 10h2q1 -1 2 -1q23 14 32 14h4l24 15l17 1l13 11l23 1q15 1 24.5 9l9.5 8l13 3l7 19l3 -1l2 7l11 4l8 9l9 -3l5 10l16 12l27 30l16 6l8 17l13 9l-3 18l7 16l-4 29zM491 638l-6 -16l-12 -6q-7 -9 -18 -13q-5 0 -9 -2l-8 -3q-14 11 -30 29
l-2 16l9 11l-2 6l4 4l-2 5q6 2 6 5q2 -1 4 -1t2 2v2h3q4 0 5.5 4.5t4.5 4.5l3 -2l11 -3l12 -1l11 -14l8 -4v-7l5 -3l-2 -11zM326 650l-3 -3l2 -11l-5 -3v-7l-7 -4l-12 -14l-11 -1l-12 -3q-4 -2 -5 -2q-2 0 -3.5 4.5t-5.5 4.5h-2q0 5 -4 5h-2l-6 3l2 5l-4 4l2 6l-9 14l3 14
q1 6 12.5 13.5t16.5 14.5l8 -3l9 -1q8 -3 18 -14l12 -5z" />
    <glyph glyph-name="multiply" unicode="&#xd7;" horiz-adv-x="833" 
d="M683 60l-28 -28l-238 238l-238 -238l-28 28l238 238l-238 238l28 28l238 -238l238 238l28 -28l-238 -238z" />
    <glyph glyph-name="Oslash" unicode="&#xd8;" horiz-adv-x="697" 
d="M641 285l-7 -13v-25l-18 -48l-12 -42l-16 -16l-16 -28l-23 -20q-1 -1 -32 -45l-36 -26l-35 -29q-16 -10 -21 -10h-12l-12 -12l-19 -7q-3 6 -7 6q-2 0 -10.5 -6.5t-18.5 -8.5l-9 6l-5 -12l-22 -2l-17 7l-7 -7q-10 3 -17 3q-5 0 -8 -3l-8 2h-16l-15 6l-18 -3l-20 -19
l-18 -42l-4 -21l-20 -37l-9 -3l3 -10l-23 -49l-28 -50q-9 0 -10 7l16 34v20l20 18l6 23l5 3l3 27l22 30v18l9 14l2 8l7 3l4 24l6 15l-17 10l-16 15l-25 17l-27 28l-8 13l-7 22l-3 17l-7 34v43l-2 12l9 34l-2 8q0 8 8.5 21t8.5 21l-5 16l13 9l-4 14l4 16l11 14h5v11q8 7 8 14
q0 4 -5 16l10 2l1 19l8 -3q11 1 14 35l9 7l5 -3v18l16 2l9 21q9 9 37 18q0 21 20 21h6q21 0 37 25q25 6 60 15q3 -1 9 -1q10 0 18 4l18 -5l29 7l42 -8q-6 8 -6 13q0 6 7 19q16 2 16 18v5q0 18 8 23l1 11l11 6l3 11l6 13l-2 13l10 4q6 9 8 19q0 25 8 25h2l24 -6l21 -19
l-5 -12v-11l-13 -6q-2 -15 -9.5 -23.5t-13.5 -14.5q-2 -3 -3 -19q-1 -11 -10 -14l-3 -12l-5 -2l-6 -12q-17 -19 -17 -37q0 -6 1 -10l7 -3h16l13 -9l23 -28l25 -22l12 -27l23 -28q12 -14 16 -44l2 -40l7 -17l-2 -14zM618 317l-14 48l-2 16l-7 5l-18 41h-3l-32 41l-41 32l-9 3
l-11 -1l-11 -4l-14 -30l-25 -43l-12 -18l-11 -28l-19 -34l-11 -3l2 -8l-9 -24l-18 -41l-14 -15l-5 -36l-11 -8l-10 -23l-10 -7l-1 -11l-15 -12l6 -7l-7 -6v-14l-18 -27l-7 -17l-11 -8l-9 -23l-18 -32l-5 -21l-11 -18l3 -6l15 6l30 -6l2 6q14 -2 20 -2q5 0 15.5 1.5t15.5 1.5
h13q13 0 20 5l12 9q12 3 18 3q5 0 7 -2q46 18 46 20t-7 3l16 6l5 10l18 6l7 6q16 3 22 20l7 4q5 13 32 28l7 18l9 -3q16 21 16 30q1 15 16 16v6l12 6q-5 10 -5 15q0 8 14 17v22l9 26l14 46zM432 505q0 8 -13 11l-4 -7l-7 5l-12 -5l-9 7l-11 -2h-21l-2 -7q-14 0 -14 -7
q-15 3 -26 3q-9 0 -17 -3l4 -14l10 -8l-10 -25l-16 9l-16 -5l-15 5l-12 -12q-7 0 -9 -5l-14 -8l-4 -12l-16 -11l-7 -23l-23 -14l-19 -43l-13 -19l-7 -16l-15 -52l-8 -25l2 -26l-7 -13l-3 -14l-11 -12l7 -7l4 -56l-3 -7l7 -9l8 -31l14 -8l6 -16q5 -13 40 -21l14 -7
q15 2 16 12l4 28l14 13l4 22l12 23v10l21 25l6 22l14 19l2 14h3q-1 2 -1 7q0 9 7 23l8 4l2 20l20 5q-7 10 -7 14q0 3 11 18t12 32l16 12l9 38l28 46l4 32l17 7l9 37l16 22q0 1 1 3v2z" />
    <glyph glyph-name="Ugrave" unicode="&#xd9;" horiz-adv-x="713" 
d="M733 -9l-3 -23l-26 -9l-3 -10l-14 5l-17 -11q-2 0 -6 -1h-5q-21 0 -32 10q-6 6 -12 11l-5 -4q-21 11 -34 34l4 2l-20 23l-7 27l-12 19l-7 26l-9 19l-15 92l-1 39l-6 13l-3 16q-1 1 -4 1t-5 -1l-21 -29l-20 -15l-3 -8l-15 -16l-14 -9l-16 -17q0 -10 -11 -13l-12 -14
l-16 -7l-14 -19l-77 -60l-34 -21l-20 -16l-22 -7l-2 -11l-4 -1l2 -4h-23l-7 -3l5 -4l-21 -2l-14 16l-7 5v18l-9 9l-10 61l-3 8l-3 40l6 20l-3 15l3 16l-4 52l-4 9q5 6 10 10.5t5 10.5l-7 9l4 21l-8 16v11l8 13l-4 19l7 30l-4 39l4 23l-4 4h7q0 11 5 12h3q0 1 -3 4
q29 -6 36 -34l-7 -11l-12 -60q-2 -10 -2 -17q0 -9 10 -31q-13 -63 -13 -95q0 -13 1 -19l7 -9l-3 -16l-1 -28l-7 -11l11 -9l-9 -7q-3 -7 -3 -14q0 -13 9 -30l6 -26q3 -13 9 -19h16l23 -1l2 6q6 2 7 2q3 0 5 -2v1q0 5 7 7l2 14l18 -4l7 15l16 7q3 9 11 9q3 0 9 -2l2 10l17 11
l11 3v8l11 2l5 5q12 0 18 21l28 15l4 12l7 -2l7 17l18 8l3 7l11 8v13l9 4l10 14l16 7l2 9h6l-4 4q6 11 17 11h3v12l7 3l22 43l3 11l5 16l4 23l9 18l3 17l2 27l5 13l10 8l15 -8q7 -10 21 -20l-5 -9l2 -18q-1 -12 -14 -12l-4 -4v-9l-7 -12v-18l-7 -19l2 -25q-10 -13 -10 -17
q0 -6 6 -11t7 -9l-6 -2l-6 -13l6 -16l-3 -31l9 -15h-3q-6 0 -6 -3l1.5 -6.5t2.5 -13.5q2 -10 2 -20q7 -7 7 -12q0 -2 -4 -5l7 -22q7 -33 25 -80l11 -16l3 -7l11 -15l28 -27l37 -8l4 8l10 -5q7 7 12 8q5 7 14 7q-2 0 18 -2zM404 583l-7 -12l-13 4l-9 10h-9l-2 9l-7 -1l-3 4
q-3 4 -11 8l-17 2l-8 13l-6 2l-2 12q-12 3 -18 14q-19 8 -20 26h-8l-10 11h-4q-3 0 -8 11t-13 18l-7 -2v6l4 5l6 13l14 6l6 7l8 -4l9 -3l7 -14l20 -25l10 -22l11 -11l7 -17l14 -7l7 -12l14 -8l4 -6l6 -3l10 -12q17 -6 18 -22h7z" />
    <glyph glyph-name="Uacute" unicode="&#xda;" horiz-adv-x="713" 
d="M733 -9l-3 -23l-26 -9l-3 -10l-14 5l-17 -11q-2 0 -6 -1h-5q-21 0 -32 10q-6 6 -12 11l-5 -4q-21 11 -34 34l4 2l-20 23l-7 27l-12 19l-7 26l-9 19l-15 92l-1 39l-6 13l-3 16q-1 1 -4 1t-5 -1l-21 -29l-20 -15l-3 -8l-15 -16l-14 -9l-16 -17q0 -10 -11 -13l-12 -14
l-16 -7l-14 -19l-77 -60l-34 -21l-20 -16l-22 -7l-2 -11l-4 -1l2 -4h-23l-7 -3l5 -4l-21 -2l-14 16l-7 5v18l-9 9l-10 61l-3 8l-3 40l6 20l-3 15l3 16l-4 52l-4 9q5 6 10 10.5t5 10.5l-7 9l4 21l-8 16v11l8 13l-4 19l7 30l-4 39l4 23l-4 4h7q0 11 5 12h3q0 1 -3 4
q29 -6 36 -34l-7 -11l-12 -60q-2 -10 -2 -17q0 -9 10 -31q-13 -63 -13 -95q0 -13 1 -19l7 -9l-3 -16l-1 -28l-7 -11l11 -9l-9 -7q-3 -7 -3 -14q0 -13 9 -30l6 -26q3 -13 9 -19h16l23 -1l2 6q6 2 7 2q3 0 5 -2v1q0 5 7 7l2 14l18 -4l7 15l16 7q3 9 11 9q3 0 9 -2l2 10l17 11
l11 3v8l11 2l5 5q12 0 18 21l28 15l4 12l7 -2l7 17l18 8l3 7l11 8v13l9 4l10 14l16 7l2 9h6l-4 4q6 11 17 11h3v12l7 3l22 43l3 11l5 16l4 23l9 18l3 17l2 27l5 13l10 8l15 -8q7 -10 21 -20l-5 -9l2 -18q-1 -12 -14 -12l-4 -4v-9l-7 -12v-18l-7 -19l2 -25q-10 -13 -10 -17
q0 -6 6 -11t7 -9l-6 -2l-6 -13l6 -16l-3 -31l9 -15h-3q-6 0 -6 -3l1.5 -6.5t2.5 -13.5q2 -10 2 -20q7 -7 7 -12q0 -2 -4 -5l7 -22q7 -33 25 -80l11 -16l3 -7l11 -15l28 -27l37 -8l4 8l10 -5q7 7 12 8q5 7 14 7q-2 0 18 -2zM467 742l-4 -13l-3 -15q-20 0 -26 -14l-3 2
l-36 -36l-6 2l-14 -19l-8 -2l1 -9l-14 -5v-8l-9 -3l-10 -18l-3 -7l-9 -4v-8l-8 -4l-16 -16l-15 14l11 9l5 18l20 11l12 23l9 2l6 19l4 -3v5l6 2l4 8l12 11q36 33 36 44v1q3 8 9 8l14 16l11 2l5 -2q19 -5 19 -11z" />
    <glyph glyph-name="Ucircumflex" unicode="&#xdb;" horiz-adv-x="713" 
d="M733 -9l-3 -23l-26 -9l-3 -10l-14 5l-17 -11q-2 0 -6 -1h-5q-21 0 -32 10q-6 6 -12 11l-5 -4q-21 11 -34 34l4 2l-20 23l-7 27l-12 19l-7 26l-9 19l-15 92l-1 39l-6 13l-3 16q-1 1 -4 1t-5 -1l-21 -29l-20 -15l-3 -8l-15 -16l-14 -9l-16 -17q0 -10 -11 -13l-12 -14
l-16 -7l-14 -19l-77 -60l-34 -21l-20 -16l-22 -7l-2 -11l-4 -1l2 -4h-23l-7 -3l5 -4l-21 -2l-14 16l-7 5v18l-9 9l-10 61l-3 8l-3 40l6 20l-3 15l3 16l-4 52l-4 9q5 6 10 10.5t5 10.5l-7 9l4 21l-8 16v11l8 13l-4 19l7 30l-4 39l4 23l-4 4h7q0 11 5 12h3q0 1 -3 4
q29 -6 36 -34l-7 -11l-12 -60q-2 -10 -2 -17q0 -9 10 -31q-13 -63 -13 -95q0 -13 1 -19l7 -9l-3 -16l-1 -28l-7 -11l11 -9l-9 -7q-3 -7 -3 -14q0 -13 9 -30l6 -26q3 -13 9 -19h16l23 -1l2 6q6 2 7 2q3 0 5 -2v1q0 5 7 7l2 14l18 -4l7 15l16 7q3 9 11 9q3 0 9 -2l2 10l17 11
l11 3v8l11 2l5 5q12 0 18 21l28 15l4 12l7 -2l7 17l18 8l3 7l11 8v13l9 4l10 14l16 7l2 9h6l-4 4q6 11 17 11h3v12l7 3l22 43l3 11l5 16l4 23l9 18l3 17l2 27l5 13l10 8l15 -8q7 -10 21 -20l-5 -9l2 -18q-1 -12 -14 -12l-4 -4v-9l-7 -12v-18l-7 -19l2 -25q-10 -13 -10 -17
q0 -6 6 -11t7 -9l-6 -2l-6 -13l6 -16l-3 -31l9 -15h-3q-6 0 -6 -3l1.5 -6.5t2.5 -13.5q2 -10 2 -20q7 -7 7 -12q0 -2 -4 -5l7 -22q7 -33 25 -80l11 -16l3 -7l11 -15l28 -27l37 -8l4 8l10 -5q7 7 12 8q5 7 14 7q-2 0 18 -2zM497 578l-3 -3l-10 -4l-25 4q-10 6 -25 26l-1 7
l-9 4q-12 3 -12 9v2l-11 11l-13 16l-11 7v9l-7 8l3 4l-11 11l-6 13l-4 -4q-2 9 -5 11q-4 -6 -15 -6l-8 -18l-8 -3l-2 -5l-6 -4v-7l-21 -19v-4l-11 -5l-3 -9l-5 -3l-5 -8q-10 -5 -14 -10l-10 -6l-11 -19l-10 -7l-7 -10l-12 10q2 14 15 17l3 5l4 2v3l4 2l4 9h4q7 12 22 29
l2 -4q6 0 13 22l7 3l3 8l13 14l1 9q8 1 13 9q4 4 7 5q12 8 15 26q3 5 8 14l9 -2q0 9 6 12l13 -12l2 2l4 -11l17 -21l2 -10l10 -6l2 -12l11 -11q4 -14 14 -24l22 -22l2 -17l13 -7l8 -10l14 -6z" />
    <glyph glyph-name="Udieresis" unicode="&#xdc;" horiz-adv-x="713" 
d="M733 -9l-3 -23l-26 -9l-3 -10l-14 5l-17 -11q-2 0 -6 -1h-5q-21 0 -32 10q-6 6 -12 11l-5 -4q-21 11 -34 34l4 2l-20 23l-7 27l-12 19l-7 26l-9 19l-15 92l-1 39l-6 13l-3 16q-1 1 -4 1t-5 -1l-21 -29l-20 -15l-3 -8l-15 -16l-14 -9l-16 -17q0 -10 -11 -13l-12 -14
l-16 -7l-14 -19l-77 -60l-34 -21l-20 -16l-22 -7l-2 -11l-4 -1l2 -4h-23l-7 -3l5 -4l-21 -2l-14 16l-7 5v18l-9 9l-10 61l-3 8l-3 40l6 20l-3 15l3 16l-4 52l-4 9q5 6 10 10.5t5 10.5l-7 9l4 21l-8 16v11l8 13l-4 19l7 30l-4 39l4 23l-4 4h7q0 11 5 12h3q0 1 -3 4
q29 -6 36 -34l-7 -11l-12 -60q-2 -10 -2 -17q0 -9 10 -31q-13 -63 -13 -95q0 -13 1 -19l7 -9l-3 -16l-1 -28l-7 -11l11 -9l-9 -7q-3 -7 -3 -14q0 -13 9 -30l6 -26q3 -13 9 -19h16l23 -1l2 6q6 2 7 2q3 0 5 -2v1q0 5 7 7l2 14l18 -4l7 15l16 7q3 9 11 9q3 0 9 -2l2 10l17 11
l11 3v8l11 2l5 5q12 0 18 21l28 15l4 12l7 -2l7 17l18 8l3 7l11 8v13l9 4l10 14l16 7l2 9h6l-4 4q6 11 17 11h3v12l7 3l22 43l3 11l5 16l4 23l9 18l3 17l2 27l5 13l10 8l15 -8q7 -10 21 -20l-5 -9l2 -18q-1 -12 -14 -12l-4 -4v-9l-7 -12v-18l-7 -19l2 -25q-10 -13 -10 -17
q0 -6 6 -11t7 -9l-6 -2l-6 -13l6 -16l-3 -31l9 -15h-3q-6 0 -6 -3l1.5 -6.5t2.5 -13.5q2 -10 2 -20q7 -7 7 -12q0 -2 -4 -5l7 -22q7 -33 25 -80l11 -16l3 -7l11 -15l28 -27l37 -8l4 8l10 -5q7 7 12 8q5 7 14 7q-2 0 18 -2zM468 638l-6 -16l-12 -6q-7 -9 -18 -13q-5 0 -9 -2
l-8 -3q-14 11 -30 29l-2 16l9 11l-2 6l4 4l-2 5q6 2 6 5q2 -1 4 -1t2 2v2h3q4 0 5.5 4.5t4.5 4.5l3 -2l11 -3l12 -1l11 -14l8 -4v-7l5 -3l-2 -11zM303 650l-3 -3l2 -11l-5 -3v-7l-7 -4l-12 -14l-11 -1l-12 -3q-4 -2 -5 -2q-2 0 -3.5 4.5t-5.5 4.5h-2q0 5 -4 5h-2l-6 3l2 5
l-4 4l2 6l-9 14l3 14q1 6 12.5 13.5t16.5 14.5l8 -3l9 -1q8 -3 18 -14l12 -5z" />
    <glyph glyph-name="Yacute" unicode="&#xdd;" horiz-adv-x="659" 
d="M653 530l-8 -7v-16q-16 -3 -23 -12t-15 -11q-2 -11 -9 -11l-25 -22l-10 -17h-9q-10 -18 -16 -23q-11 -5 -20 -11l-21 -25l-23 -17l-14 -5l-10 -19l-20 -12l-15 -16l-10 -26l-35 -43l-13 -19l-10 -22l6 -11l-6 -16l5 -19l-7 -22l4 -26l7 -8q-12 -16 -12 -31.5t-4 -23.5
q3 -21 3 -33l-7 -47l1 -23l-4 -10l7 -36l-9 -15l6 -19l-6 -10q10 -17 10 -26v-3q-1 -1 -1 -2l-7 -23l6 -27l-10 -25l11 -16l-3 -36q-1 -17 -13 -21l-6 34l-8 30l-2 28l-7 4l5 12l-5 17l5 31l-7 33l3 28l-1 6l1 22l-4 47l4 22l-3 26l7 46l-9 17l4 20l-2 26l-5 14q8 14 8 26
q0 8 -5 20l-3 16l-7 24l-12 10l-9 14q-8 1 -14 9l-30 36l-15 9l-13 24l-38 38l-7 14l-19 24l-24 20v11l-19 14l-12 22q-3 5 -16 10q-29 16 -29 52l1 9h9q1 7 9 7q9 0 25 -5l5 -16l19 -8l16 -26l22 -16l1 -21q0 -8 15 -10l10 -16l15 -12l48 -72l-2 -8l11 -4l14 -19l50 -48
q5 -5 11 -14t9 -9q2 1 5 5l13 14l12 22q3 18 7 18h7q4 0 4 6v3q0 3 0.5 4.5t13.5 12.5v2q-1 0 -1 1q0 3 11 14l11 5l9 14v2q0 11 23 12q8 4 8 9q0 3 -1 5q18 3 24 13l14 16l7 14q26 28 31 28h2l13 18l14 10l4 15q3 -2 9 -2q9 0 9 15v1q0 4 15 7l-3 6l12 5h11l6 17l24 -3l7 3
l6 -13zM449 742l-4 -13l-3 -15q-20 0 -26 -14l-3 2l-36 -36l-6 2l-14 -19l-8 -2l1 -9l-14 -5v-8l-9 -3l-10 -18l-3 -7l-9 -4v-8l-8 -4l-16 -16l-15 14l11 9l5 18l20 11l12 23l9 2l6 19l4 -3v5l6 2l4 8l12 11q36 33 36 44v1q3 8 9 8l14 16l11 2l5 -2q19 -5 19 -11z" />
    <glyph glyph-name="Thorn" unicode="&#xde;" horiz-adv-x="553" 
d="M544 279l-9 -19l-21 -22v-7q-11 -1 -21 -13q-3 -6 -7 -6q-10 -15 -43 -23q-12 -18 -36 -18h-5v-5h-20l-12 -9l-11 -2q0 -7 -7 -7l-9 -7h-23l-14 -13l-41 -9l-5 -3l-23 2l-2 -6l-7 -12q-9 6 -29 6l-9 -6l-14 -4l-9 -6v-8h-10l3 -11l-6 -4l8 -12v-20l4 -10v-18l1 -7
q3 -9 3 -12q0 -15 -23 -15q-7 0 -11 1l-18 2l7 35l-6 30v40l-12 -3l-41 8l-11 16l50 4l7 -1l4 5l-4 20l2 14l-4 13l5 14l-2 12v23l6 12l3 60l6 7l-2 46l4 25l2 55l2 6l-4 3l-14 -9l-11 7l-21 -5v-3h-9l-20 -12l-20 -3l-13 -7l-8 10q-6 12 -8 26l10 13v8q3 4 18.5 5.5
t26.5 7.5q10 -2 14 -2q5 0 9 3l9 -3q6 2 7 2q6 0 12 -6h27l-2 2l6 20l10 12l-5 5l6 16l8 5l-2 14q1 11 12 11q34 0 34 -24q0 -8 -12 -29l-9 -6l6 -3l-3 -18l-7 -6l8 -1l33 -5q7 -3 15 -11l7 8q-2 0 5 1q10 0 10 -6q0 -1 -1 -3h14l23 -7l22 -2l3 -5h27l21 -14l18 -2l5 -9h5
q24 0 36 -20l13 7v-12l10 -4l15 -10h12l9 -14l32 -21v-11zM500 279l-9 22l-13 17l-10 3l-18 16l-37 16q-34 26 -76 29v-7l-17 13l-23 -1l-14 8h-16l-14 9h-8q-9 0 -17 2l-6 5l-39 6l-5 -13q-4 -10 -4 -16q0 -8 11 -27l-9 -9l-1 -27l-13 -12l4 -21l-8 -23l4 -22l-4 -17l2 -13
l-7 -11q2 -16 2 -21l-3 -10l2 -15l-6 -19l10 -19l-1 -9l10 -1l25 16h21q14 14 34 14l7 6q5 -2 14 -2q20 0 40 16l16 2l13 11h13l3 5l53 14q14 1 14 8q4 4 5 8q4 -1 11 -1q13 0 17 19q16 2 17 6t8 7l6 -6l5 16l7 6z" />
    <glyph glyph-name="germandbls" unicode="&#xdf;" horiz-adv-x="591" 
d="M528 135l-9 -13l3 -18l-12 -15l-5 -19l-14 -8l-4 -9l-10 -3l-16 -18l-8 2l-8 -16l-8 1l-10 -6l-12 1l-8 -3.5t-17 -3.5l-20 -7l-2 -7l-25 -2l-12 -5l-27 -5l-9 -4l-16 4l-14 -4q-6 3 -11 3q-3 0 -8 -3q-9 0 -13 7l1 11q7 22 20 23l11 -4q1 7 9 7q5 0 14 -3l11 -11l11 3
h10l29 6h5q23 0 37 13q8 10 21 10q3 0 9 -2l11 11l18 7l16 3l4 12l8 12q1 19 15 31v19q3 5 3 8v3q0 5 2 8l-5 8l1 8v15l-19 35l-4 16l-14 17l-9 20l-5 -1l-6 10l-10 11v9l-7 7l-22 27l-14 4l-5 8l-5 2q-16 23 -40 23l-9 7l-8 2l-9 9h-13l-14 10l-5 -3l-16 5l-10 -3
q-4 -2 -6 -2q-5 0 -13 4l-16 8l-17 4l-25 -4l-3 -3q9 -3 12 -11q-4 -7 -12 -23l10 -9l-2 -12l-9 -25l4 -23q-4 -20 -4 -21q0 -3 1 -9t1 -8q0 -3 -2 -7l-2 -12l2 -31l-3 -15l3 -9l-5 -11l3 -16l2 -20l-3 -39l3 -7l-3 -29l10 -20l-1 -22l3 -9q-1 -5 -6 -11.5t-5 -10.5
q0 -1 1 -2v-1l-2 -3q-28 6 -29 21l-2 25q-4 20 -4 27q0 10 3 22v17q7 1 7 6q0 12 -9 31q7 0 10 7q-5 12 -5 19q0 4 4 10t5 9v14l-5 19l7 19q2 4 2 7q0 6 -8 25l6 12l-6 16l9 3l4 16l-5 -2l-2 42q6 0 6 8t-3 18l-5 16l8 7q-8 2 -11 2q-10 0 -21 -6l-16 -4l-10 -12l-25 -1
q-28 -22 -49 -28l-9 -8l-38 -8l-21 5h-6q-13 0 -17 19q4 11 16 14l2 4q11 1 23.5 13.5t23.5 12.5h3q3 -1 4 -1q4 1 23.5 9.5t20.5 8.5q2 -2 4 -2q3 0 19 8l17 5l31 4q20 3 25 5q10 6 14 24l-3 18l12 87l-4 12q5 23 7 64l4 16v13l5 23q0 27 6 27h1q0 -1 1 -1l1 9l3 20l11 11
l4 25l5 12l14 9l1 11q16 1 19 14q11 1 14 13h1q3 0 10 -3t12 -3q10 0 20 -6l-1 -5q14 -22 34 -74l-1 -11l-13 -27l7 -16l-7 -9l5 -10q-5 -6 -12 -31q-4 -10 -7 -17v-11l-7 -2v-14q0 -8 -25 -20l-8 -21l-8 -11l-2 -10l-10 -14l-6 -16l-15 -9l-1 -9l-14 -11l-8 -14l-13 -4
l-7 -21l3 -7l1 -9l8 -4l12 -1l12 1h22l15 -5l11 -7h13q7 -5 27 -5l16 -9q18 -3 24 -9.5t9 -6.5q2 0 6 2h9l5 -15l23 -10l9 -13l18 -7l5 -14h4l13 -14l17 -15l9 -28l13 -4l3 -10l7 -4v-9l9 -5v-11q2 -10 9 -21t8 -13l6 -19v-21l-2 -9zM295 715q0 2 -4 9.5t-4 14.5q0 1 1 3v4
q3 1 6 4q-5 9 -15 29l-21 31l-11 -13l-13 -32l-10 -13v-12l-12 -15l1 -8l-5 -2l-14 -43l2 -5l-6 -13q-3 -19 -7 -32q0 -11 -2.5 -26.5t-2.5 -20.5v-28l-3 -37l3 -16l11 -3l2 -2q3 0 9 13l5 8q16 14 23 27q2 6 5 13q11 24 21 40q9 6 9 20l13 20l2 16l10 14l4 3l-7 15l5 14
l-3 18l7 3q0 1 1 1v1z" />
    <glyph glyph-name="agrave" unicode="&#xe0;" horiz-adv-x="495" 
d="M407 9l-14 -7l-3 -9l-8 -2l-7 -3l-5 3l-7 -3l-16 19v22l-7 6l2 31l-6 64l4 21l-7 11l9 5l-6 9l2 9l5 4l-1 12h5v20l2 10l-4 2l-5 7l-16 -7l-6 -11l-7 -5l-1 -11l-11 -5l-2 -14l-7 -5v-7l-9 -8l-5 -10l-7 -4l-15 -27l-24 -24l-8 -13l-21 -22l-5 -12l-29 -20l-32 -38
l-16 -4l-10 -9h-3q-8 0 -13 16q-37 15 -40 42l8 5l-6 19l-2 20l-5 4l5 8l4 27l7 37q-1 2 -1 7t3 11q-2 8 -2 11q0 4 2 10l4 1q8 11 8 19q0 5 -3 8t-3 4q0 3 5 5q-7 1 -7 6t10 5v2q0 10 6 20t7 12l-7 2l13 21v5q0 21 14 36l-1 18l4 3q-3 5 -3 10q0 3 6 3v16q5 2 5 5t-1 5
q11 11 28 36h3q11 0 11 5q-1 3 -3 5q20 0 21 8l18 9l52 -4v-4l42 -9h4q9 0 9 -8l5 2q3 -9 11 -9q6 1 5 1l9 -9l21 -5v-9l15 9l21 7v-16h-5l10 -5l-2 -2l8 -25l-9 -10l-6 -25l-7 -12l6 -13q-10 -20 -10 -30q3 -1 3 -5q0 -2 -2 -8l1 -7l-3 -11l2 -9l-6 -7l2 -22l-3 -3l3 -4
l-3 -3q1 -1 1 -4q0 -4 -3 -9l3 -6l-5 -9q-4 -3 -4 -14l4 -13l-9 -12q5 -10 9 -13l-7 -13l-5 -26l8 -2l-1 -5q1 -2 1 -7q0 -8 -7 -20h6l3 -15l20 -2l7 -13q-3 -1 -3 -3q0 -4 10 -10h-1q-1 0 -2 -1q0 -3 8 -9zM356 368l-4 9l-2 9l-16 5l-28 25q-6 4 -10 4q-2 0 -8 -2l-5 5h-16
l-5 6l-11 -4l-5 4l-8 -2q-12 2 -16 2q-10 0 -19 -4l-16 -7l2 -4l-9 -3l-2 -4l-11 -1v-6q-10 -6 -23 -32l-7 -26l-11 -25l8 -4l-13 -11l4 -8q-9 -13 -9 -31v-5l-7 -11v-17l-7 -9l-2 -9l-4 -4v-18l-3 -5q0 -9 -4 -27l5 -12q-6 -2 -14 -12l4 -8l-6 -8l8 -20l-9 -12l1 -24
l-3 -11l5 -3l2 -7l8 -4l6 -7l23 5q6 15 22 16l-2 7l16 4q0 5 11 16h2q3 0 3 4l18 21h-4l16 15l11 4l7 19q11 5 18 12l3 9h6l10 13l-2 8l9 2q-2 4 -2 5q0 5 6 9q5 10 12 18l4 -2q1 12 11 18q3 12 16 17h7l1 12q2 2 2 4q0 3 -3 6l8 13l6 5l2 11l7 5l-2 9l5 9l2 9l9 9zM315 496
l-7 -12l-13 4l-9 10h-9l-2 9l-7 -1l-3 4q-3 4 -11 8l-17 2l-8 13l-6 2l-2 12q-12 3 -18 14q-19 8 -20 26h-8l-10 11h-4q-3 0 -8 11t-13 18l-7 -2v6l4 5l6 13l14 6l6 7l8 -4l9 -3l7 -14l20 -25l10 -22l11 -11l7 -17l14 -7l7 -12l14 -8l4 -6l6 -3l10 -12q17 -6 18 -22h7z" />
    <glyph glyph-name="aacute" unicode="&#xe1;" horiz-adv-x="495" 
d="M407 9l-14 -7l-3 -9l-8 -2l-7 -3l-5 3l-7 -3l-16 19v22l-7 6l2 31l-6 64l4 21l-7 11l9 5l-6 9l2 9l5 4l-1 12h5v20l2 10l-4 2l-5 7l-16 -7l-6 -11l-7 -5l-1 -11l-11 -5l-2 -14l-7 -5v-7l-9 -8l-5 -10l-7 -4l-15 -27l-24 -24l-8 -13l-21 -22l-5 -12l-29 -20l-32 -38
l-16 -4l-10 -9h-3q-8 0 -13 16q-37 15 -40 42l8 5l-6 19l-2 20l-5 4l5 8l4 27l7 37q-1 2 -1 7t3 11q-2 8 -2 11q0 4 2 10l4 1q8 11 8 19q0 5 -3 8t-3 4q0 3 5 5q-7 1 -7 6t10 5v2q0 10 6 20t7 12l-7 2l13 21v5q0 21 14 36l-1 18l4 3q-3 5 -3 10q0 3 6 3v16q5 2 5 5t-1 5
q11 11 28 36h3q11 0 11 5q-1 3 -3 5q20 0 21 8l18 9l52 -4v-4l42 -9h4q9 0 9 -8l5 2q3 -9 11 -9q6 1 5 1l9 -9l21 -5v-9l15 9l21 7v-16h-5l10 -5l-2 -2l8 -25l-9 -10l-6 -25l-7 -12l6 -13q-10 -20 -10 -30q3 -1 3 -5q0 -2 -2 -8l1 -7l-3 -11l2 -9l-6 -7l2 -22l-3 -3l3 -4
l-3 -3q1 -1 1 -4q0 -4 -3 -9l3 -6l-5 -9q-4 -3 -4 -14l4 -13l-9 -12q5 -10 9 -13l-7 -13l-5 -26l8 -2l-1 -5q1 -2 1 -7q0 -8 -7 -20h6l3 -15l20 -2l7 -13q-3 -1 -3 -3q0 -4 10 -10h-1q-1 0 -2 -1q0 -3 8 -9zM356 368l-4 9l-2 9l-16 5l-28 25q-6 4 -10 4q-2 0 -8 -2l-5 5h-16
l-5 6l-11 -4l-5 4l-8 -2q-12 2 -16 2q-10 0 -19 -4l-16 -7l2 -4l-9 -3l-2 -4l-11 -1v-6q-10 -6 -23 -32l-7 -26l-11 -25l8 -4l-13 -11l4 -8q-9 -13 -9 -31v-5l-7 -11v-17l-7 -9l-2 -9l-4 -4v-18l-3 -5q0 -9 -4 -27l5 -12q-6 -2 -14 -12l4 -8l-6 -8l8 -20l-9 -12l1 -24
l-3 -11l5 -3l2 -7l8 -4l6 -7l23 5q6 15 22 16l-2 7l16 4q0 5 11 16h2q3 0 3 4l18 21h-4l16 15l11 4l7 19q11 5 18 12l3 9h6l10 13l-2 8l9 2q-2 4 -2 5q0 5 6 9q5 10 12 18l4 -2q1 12 11 18q3 12 16 17h7l1 12q2 2 2 4q0 3 -3 6l8 13l6 5l2 11l7 5l-2 9l5 9l2 9l9 9zM378 655
l-4 -13l-3 -15q-20 0 -26 -14l-3 2l-36 -36l-6 2l-14 -19l-8 -2l1 -9l-14 -5v-8l-9 -3l-10 -18l-3 -7l-9 -4v-8l-8 -4l-16 -16l-15 14l11 9l5 18l20 11l12 23l9 2l6 19l4 -3v5l6 2l4 8l12 11q36 33 36 44v1q3 8 9 8l14 16l11 2l5 -2q19 -5 19 -11z" />
    </font>
</defs>
</svg>
